<svg xmlns="http://www.w3.org/2000/svg" width="41" height="39" fill="none" viewBox="0 0 41 39">
  <!-- <path fill="#D9D9D9" d="M0 0h41v37H0z"/>s -->
  <path fill="#fff" d="M33.464 13.705a1.63 1.63 0 0 1 .302-.022c.245 0 .425.05.54.151.13.087.194.202.194.346 0 .216-.115.432-.345.648a1.69 1.69 0 0 1-.843.389l-.086.108c-.13.13-.28.353-.454.67-.273.503-.547 1.216-.82 2.138-.36 1.296-.677 3.045-.95 5.249-.174 1.44-.332 3.045-.476 4.816a3.8 3.8 0 0 0-.022.476 9.19 9.19 0 0 1-.13 1.144 1.712 1.712 0 0 1-.323.735c-.13.144-.36.295-.691.453a2.152 2.152 0 0 1-.886.216c-.36 0-.576-.144-.648-.432-.317-1.065-.698-2.62-1.145-4.665-.072-.317-.18-.785-.324-1.404-.144-.62-.273-1.16-.389-1.62l-.583-2.225a61.72 61.72 0 0 1-.324 2.743c-.23 1.656-.482 3.039-.756 4.147a8.937 8.937 0 0 1-1.274 2.981 1.824 1.824 0 0 1-.67.605 1.788 1.788 0 0 1-.842.216c-.202 0-.389-.036-.562-.108-.173-.086-.259-.202-.259-.346 0-.1.029-.187.086-.259.533-.95.93-1.973 1.188-3.067.274-1.109.526-2.477.756-4.104.332-2.434.497-4.68.497-6.74 0-.834-.014-1.46-.043-1.878-.014-.274.151-.512.497-.713a2.009 2.009 0 0 1 1.08-.324c.288 0 .504.072.648.216.331.331.583.705.756 1.123.187.403.417 1.008.691 1.814.36 1.037.814 2.607 1.36 4.71.102.36.238.9.411 1.62.058-.447.159-1.131.303-2.053.23-1.382.475-2.563.734-3.542.274-.98.72-1.887 1.34-2.722.618-.85 1.44-1.346 2.462-1.49ZM18.045 4.618c.1-.158.353-.33.756-.518.418-.202.77-.302 1.058-.302.375 0 .533.18.476.54-.159.936-.36 1.944-.605 3.024-.23 1.065-.375 1.742-.432 2.03-.49 2.246-.835 3.938-1.037 5.076l-.151.842a58.651 58.651 0 0 0-.389 2.268c-.086.677-.13 1.34-.13 1.988 0 1.54.324 2.714.972 3.52.087.116.13.23.13.346 0 .274-.187.518-.562.734-.36.23-.72.346-1.08.346-.302 0-.51-.08-.626-.238-.763-.95-1.145-2.296-1.145-4.039 0-.691.036-1.36.108-2.009.087-.648.216-1.476.389-2.484.23-1.468.612-3.355 1.145-5.659-.029.029-.043.05-.043.065-.087.144-.274.504-.562 1.08-.432.878-.835 1.57-1.21 2.074-.374.504-.85.85-1.425 1.036a2.57 2.57 0 0 1-.778.13c-.49 0-.85-.187-1.08-.562-.23-.388-.367-.907-.41-1.555l-.065-1.037c-.13.404-.266.872-.41 1.404l-.41 1.404c-.505 1.743-.951 3.19-1.34 4.342a31.657 31.657 0 0 1-1.318 3.348c-.086.202-.316.382-.69.54-.36.158-.706.238-1.038.238-.187 0-.338-.03-.453-.087a.338.338 0 0 1-.173-.302c0-.072.022-.151.065-.238a35.83 35.83 0 0 0 1.36-3.499c.39-1.195.865-2.765 1.426-4.709l.389-1.339a187.443 187.443 0 0 1 1.34-4.406l.129-.454c.144-.475.28-.864.41-1.166.13-.303.295-.576.497-.821.115-.144.324-.288.626-.432.317-.144.612-.216.886-.216.418 0 .634.187.648.561.029.648.1 1.62.216 2.916l.086 1.016c.015.13.022.388.022.777 0 .749.022 1.303.065 1.663l.561-.972c.173-.316.54-.957 1.102-1.922.749-1.253 1.649-2.7 2.7-4.342Z"/>
</svg>
