<svg class="animate-icon-color" id="Capa_1" data-name="Capa 1" xmlns="http://www.w3.org/2000/svg" viewBox="0 0 409.86 372.56">
                                        <defs>
                                        </defs>
                                        <path class="cls-1" d="M389.04,189.95c1.57-1.45,2.97-3.02,4.02-4.33,4.56-5.69,7.66-12.28,7.31-19.57-.04-1.02-1.12-2.06-2.25-1.64-2.16,.79-4.18,1.99-6.08,3.43,5.98-10.94,9.15-24.39,4.93-35.73-.24-.64-.81-1.15-1.56-1.13-6.21,.2-10.69,12.4-12.51,16.94-.48,1.2-.88,2.45-1.22,3.7-.65-.54-1.34-1.05-2.07-1.5,1.87-5.03,0-9.3-3.34-12.6,.44,.03,.89-.18,.99-.66,1.78-8.56-1.65-17.06-10.36-20.5-8.81-3.45-37.43-6.46-28.47-20.65,.16-.25,.22-.49,.23-.72,4.43,.91,8.86,1.78,13.17,3.18,8.51,2.75,11.04,7.43,12.69,15.39,.25,1.19,2.08,1.09,2.4,0,1.12-3.86,.87-6.91-.33-9.39,6.61,3.21,14.07,4.93,20.34,4.64,1.02-.05,2.1-1.04,1.66-2.09-3.73-8.94-11.42-21.47-21.26-25.82,6.91-3.26,13.23-7.42,17.82-13.59,.39-.52,.28-1.5-.26-1.9-5.55-4.18-12.14-2.83-18.06,.86,.47-4.42-.11-9-1.24-12.28-2.04-5.9-6.35-9.17-11.44-9.84,4.16-11.07-2.77-24.59-6.09-35.92-.44-1.46-2.4-1.27-2.91,0-4.77,11.89-8.15,25.43,.24,36.62,.14,.18,.29,.31,.46,.41-.69,.26-1.38,.47-2.07,.81-1.62,.79-.2,3.01,1.4,2.3,1.1-.48,2.14-.83,3.17-1.07-.8,1.45-1.68,2.92-2.73,4.45v.04c-.16,.05-.32,.06-.48,.12-.83,.28-1.11,.99-1.02,1.64-.47-.42-.98-.82-1.52-1.17,1-2.2,.45-5.28-.25-7.45-.47-1.44-1.33-2.64-2.39-3.7-4.21-8.08-18.63-12.24-26.61-8.38,2.48-10.26,2.58-22.11-.28-31.73-.29-.97-1.83-1.56-2.58-.66-7.9,9.72-7.08,22.74-1.27,33.26,.15,.27,.35,.43,.56,.55-.03,.5-.04,1-.06,1.5-.51,.69-.96,1.44-1.25,2.31-.08-.02-.16-.05-.24-.07-.23-13.77-14.45-21.13-26.93-25.97-1.13-.44-2.22,.64-2.26,1.64-.43,13.03,12.84,23.02,25.46,26.6,.13,1.07,.25,2.14,.42,3.22,.2,1.35,2.45,1.24,2.74,0,.14-.62,.21-1.2,.3-1.81,0,.49-.06,.93,0,1.45,.18,1.85,3.2,1.89,3.05,0-.05-.68,.03-1.25,.09-1.84,.89-.43,1.2-1.56,.53-2.2,1.82-4.42,7.57-5.33,12.98-4.18,3.26,.69,5.66,2,7.68,3.7-1.79,.2-3.56,.74-5.1,1.44-3.34,1.53-6.57,4.56-7,8.22-.52,4.45,3.62,7.02,7.51,8.23-.08,1.48,.09,3,.32,4.32,.36,2.05,3.58,1.17,3.25-.86-.7-4.21,.54-8.13,5.67-6.71,.46,.13,1.25,.45,2.1,.86,0,0-.02,0-.03,.02-2.08,1.7-8.46,7.86-2.53,9.37,.9,.23,1.88,.22,2.88,.05-.02,1.48-.07,2.93,.26,4.41,.47,2.12,3.85,1.22,3.39-.9-.33-1.51,.05-3.24-.1-4.82,1.22-.73,2.26-1.66,2.87-2.7,1.02-1.73,.62-3.37-.47-4.79,.2,.02,.42,0,.66-.06,5.65-1.56,9.39,.96,9.03,6.64-.15,2.32-1.28,4.53-2.63,6.41-1.69,2.36-4.58,3.18-6.45,5.19-.46,.49-.35,1.46,.44,1.6,7.4,1.28,12.27-8.89,12.27-14.52s-4.1-8.87-9.09-8.87c1.32-1.3,2.38-2.68,3.22-4.09,4.91,.57,8.57,4.22,10.18,9.99,1,3.57,.76,7.45-.05,11.02-.12,.54-.34,1-.53,1.48-3.97,3.43-7.32,7.67-9.39,11.49-.93,.44-1.86,.93-2.82,1.55-.13,.09-.22,.2-.31,.3-2.78-1.99-6.23-3.09-10.07-3.68,.12-.12,.21-.3,.23-.52,.55-9.6-6.12-14.32-15.47-15.31-13.12-1.4-29.03,4.98-38.67-5.75,.12-.02,.24-.03,.36-.04,14.71-2.02,25.64-5.15,38.64,3.69,.91,.62,1.92-.55,1.44-1.37-4.16-7.09-11.97-8.58-19.86-8.43,.04-.18,.1-.35,.03-.53-4.52-11.85-12.45-12.87-21.48-10.63-.02-.03,0-.06-.04-.1-3.29-3.9-9.01-5.14-14.32-5.02-3.23-2.43-8.02-3.36-11.85-4.21-5.56-1.25-11.13-1.01-16.54,.64-1.02,.31-1.2,1.26-.88,1.97-1.42,.42-2.84,.96-4.21,1.64,.11-.29,.09-.6-.22-.85-4.9-3.93-13.58-3.55-19.67-1.86-17.55,.45-24.93,25.15-43.2,26.36,.49-.56,.99-1.09,1.46-1.66,3.39-4.15,6.62-8.39,10.33-12.31,5.71-6.02,12.29-8.09,19.9-11.05,.99-.39,.86-1.71-.25-1.79-6.2-.45-11.33,1.38-15.89,4.46,.33-.68-.1-1.57-1.09-1.69-8.38-1.07-17.24,5.16-23.22,10.12-3.22,2.67-6.12,5.86-8.53,9.36,.51-4.87,.52-9.91,.37-15.23-.04-1.27-1.59-1.87-2.56-1.02-5.82,5.19-13.83,15.64-15.9,25.41-2.33-8.53-5.84-17.03-12.69-22.41-.9-.71-2.3-.52-2.64,.67-3.31,11.44,.72,22.96,8.46,31.7-.13-.05-.26-.12-.39-.16-6.14-2.08-12.65-.84-17.71,2.27,5.5-5.71,7.42-15.03,7.54-22.23,.02-.84-.78-1.66-1.68-1.61-11.7,.66-15.35,15.29-13.22,24.37,.19,.8,.82,1.12,1.46,1.09-.63,1.05,.76,2.17,1.8,1.61,.11-.06,.2-.15,.31-.21-1.39,1.37-2.62,2.88-3.48,4.54-.13-9.86-2.92-20.18-3.26-29.78-.05-1.3-1.82-2.2-2.83-1.13-8.96,9.54-8.11,24.34,2.22,32.64h0c.11,.95,.25,1.89,.39,2.84-6.4-8.14-14.39-15.18-25.84-14.72-1.14,.05-2.05,1.07-1.72,2.17,.15,.5,.4,.93,.57,1.4-.67,.64-.93,1.69-.09,2.37,.59,.48,1.21,1,1.82,1.5,1.53,2.72,3.49,5.14,5.8,7.24-1.02-.38-2.05-.66-3.12-.78-3.29-.36-7.22,.81-9.6,3.21,3.23-15.23,.33-30.4-6.05-44.64-.22-.48-.91-.8-1.42-.78-.36,.02-.71,.02-1.07,.02-.72,0-1.38,.47-1.56,1.14-3.33,12.43-4.21,24.74,.58,35.95-2.5-2.38-5.18-4.61-7.77-6.8-4.52-3.82-9.46-7.1-15.2-8.92-1.31-.42-2.19,.85-2.02,1.93,1.58,10.41,13.04,16.14,22.38,19.32,.07,.02,.12,0,.19,.03-1.82,.09-3.64,.47-5.26,1.05-5.01,1.8-9.65,5.44-12,10.09-.61,1.2-.99,2.65-1.13,4.12-5.44-8.04-14.87-11.64-22.62-17.9-1.14-.93-2.86-.34-2.93,1.15-.57,12.35,11.73,19.24,22.19,23.76-4.97-.56-9.81,1.83-12.73,7.75-2.87,5.79-1.47,10.95,2.31,14.22-2.09,1.86-3.31,5.05-3.19,8.91,.19,5.86,3.72,10.88,8.63,13.23-9.58-3.36-22.1-3.7-30.82-.44-1.4,.52-1.85,2.3-.43,3.14,10.17,5.9,24.31,6.47,35.24,1.65,.19,0,.38,.04,.58,.03-10.47,9.65-17.05,23.57-16.55,37.46,.06,1.51,1.9,2.25,3.05,1.21,11.82-10.64,20.03-22.29,21.29-37.26,.4-.58,.81-1.15,1.21-1.74,1.45,4.05,4.6,7.44,8.77,9.44,1.52,.73,3.29,1.13,5.09,1.22-9.28,6.17-15.3,15.67-18.15,26.66-.23,.89,.29,1.9,1.25,2.11,12.77,2.84,21.55-8.45,26.3-19.69v.02c.03,1.47,.25,2.97,.58,4.46-.47,0-.92,.18-1.14,.67-4.57,9.65-6.67,19.57-5.82,30.17,.15,1.83,3.01,2.42,3.5,.45,1.04-4.13,2.65-8.48,3.98-12.88,1.31,3.13,3.49,5.94,6.2,8.32-.43,.29-.7,.79-.56,1.42,1.03,4.66,2.65,8.97,4.59,13.17-.08,.11-.16,.22-.2,.36-3.57,11.2-2.2,22.26,1.46,32.94-.47-.07-1.02,.09-1.23,.64-3.79,9.09-3.12,16.77,.46,25.42-.28,.09-.52,.27-.66,.58-4,8.84-3.8,16.68,.39,25.3-3.5,9.14-3.06,17.36,1.36,26.37,0,.02,.02,.04,.03,.06-.73,9.77-4.02,21.84,.03,31.09-11.87,.92-23.76,1.82-35.26-.05-1.62-.26-2.33,1.95-.69,2.41,27.76,7.66,56.53-3.46,84.86,4.07,1.39,.38,2.39-1.69,1.01-2.29-10.61-4.59-21.83-5.46-33.24-5.14,.09-1.31,.09-2.62-.05-3.9,2.37-6.23,2.41-13.46,.72-20.15,.42-2.04,.37-4.06,0-6.04,1.12-4.47,1.33-9.15,.75-13.72,.23-.18,.42-.42,.44-.76,.23-3.43-.24-6.65-1.07-9.76,2.67-6.97,1.52-14.88-.31-22.31,.13-.19,.2-.43,.14-.7-1.34-6.15-3.62-11.72-6.12-17.06,.34,0,.67-.12,.82-.46,4.1-9.31,3.12-17.94,.14-26.33,3.76-8.31,2.47-18.85,.22-27.36-.06-.23-.16-.4-.29-.54,5.56,.32,11.17-1.09,15.85-4.81,.04,.56,.05,1.13,.08,1.7-6.51,7.72-10.03,17.3-9.13,27.35,.12,1.42,1.82,2.26,2.98,1.18,4.53-4.21,6.94-9.31,8.06-14.77,1.72,6.9,5.33,13.13,12.1,17.06,.87,.5,1.83,.13,2.38-.6,5.14-6.83,4.5-14.49,1-21.28,3.61,1.74,7.73,2.45,11.77,1.75,.95-.16,1.48-1.26,1.23-2.09-1.81-5.97-7.42-11.19-13.84-12.54,8.78-2.46,13.8-11.15,11.19-19.82-.4-1.32-2.32-1-2.41,.31-.55,8.03-2.12,15.71-11.93,16.93-1.3,.16-2.59,.13-3.83-.02-.25-.82-1.23-.84-1.79-.33-.85-.2-1.68-.45-2.48-.76h0c.72-1.13-.9-2.25-1.85-1.37-.12,.11-.24,.2-.36,.31-2.16-1.21-4.08-2.83-5.68-4.7,5.21-1.53,8.28-6.19,8.89-11.01,6.2-1.66,10.59-6.18,8.75-13.3-.28-1.09-.74-2.03-1.31-2.89-.13-1.61-.52-3.07-1.12-4.35,1.14-1.04,1.93-2.4,2.49-3.9,3.61,2.14,6.56,5.38,8.77,8.78,1.31,2.02,2.27,4.2,2.25,6.6,0,1.42-.84,2.34-1.89,3.08-.47-1.72-1.13-3.41-1.8-4.88-.62-1.37-3.01-.39-2.51,1.02,.71,2,1.11,3.84,1.29,5.68-.22,.15-.44,.29-.63,.45-.52,.43-.25,1.35,.41,1.48,.12,.03,.22,0,.33,.03,0,1.93-.23,3.89-.82,6.03-.16,.57,.56,1.22,1.13,.83,2.55-1.82,3.32-4.38,3.2-7.08,5.86-.78,8.42-6.58,7.63-11.91-.97-6.43-6.69-12.56-12.69-15.21-1.46-.65-2.75,1.37-1.28,2.09,4.7,2.31,8.07,6.47,10.02,11.12,.92,2.19,1.05,3.94,.68,5.47-.07-.93-.21-1.82-.5-2.66-1.99-5.61-7.27-10.79-12.96-13.35,.2-1.36,.27-2.78,.06-4.24-.68-4.64-3.57-9.52-7.45-13.18,.63,.33,1.18,.72,1.87,1,4.46,1.77,9.38,.88,13.04-2.01,.99-.79,1.9-1.85,2.72-3.09,.33,12.9,3.83,27.98,15.63,33.55,1.24,.59,2.54-.14,2.65-1.45,1.05-13.42,1.9-29.14-8-39.67,2.02,.38,4.27,.32,6.72-.34,3.96-1.08,7.5-3.84,9.13-7.48,1.61-3.6,1.17-9.02-1.95-11.85,3.05-2.44,4.65-6.29,5.01-10.28,1.73,1.37,3.06,3.11,3.14,5.41,.1,3.06-3.82,4.95-5.9,6.64-.85,.7,.08,1.79,1,1.63,4.27-.75,7.87-4.01,8.08-8.27,.19-3.58-3.15-6.24-6.25-7.92-.06-1.29-.22-2.58-.54-3.82-1.75-6.79-7-12.35-13.54-15.02,7.47-3.17,14.35-7.37,20.58-12.52,1.1-.91,.23-2.8-1.18-2.74-1.25,.06-2.5,.25-3.73,.43,1.65-1.39,3.22-2.92,4.74-4.53,.02,0,.04,.02,.06,.02,1.03,.12,2.02,.17,3,.17-.08,.22-.13,.47-.04,.77,13.06,46.35,33.9,91.75,65.2,129.5,22.67,27.33,60.43,56.54,99.14,57.75,1.07,6,6.1,11.06,12.14,12.85-22.01,27.58-44.68,57.51-52.25,91.82-.33,1.46,1.8,2.02,2.33,.61,12.02-31.91,29.17-58.05,48.72-85.13-7.02,17.61-13.69,36.21-17.25,54.01-.33,1.63,2.17,2.33,2.62,.69,5.95-21.44,19.07-43.22,22.35-65.31,.33-.45,.66-.9,.99-1.35,.21-.28,.26-.55,.25-.81,1.01-.31,1.95-.75,2.75-1.41-1.74,4.44-2.46,8.93,.16,13.43,.8,1.37,1.72,2.6,2.66,3.76,3.22,8.77-2.43,17.44,1.46,25.88-5.94,9.26-13.76,19.76-4.9,29.35-1.95,3.25-2.81,6.65,1.84,8.47,.43,.17,.82,.29,1.2,.42-2.54,7.48-5.62,22.3,1.04,28.62-23.07-2.46-45.82-7.76-69.3-6.49-32.56,1.76-64.58,17.58-96.84,4.48-1.75-.72-3.31,1.7-1.52,2.5,26.04,11.48,56.08,3.62,82.9-1.27,38.98-7.12,76.08,10.69,114.49,4.41,1.6-.26,1.23-2.83-.38-2.72-8.34,.57-16.58,.29-24.77-.45-2.68-4.49-4.65-7.84-4.93-13.28-.26-5,.8-10.13,2.2-14.95,2.78,.74,4.96,1.38,7.52,4.82,5.38,7.22,.52,13.9-2.32,20.89-.42,1.02,1.16,1.85,1.9,1.06,6.37-6.88,8.51-15.56,3.42-23.63-1.61-2.56-3.85-5.02-6.92-5.94-4.61-1.38-8.24-1.36-7.11-5.25,2.6,.99,6.08,.73,8.47,.66,2.49-.09,4.97-.25,7.46,.11,4.52,.66,4.05,4.89,3.6,8.43-.31-1.02-.65-2-1.02-2.92-.61-1.5-3.1-.93-2.58,.68,1.32,4.06,1.93,8.1,1.72,12.36-.21,4.52-2.53,8.15-3.57,12.44-.24,.99,.98,1.67,1.76,.98,5.44-4.81,5.99-12.91,4.58-19.99,.39,0,.77-.11,.98-.49,3.37-6.26,2.46-14.42-6.19-15.05-4.34-.32-9.59,.94-13.76-.54,.23-1.07-1.19-1.77-2.05-.99-7.28-4.82,.7-16.98,5.32-24.22,.66,.45,1.36,.85,1.99,1.19,8.66,4.87,6.24,12.51,4.06,20.44-.36,1.3,1.49,2.01,2.23,.9,3.5-5.27,6.04-14.44,1.61-20.01,.08-.05,.17-.05,.25-.14,2.27-2.53,2.8-5.97,2.55-9.34,.89-2.45,.83-4.88,.08-7.24,6.54-7.12,9.41-17.23,2.77-25.21-.9-1.08-3.26-2.3-4.46-2.98-8.68-4.9-7.92-11.8-6.5-19.66,.78-4.32,.6-7.84-.57-11.23,7.58,7.31,7,15.67,9.57,25.42,.32,1.2,2.15,.9,2.2-.29,.3-7.38-.08-12.44-1.62-16.7,.31,.37,.63,.74,.94,1.11,2.56,13.35,8.03,27.45,19.87,35.38,.8,.54,2.03,.15,2.48-.62,8.03-13.71-4.2-30.49-17.39-38.46,1.49-.97,2.91-2.37,4.02-3.27,2.66-2.15,5.29-4.36,7.75-6.71,1.07-1.02,.31-2.93-1.24-2.89-3.83,.11-8.14,.92-11.8,2.14,2.12-6.23,2.27-12.51,.8-18.91,4.5,6.96,11.5,12.35,20.07,14.02,1.41,.27,2.44-.79,2.2-2.11-1.97-10.67-9.77-22.39-20.83-26.44h.05ZM300.14,29.72c-.37-.51-.72-1.01-1.09-1.5-1.05-1.43-3.48-.13-2.48,1.38,1.2,1.8,2.43,3.59,3.64,5.4-8.47-3.9-16.33-10.17-17.45-18.75,5.53,2.15,11.02,4.51,15.48,8.37,1.92,1.66,3.18,3.49,4.05,5.44-.56-.79-1.49-.78-2.15-.33h0Zm10.13-1.01c-2.95-7.54-3.48-16.24,.52-23.33,1.23,7.85,.25,15.54-.52,23.33Zm26.58,21.09c-2.55-.56-5.2-.07-7.1,1.68-.68,.63-1.14,1.36-1.46,2.17-2.22-1.01-5.07-2.68-4.66-5.19s2.86-4.33,5.04-5.45c2.09-1.08,4.81-1.6,7.09-.76,1.2,1.54,2.33,3.23,3.52,4.99,.14,1.14,.16,2.35,.33,3.46-1.01-.43-1.97-.75-2.75-.92h0Zm13.02-5.64c-.63,.09-1.25,.22-1.88,.38,.12-.32,.11-.7-.16-1.1-5.78-8.51-5.71-20.82-1.72-30.42,1.2,4.52,2.89,8.91,4.32,13.36,2.2,6.84,1.78,12.28-.55,17.76h0Zm-249.84,13.98c.24,4.53,.76,9.03,1.32,13.55,.34,2.74,.55,5.52,.77,8.28-5.11-6.29-6.03-14.86-2.09-21.83Zm-59.5,12.2c6.65,3.14,11.5,8.46,16.87,13.11-6.68-2.82-13.93-6.69-16.87-13.11Zm-21.83,19.01c3.78,2.59,7.89,4.89,11.55,7.58-.37,.37-.56,.9-.36,1.5,.62,1.87,1.52,3.78,2.68,5.55-6.43-3.43-12.48-8-13.87-14.63ZM6.63,155.28c5.48-1.18,10.88-.83,16.65,.23,1.92,.35,3.84,.91,5.77,1.42-7.4,1.65-15.55,1.13-22.42-1.64h0Zm97.76,80.44c.1-1.73,.34-3.43,.67-5.12,.47-.07,.92-.29,1.21-.72,1.15-1.63,2.1-3.34,2.9-5.09-.83,3.93-2.31,7.67-4.78,10.92Zm31.81-15.26c-3.91,.08-7.66-1.51-10.74-3.84-1.73-1.31-2.94-2.79-3.83-4.42,6.25-.38,12.01,2.8,14.58,8.26Zm-21.48-7.87c.11-.19,.17-.37,.2-.56,8.23,7.21,15.65,17.63,9.51,27.76-8.01-5.58-10.51-15.49-11.04-24.92,.44-.76,.87-1.52,1.33-2.29h0Zm11.07-167.44c3.22,3.31,5.53,7.44,7.25,11.9-1.01-.45-2.43,0-2.34,1.31,0,.14,.06,.27,.07,.41h0s.02,.06,.03,.08c.34,3.3,1.53,6.23,3.3,8.95,.81,2.01,1.72,3.97,2.7,5.9-7.61-7.54-12.92-18.1-10.99-28.56h0Zm-16.36,29.88c-1.3-6.43,.71-17.86,8.35-19.83-.27,4.13-1.12,8.11-2.84,11.97-1.34,3.01-3.48,5.36-5.52,7.87Zm21.99,1.63c4.92,2.05,8.89,6.04,11.57,10.41,2.63,4.28,2.27,7.47,.44,10.58-2.83-.83-5.86-1.08-8.56-.71-.35,.05-.69,.16-1.04,.22-.18-3.95-1.33-8.62-4.74-11.08-2.29-1.65-5.35-1.69-7.76-.25-2.42,1.44-3.74,4.23-3.25,6.91,.74,4.02,4.9,6.26,8.54,7.6,.14,.05,.27,.05,.4,.06-.33,.33-.57,.76-.85,1.13-.1-.25-.27-.48-.56-.66-4.67-2.81-10.09-4.58-15.46-3.97-7.85-12.51,7.84-25.84,21.27-20.23h0Zm6.3,29.73c-1.83,.46-3.49,1.89-4.71,3.62-.17,.1-.34,.2-.52,.29-.54-.78-1.36-1.48-1.74-2.58-.34-.99-1.5-1.3-2.35-1-.31-2.38,.64-4.54,3.97-5.81,2.75-1.04,6.02-1.14,9.04-.44-.48,.58-.98,1.15-1.51,1.74-.81,.89-.06,2.38,1.23,2.03,1.69-.46,3.05-1.26,4.11-2.31,.72,.41,1.4,.84,2.01,1.36,2.24,1.93,2.76,4.71,2.3,7.46-.47,2.76-2.52,4.13-4.98,4.76,0-.09,.08-.15,.07-.25-.33-3.76-1.42-10.26-6.94-8.87h0Zm-10.32-8.72c-2.51-1.02-5.42-2.6-6.2-5.3-.45-1.53,.37-3.18,1.68-4.07,1.45-.99,3.27-.98,4.64,.13,2.76,2.23,2.95,6.39,3.25,9.54,0,.02,.02,.04,.02,.06-.89,.36-1.71,.82-2.48,1.35,.14-.65-.11-1.41-.91-1.73v.02Zm-22.47,.64c-3.74,1.66-6.79,4.53-8.59,8.04,.06-3.73-1.13-7.68-3.71-11.43-.49-.71-1.05-1.39-1.64-2.06,4.35,2.42,9.16,4.2,13.95,5.45Zm-50.03,24.25c1.07,8.67,12.3,16.99,20.27,9.06,7.63-7.59-5.17-16.35-12.87-15.96-.89,.04-1.74,.71-1.69,1.63,.1,1.95,.26,4.02,2.08,5.18,1.32,.83,2.62-.99,1.62-2.02-.24-.25-.31-.86-.34-1.49,3.91,.36,7.45,2.6,9.54,5.82,2.64,4.07-3.45,6.28-6.57,6.5-3.34,.23-5.76-2.32-7.27-4.8-2.84-4.69-1.72-10.32,1.66-14.32,1.25-1.47,2.78-2.34,4.42-2.83,.36,.06,.71,.16,1.07,.24,.28,.47,.91,.61,1.34,.29,3.16,.81,6.18,2.11,8.73,3.57,2.45,1.41,4.71,3.34,6.38,5.61,.06,.19,.09,.4,.14,.59-.36,.55-.15,1.33,.34,1.76,.48,3.75-.59,7.64-3.62,10.42-4.33,3.99-11.71,3.56-17.07,2.41-5.3-1.13-10.87-3.76-14.24-7.96-4.49-5.62-.24-11.18,4.77-14.71,1.93-1.36,4.1-2.06,6.36-2.35-3.66,3.17-5.7,8.05-5.06,13.37h0Zm29.27,10.44c4.29-3.17,5.39-8.18,3.43-12.8,3.27-1.84,5.56-4.3,7-7.08,.02,1.04,.18,2.05,.47,3.04-.27,.03-.54,0-.8,.1-2,.74-1.27,2.82-1.02,4.29,.08,.42,.68,.76,1.09,.6,.72-.28,1.43-.68,1.66-1.44,.03-.12,.02-.2,.02-.3,.02,.05,0,.06,.04,.12,.38,.86,.6,1.76,.82,2.66,1.12,4.4,.47,9.25-.63,13.58-.37,1.43-.89,2.86-1.48,4.25-3.48,1.73-6.45,4.42-8.66,7.66-2.69-.46-5.22-2.93-6.9-4.94-.18-.22-.41-.32-.64-.38-.02-.22,0-.42-.03-.65,2.72-2.44,4.82-5.5,5.62-8.69h0Zm-3.84-55.35c-.19-.39-.33-.81-.5-1.2,7.54,.6,13.26,4.92,17.97,10.33-5.82-3.05-11.9-5.67-17.47-9.12h0Zm-10.56,17.17c.15,0,.31-.02,.47-.12,3.34-2.05,5-5.02,9.44-4.89,4.21,.12,7.88,3.57,10.15,6.63,5.65,7.6,4.09,16.39-3.45,21.27-2.12-6.16-7.86-11.22-14.78-12.03-.71-.08-1.37-.04-2.05-.02,.84-3.58,1.22-7.41,.24-10.85h0Zm-6.6-45.57c.58-2.5-.09,.5,.92,3.12,1.51,3.92,2.52,7.99,3.42,12.07,1.66,7.44,1.57,14.96,.32,22.4-7.53-11.51-7.76-24.17-4.66-37.58Zm-21.59,59.41c.07-.02,.14-.05,.21-.08,.7,1.07,1.65,1.95,2.97,2.51,1.07,.45,2.07-.46,1.56-1.5-1.76-3.63-3.58-5.96-1.53-10,1.83-3.61,5.44-6.29,9.15-7.98,3.28-1.49,7.77-2.19,10.69,.32,3.58,3.08,3.21,9.23,2.52,13.99-.52,.09-1.05,.15-1.54,.28-2.09-.25-4.19-.31-6.27-.08-4.78,.53-10.12,3.6-13.21,7.76-1.73-1.58-3.61-2.74-5.54-3.48,.71-.32,1.16-1.08,.99-1.73h0Zm-17.65,82.56c.72-10.38,5.4-20.59,12.7-28.37-3.44,6.1-6.77,12.27-9.77,18.59-.92,1.93,1.93,3.62,3.02,1.69,3.31-5.87,6.59-11.41,10.12-16.87-2.72,9.5-8.45,17.51-16.06,24.97h0Zm21.6,2.83c2.13-7.12,5.69-13.46,10.77-18.55-.71,1.36,1.45,3.07,3.04,1.88,2.89-2.16,5.64-4.46,8.41-6.74-3.27,10.47-10.69,24.42-22.22,23.4h0Zm24.57-30.55c.23-.42,.49-.8,.65-1.27,.28-.85-.77-1.56-1.53-1.13-2.18,1.24-3.83,2.96-6.31,3.72-2.53,.79-5.25,.09-7.54-.99-4.71-2.21-7.62-7.1-7.48-12.04,.05-1.84-2.84-1.8-2.97,0-.06,.93-.02,1.82,.08,2.71-.03,.02-.06,.04-.09,.06-.05-.22-.14-.42-.27-.61,0-.39,.04-.75,.02-1.14-.05-1.12-1.19-1.53-2.02-1.24-7.4,.27-13.07-.99-15.25-8.75-1.15-4.08-.17-8.13,2.47-9.31,1.65,.79,3.57,1.23,5.61,1.44,.28,2.46,1.54,4.69,4.28,5.69,.8,.3,1.66-.6,1.39-1.33-.54-1.5-1.68-2.6-2.29-4.06-.72-1.72-.4-3.44,.36-5.1,.74-1.63-1.68-3.09-2.55-1.42-.36,.68-.63,1.43-.84,2.21-2.07-1.06-4-1.36-5.68-1.08-8.77-6.39,1.95-25.09,14.44-13.34-.46,1.02-.82,2.06-.95,3.15-.77,6.29,4.15,11.07,9.34,14.11,7.1,4.16,17.77,5.78,25.35,2.59-2.44,3.08-5.01,5.76-9.77,6.98-7.63,1.95-14.18-3.76-17.72-9.51-.93-1.49-3.31-.16-2.42,1.35,4.07,6.98,10.51,12.19,19.25,11.53,2.93-.22,5.89-1.41,8.52-3.18,.04,6.96-5.5,10.42-13.18,10.05-3.27-.16-6.54-1.16-9.3-2.83-2.79-1.68-2.55-3.39-2.82-6.09-.1-1.08-1.3-1.6-2.18-.87-2.78,2.35-.73,6.35,1.39,8.36,3.12,2.95,7.89,4.09,12.1,4.55,8.82,.97,15.31-3.36,16.38-10.48,1.68,1.88,3.65,3.52,5.93,4.24-1.77,3.51-2.74,7.43-2.6,11.31-3.79,.79-7.28,2.86-9.67,5.95,.1-.43,.21-.87,.3-1.28,.23-1.11-.48-1.81-1.35-1.97-.13-.51-.51-.91-1.05-1h-.04Zm25.62,1.78c3.3-1.99,7.49-3.05,10.91-3.27,5.17-.32,9.27,1.27,11.92,4.22-.69,.44-1.46,.84-2.32,1.2-3.96-1.14-8.45-1.22-11.93-.74-2.14,.3-4.03,1.01-5.71,1.95-.84-1.3-1.79-2.44-2.86-3.39h0Zm2.49,11.91c-1.11,.86-1.97,2.01-2.4,3.65-.18,.69-.22,1.37-.19,2.07-.86-.55-1.65-1.14-2.33-1.83,.09-.41,.18-.83,.28-1.19,.73-2.44,1.96-4.36,3.5-5.96,.14,.83,.36,1.7,.76,2.71,.09,.23,.22,.41,.37,.56h0Zm-2.08-6.83c-2.31,1.96-4.02,4.52-5.13,7.33-.39-.94-.69-1.92-.79-3.03-.28-3.03,.92-5.48,2.9-7.38,1.11,.82,2.12,1.84,3.03,3.08h0Zm-8.03,.78c-1.47-1.97-2.35-4.15-2.82-6.39,1.97-.03,3.95,.43,5.81,1.31-1.39,1.51-2.44,3.22-2.99,5.08h0Zm-1.36,3.03c.26,.29,.55,.41,.84,.44,0,1.65,.27,3.37,.93,5.07,.33,.86,.81,1.61,1.32,2.33-.75,4.43-.1,9,1.95,12.45-4.21,2.24-7.57,2.81-11.86-.98-2.56-2.26-4.32-5.29-5.56-8.46,.75-1.31,1.65-2.59,2.76-3.79,1.18-1.3-.76-3.21-1.99-1.91-.7,.74-1.32,1.47-1.9,2.21-.12-.47-.29-.94-.38-1.39-1.7-7.91,3.3-13.51,9.44-14.97,.65,3.21,2.07,6.3,4.46,9.01h0Zm-7.7,36.62c3.93,2.7,8.65,4.44,13.47,4.99-.48,.26-.84,.75-.72,1.41,.8,4.8,1.2,9.58,1.19,14.43,0,2.63-.35,5.21-.58,7.8-4.11-9.55-10.13-18.88-13.37-28.63h0Zm3.11,16.04c1.49,2.95,3.06,5.87,4.69,8.84,6.16,11.23,6.8,20.58,5.32,32.76-6.28-13.1-13.2-25.2-10.01-41.6Zm2.36,139.03c.09-4.89-.73-9.76-.49-14.7,.18-3.77,.55-7.52,.78-11.28,1.65,2.65,3.43,5.25,5.06,7.89,3.44,5.61,4.7,11.25,5.91,17.37-3.74,.17-7.5,.43-11.26,.72h0Zm11.87-12.83c-1.32-3.14-3.05-6.18-4.86-9.09-6.84-11.01-11.44-19.63-8.93-31.78,2.37,3.9,5.25,7.58,7.78,11.36,1.53,2.28,2.65,4.58,3.57,6.92-.75,.18-1.36,.99-.94,1.87,3.38,7.07,3.46,13.74,3.38,20.73h0Zm.52-25.11c-1.43-2.86-3.23-5.6-4.94-8.13-7.55-11.23-14.29-20.49-9.71-34,4.23,8.99,9.23,16.77,12.92,25.61,0,.09-.05,.14-.03,.24,1.7,5.58,1.96,10.88,1.74,16.29h0Zm-.83-42.05c.52,3.79,.99,7.61,1.34,11.41,.25,2.58,.16,5.15,.08,7.72-6.59-15.19-20.95-27.9-15.21-46.61,3.5,9.55,8.72,18.75,13.79,27.49Zm14.6-79.63c-8.38,6.55-17.8,9.05-28.26,3.47-8.34-4.46-11.83-12.53-9.85-20.21,1.67,2.95,3.85,5.62,6.42,7.62,4.47,3.47,10.83,3.65,14.74-.16,2.44,2.41,5.95,3.72,10.56,3.17,1.7,2.41,3.89,4.49,6.38,6.11h0Zm-5.39-9.74c-.13-.21-.28-.41-.4-.62-.76-1.36-2.69-.4-2.47,.92-1.12-.03-2.28-.15-3.57-.5-1.52-.41-2.67-1.18-3.56-2.15-.11-.26-.28-.45-.52-.6-1.73-2.31-2.2-5.59-2-8.67,1.25,.89,2.68,1.58,4.19,2.16,.88,1.46,2.1,2.75,3.47,3.65,3.78,2.49,7.66,1.29,10.58-1.47h.32c.34,0,.66-.07,.99-.09-.76,3.38-3.11,6.42-7.02,7.38h0Zm-2.61-17.72c4.66-1.11,7.66,.83,9.04,3.77-.69,1.34-1.7,2.69-2.91,3.75-3.08,0-6.28-.47-9.16-1.46-1.1-2.49-.13-5.32,3.02-6.06h0Zm4.22-3.23c-1.98-.25-4.01-.2-5.81,.28,0-.02,0-.03,0-.04-1.96-4.94,1.08-6.43,5.68-4.55,3.21,1.3,5.35,3.76,5.76,6.64-1.46-1.17-3.32-2.02-5.64-2.32h0Zm9.49,9.62c-.14-1.24-.47-2.43-.97-3.54,.83-3.23,.56-6.55-1.38-8.93-1.11-1.36-2.63-2.48-4.29-3.35,3.24,.13,6.47,.98,9.15,2.6,1.51,.94,2.46,2.06,3,3.26,0,.34,.07,.65,.06,.99,0,.29,.16,.48,.37,.61,.47,3.42-2.09,7.01-5.94,8.36h0Zm5.13-30.36c1.8,4.29,1.31,7.53-1.03,9.94-5.77-6.1-17.81-6.36-26.08-1.4-.24,.14-.42,.32-.65,.47-2.69-1.67-5.77-2.39-8.84-2.31-.06-3.68,1.01-7.4,2.92-10.63,.74-.08,1.48-.23,2.26-.54,3.47-1.34,5.75-4.53,7.34-7.91,3.22-1.28,6.88-1.64,10.77-.65,6.21,1.59,11,7.6,13.29,13.03h.02Zm-20.1-18.8c.55-.39,1.09-.79,1.63-1.18,1.51-.61,2.57-1.69,3.68-2.8,1.02-.82,2-1.67,2.95-2.58-.22,4.06,1.05,8.01,3.84,11.12-1.06-.59-2.12-1.12-3.22-1.48-3.99-1.35-7.82-1.44-11.29-.62,.09-.27,.19-.56,.28-.83,.17-.53,.27-1.09,.41-1.63,.49,.33,1.1,.42,1.7-.02v.02Zm-1.09-13.41c1.47,.81,3.16,1.24,4.86,1.47-1.88,1.2-3.36,2.82-4.43,4.76,.06-2.1-.04-4.2-.43-6.23Zm36.51,2.36c-1.35,2.53-1.12,5.63-1.79,8.38-.59,2.4-1.61,4.7-3.31,6.58-2.57,2.85-6.44,3.32-10.02,2.23-8.44-2.56-10.59-11.32-7.72-18.33,1.36-.25,2.69-.61,3.88-1.11,2.26,2.3,5.25,4.37,8.12,4.65,.72,.07,1.24-.86,.85-1.4-1.52-2.1-3.99-3.52-6.09-5.23,.28-.71-.29-1.51-1.12-1.57-.17,0-.36,.02-.53,.02-2.73-2.98-3.91-6.95-2.81-10.8,.32-1.14-1.38-1.52-1.81-.48-1.69,4.16-1.53,7.9,.89,11.67-.54-.56-1.6-.72-2.21,.11-.14,.19-.22,.41-.35,.6-1.15,.29-2.31,.56-3.44,.64-2.56,.2-5.22-.05-7.51-1.22-3.6-1.83-4.34-5.89-3.46-9.4,1.05-4.17,4.3-7.53,8.3-9.3,.94-.42,1.91-.67,2.89-.86,.42,.16,.89,.05,1.25-.2,4.6-.45,9.46,1.2,13.37,3.3,.34,.18,.66,.2,.96,.15-1.46,4.09,1.04,8.5,3.57,11.7,.57,.71,1.7,.92,2.48,.56,.28,1.98,2.55,2.94,5.1,3.37-.03,2.01,.25,3.91,.86,5.61-.15,.07-.27,.19-.35,.33v.02Zm-.96-12.76c.65-1,1.65-2.09,2.82-2.56,.25-.1,.47-.1,.68-.04,.53,2.76-.18,4.35,1.83,6.33-.99,0-1.95-.04-2.84-.16-3.58-.46-4.51-.46-2.49-3.58h0Zm15.09,57.13c-10.43-7.13-12.29-24.55-12.04-36.38,.33-1.56,.49-3.12,.38-4.56,.43,.53,.98,.93,1.47,1.37-.24,.27-.35,.63-.18,1.11,.98,2.72,1.67,5.51,2.28,8.31,.66,3.04,.81,6.35,2.47,9.06,.39,.63,1.51,.56,1.68-.21,.71-3.29,0-7.14-1.14-10.79,6.31,9.09,5.89,21.24,5.08,32.09h0Zm9.26-75.46c1.73,3.26,2.26,7.08,1.51,10.63-1,4.75-5.09,6.33-8.78,8.77-.89,.58-.68,2.23,.61,2.13,1.63-.14,3.02-.6,4.29-1.2,.85,3.23,2.59,5.84,1.04,9.31-1.22,2.73-3.97,4.54-6.83,5.48-7.67,2.49-12.5-2.92-12.94-9.68,1.63,.07,3.14,.02,4.03-.06,6.1-.54,9.95-4.59,10.12-10.39,.14-4.47-2.48-7.71-6.1-9.7,1.4-2.99,1.49-6.69,.56-9.87-.6-2.02-1.65-4.01-2.98-5.87,.24,.04,.51,.03,.8-.05,.54-.15,1.03-.36,1.53-.53,5.74,1.62,10.31,5.7,13.15,11.02h0Zm-15.3-18.34c-1.03,1.24,.09,2.88,1.29,2.89-.12,.2-.27,.36-.38,.56-.13,.23-.19,.46-.2,.68-1.23-.17-2.48-.25-3.75-.19-.17,0-.3,.05-.44,.1-.42-.4-.87-.76-1.29-1.13,.26-.37,.37-.8,.2-1.22,.26-.11,.48-.29,.67-.49,.27,.36,.49,.73,.8,1.07,1.38,1.49,3.54-.67,2.26-2.17-7.25-8.5,2.53-24.73,10.03-32.87-.27,12.01-.84,22.62-9.19,32.79h0Zm12.79-1.24c-.26-.17-.57-.32-.98-.32-.65,0-1.33-.03-2.01-.07,2.98-2.07,6.46-3.46,10.1-4.18-2.31,1.62-4.66,3.18-7.11,4.56h0Zm-5.52-3.83c.25-.48,.55-.96,.77-1.42,.5-.11,.94-.43,1.12-1.06,2.12-7.55,6.41-13.69,12.11-19.23,6.64-6.47,13.97-8.53,22.47-11.44-12.73,9.28-21.16,28.01-36.46,33.15h0Zm244.58,98.43c-.43,5.03-2.69,9.56-5.76,13.76-1.26,1.72-2.75,3.04-4.32,4.21,2.12-2.29,3.98-4.91,3.89-7.56-.05-1.33-1.56-1.79-2.56-1.02-.44,.34-.81,.72-1.2,1.08,2.45-4.33,5.73-8.16,9.97-10.47h0Zm-2.52-34.02c1.19-1.43,.97,3.58,1.13,5.03,.51,4.22-.34,8.53-1.29,12.62-.85,3.68-2.25,7.17-3.8,10.6,.6-3.93-.12-8.49-.8-11.65-.4-1.89-3.31-1.07-2.99,.79,.47,2.76,.6,5.51,.46,8.29-.12,2.53-1.25,5.01-1.11,7.51-.29-.54-.56-1.09-.78-1.64,2.73-4.39,1.89-8.57-.72-11.98,1.45-7.26,5.65-14.51,9.88-19.58h0Zm-11.04,43.22c-1.97,3.41-3.34,7.05-3.99,10.56-3.29-3.73-6.93-7.27-9.51-11.06-.21-.34-.41-.68-.62-1.01-.04-.06-.1-.09-.14-.15-2.64-4.35-3.69-9.1-1.04-14.91,.56,.47,1.12,.93,1.73,1.37,3.72,2.69,7.75,5.02,11.07,8.17,2.44,2.32,2.88,4.65,2.48,7.01h0Zm-2.3-22.56c-.59,4.2-.26,8.42,1.42,12.25-7.12-6.72-19.22-10.2-17.81-20.95,.71,.38,1.41,.77,2.16,1.12,3.83,1.79,7.83,3.21,11.48,5.34,1.2,.71,2.07,1.45,2.75,2.24h0Zm-3.86-6.82c-3.92-1.96-8.42-3.5-12.09-5.67-.22-.33-.59-.54-1.01-.63-3.56-2.36-6.1-5.48-6.11-10.5,4.01,1.58,8.12,2.93,11.96,4.92,5.46,2.85,6.4,6.76,7.24,11.89h0Zm-30.59-34.9c5.86,2.19,12.12,3.3,18.04,5.35,8.8,3.05,8.97,9.99,10.84,17.52-2.07-1.81-4.54-3.29-7.01-4.39-9.87-4.4-22.32-6.36-22.35-18.67,.16,.06,.32,.13,.49,.19h0Zm19.4-42.61c3.09-2.32,6.49-4.09,9.97-4.94,2.93-.72,6.47-.04,3.49,3.04-2.35,2.42-5.29,4.28-8.2,6-.8,.47-1.63,.88-2.46,1.31,1.95-1.52,3.87-3.12,5.7-4.82,1.35-1.27-.46-3.65-2.06-2.57-2.5,1.69-4.8,3.6-7.29,5.32-.45,.31-.62,.72-.64,1.11-.62,.45-1.2,.93-1.83,1.35,1.5-1.58,2.59-3.58,3.31-5.8h0Zm-12.4,15.25c3.19-1.12,6.39-2.28,9.53-3.57,9.67,2.08,17.25,13.73,21.34,22.59-11.2-.38-21.92-6.45-29.04-14.62,0-.08,.05-.16,.02-.24-.09-.3-.24-.52-.35-.8,1.43,1.67,2.97,3.2,4.91,4.39,1.99,1.22,5.13,2.61,7.42,1.6,.61-.27,.58-1.06,.2-1.47-1.39-1.54-4.15-1.79-6-2.77-2.15-1.13-3.82-2.85-5.33-4.66-.68-.82-1.87-.36-2.33,.41-.19-.31-.42-.55-.62-.84,.09-.02,.17,0,.26-.04h0Zm-2.78,2.81c.02,.11,.03,.22,.08,.33,1.03,2.33,2.54,4.49,4.39,6.48-13.78-4.67-33.98-4.75-33.84-14.7,10.78,.85,21.33,.54,29.37,7.9Zm-47.22-21.7c14.57,.21,28.61-4.86,34.98,11.43,.03,.06,.08,.08,.12,.13-5.41-.7-11.4-.59-17.02-.93-.47-.95-1.99-1.17-2.67-.2-.58-.05-1.13-.13-1.7-.2v-.03c-.06-1.41-2-1.48-2.39-.34-6.32-1.13-11.52-3.67-13.76-9.98,.82,.05,1.63,.1,2.47,.11h-.02Zm-19.24-24.03c9.37-2.72,14.33,1.68,19.66,8.11-14.25,.86-27.43,6.24-41.13,.02,1.49-.47,2.99-.98,4.47-1.55,5.67-2.21,11.11-4.87,16.99-6.58Zm-12.73-5.08c1.16,.07,2.34,.15,3.5,.37,2.4,.45,4.4,1.57,6.49,2.6-12.16,3.9-25.67,11.75-35.29,6.55,7.78-4.1,13.76-8.54,24.08-8.52,.75,0,1.13-.46,1.21-1h0Zm-23.16-3.19c.88-.26,1.03-1.06,.72-1.66,3.59-.19,7.16,.17,10.83,1.03,1.57,.37,3.07,.96,4.54,1.54-4.51,.27-8.87,2.13-12.9,4.3-9.41,5.08-16.46,10.92-27.34,8.14,7.7-4.98,14.58-10.54,24.15-13.34h0Zm-43.74,7.07c5.11-4.71,10.54-5.8,17.19-7.13,.42-.08,.64-.38,.76-.72,1.45,0,2.91,.04,4.38,.16,3.01,.24,5.94,1.43,8.96,1.32-13.05,7.13-24.39,23.11-38.98,14.19,2.52-2.64,4.99-5.35,7.69-7.84h0Zm150.07,216.12c-.51,.63-1.02,1.26-1.51,1.9-4.78-2.52-9.41-4.71-11.06-10.15,.25,0,.5,.03,.75,.02,1.38,2.32,3.25,4.37,5.65,5.72,.69,.48,1.44,.89,2.27,1.19,1.25,.47,2.7,.7,4.14,.76-.07,.19-.15,.37-.23,.55h0Zm1.47-9.4h-.04s-.05-.04-.07-.06c-.67-.32-1.33-.62-2-.9-.05-.03-.07-.08-.13-.11-2.05-1.13-3.2-2.11-5.59-1.19-.12,.05-.16,.14-.26,.2-.42,0-.84-.02-1.25-.03-.25-.06-.5-.11-.74-.18-.45-.13-.84-.04-1.17,.12-96.93-3.66-140.37-111.07-167.75-184.74-.03-.09-.09-.15-.14-.23,4.51-.44,8.44-2.15,12.11-4.74,.43,2.48,1.59,4.62,3.42,6.6,.33,.36,.84-.1,.65-.48-1.16-2.39-2.41-4.59-2.7-7.21,.67-.52,1.34-1,1.99-1.57,1.79,7.45,4.31,14.89,8.01,21.63,.52,.94,1.97,.28,1.73-.7-1.92-7.75-5.18-15.21-7.78-22.79,.13-.14,.27-.28,.41-.42,.03,.03,.04,.07,.08,.09,6.62,5.03,13.22,4.65,20.6,1.15,1.87-.89,3.62-1.87,5.34-2.89,1.72,.75,3.39,1.29,5.04,1.65-.32,.22-.57,.57-.6,1.08-1.97,33.99,22.21,72.41,41.88,99.07,.81,1.1,2.69,.09,1.9-1.07-19.95-29.25-38.39-62.63-40.87-98.01-.02-.31-.14-.55-.29-.76,4.28,.53,8.48-.22,12.99-2.13,.54-.23,1.04-.47,1.54-.72,.05,6.87,1.31,15.14,6,20.39,.57,.64,1.48-.06,1.34-.75-1.23-6.25-3.64-11.96-4.52-18.24,1.23,.68,2.5,1.13,3.77,1.46-.23,.27-.35,.63-.26,1.07,.87,4.37,1.64,9.02,3.44,13.14,.42,.96,2.2,.98,2.08-.27-.41-4.53-1.57-9.17-2.95-13.52,2.56,.3,5.17,.11,7.81-.47,.05,.39,.26,.77,.73,1.04,7.07,4.04,14.45,5.06,22.35,4.45,3.39,5.73,9.04,8.16,15.38,9.05,1.36,8.57,8.55,12.08,17.06,13.46,.29,7.44,1.79,14.78,4.48,21.78,.43,1.12,1.98,.66,1.82-.48-1.02-7.03-2.85-13.87-3.56-20.92,.19,.02,.39,.05,.58,.07-.34,3.02,.67,5.33,2.46,7.14-.24,.17-.42,.4-.38,.74,.93,7.64,2.08,15.78,5.71,22.71,.32,.62,1.45,.34,1.38-.37-.66-7.29-3.26-14.34-4.78-21.49,3,2.01,7.08,3.25,10.93,4.14,.76,.17,1.5,.33,2.26,.49-6.15,8.39-.33,14.33,7.41,17.98-1.06,8.91,3.68,14.37,11.48,18.07,0,.05-.04,.08-.04,.12-.9,6.6,2.28,11.16,7.17,14.53-1.42,5.55,.15,10.17,3.75,14.1,0,.02-.03,.03-.03,.04-3.56,6.48-5.01,13.02,.18,19.26,.73,.89,1.5,1.72,2.28,2.57,3.73,12.49-9.28,22.56-6.19,36.01,.49,2.13,2.1,4.15,3.9,5.85,3.98,5.93,3.83,10.4,3.2,15.73-.11,.18-.2,.37-.23,.62-.35,2.49-1.36,5.01-2.57,7.56-12.44-34.48-10.62-68.12-14.08-104.06-.11-1.17-1.94-1.21-1.94,0-.07,33.99-1.82,70.46,11.88,102.47-1.53-.79-2.99-1.67-4.48-2.5-20.89-20.1-30.06-47.16-40.2-73.51-12.65-32.83-20.92-67-29.92-100.87-.34-1.26-2.33-.73-2.03,.54,8.98,37.62,18.75,74.49,32.47,110.81,6.98,18.47,14.31,39.18,27.23,55.16-40.5-29.39-61-79.95-83.61-121.82-.32-.59-1.37-.17-1.13,.45,12.37,30.1,26.74,58.41,46.13,84.97,12.25,16.78,28.26,39.58,49.41,47.36,1.06,.87,2.19,1.67,3.31,2.49-.97,.17-1.92,.5-2.84,.76v.02Zm5.6,4.39c-.2-.24-.46-.45-.81-.56-.94-.29-1.88-.56-2.84-.82,1.23-.42,2.39-.95,3.29-1.74,.17-.15,.23-.32,.29-.49,1.06-.15,1.87-1.59,.9-2.41-.11-.09-.2-.18-.3-.27,.11-.11,.2-.24,.28-.37,.54,1.2,1.08,2.42,1.66,3.61-.59,1.16-1.16,2.33-1.7,3.49-.16-.26-.44-.4-.77-.47h0Zm15.26,45.73c-.18,1.13-.38,2.29-.58,3.48-.16-.14-.26-.3-.43-.43-1.3-.94-2.61-1.66-4.06-2.39-.76-.38-1.38-.84-1.89-1.33,.1-.17,.22-.37,.3-.53,.72-1.38-.76-2.59-1.93-2.21-1.12-3.39,.02-7.66,.64-10.91,.45-2.36,.49-4.41,.17-6.39,3.04,3.01,5.86,5.81,7.17,9.55-.33,.51-.66,1.03-.99,1.52-.72,1.09,.72,1.96,1.67,1.38,.23,2.02,.04,4.32-.71,7.02-.14,.52,.2,1.01,.66,1.24h-.02Zm-1.84-37.88c9.99,5.55,8.11,14.24,3.86,22.2-1.02-1.59-2.29-3.13-3.74-4.61-6.19-6.3-13.08-10.19-10.73-20.38,.7-3.04,2.02-5.71,3.33-8.37,.05,2.3,.37,4.65,1.6,6.3,1.65,2.23,3.23,3.48,5.68,4.86h0Zm8.38-43.34c-.16,3.2-.66,6.28-1.31,9.42-.28,1.28-.65,2.54-.98,3.8-.63,.29-.93,1.19-.38,1.71-.04,.21-.11,.41-.14,.62-2.34-4.12-6.13-7.77-12.06-12.63-11.3-9.28,.52-21.33,3.77-30.28,.49-1.33,.66-2.65,.61-3.94,1.72,1.85,3.42,3.72,4.94,5.76,.16,.21,.28,.43,.43,.64-.39,.77,.2,1.76,1.14,1.78h.05c4.64,7.33,5.52,14.41,4.84,22.04-.47,.15-.89,.46-.92,1.08h0Zm19.75,51.07c-8.1-6.2-12.65-15.92-15.5-25.71,.52,.61,1.04,1.21,1.55,1.82,2.65,3.13,4.54,7.28,7.62,10,.56,.5,1.56,.18,1.54-.61-.1-3.62-2.85-6.94-5.09-9.68-1.8-2.2-3.73-4.3-5.68-6.37,9.87,8.06,20.91,18.56,15.57,30.55h0Zm-15.88-42.48c1.94-.27,3.86-.73,5.78-1.12-1.01,.86-1.98,1.75-3.01,2.58-1.51,1.22-3.96,2.52-5.37,4.15-.07-.07-.11-.19-.2-.24,.67-1.81,1.08-3.8,1.3-5.82,.35,.32,.85,.54,1.48,.45h0Zm-1.45-34.02c.06-.04,.11-.06,.17-.09,4.03,2.18,7.97,4.23,11.44,7.49,4.21,3.96,6.75,9.09,8.18,14.5-9.98-3.22-17.36-12.13-19.78-21.89h0Z"></path>
                                        <path class="cls-1" d="M328.33,169.9c-5.12-23.24-13.86-45.65-17.95-69.1-.17-1-1.97-.76-1.84,.24,3.24,23.81,11.72,46.2,18.16,69.29,.28,1.02,1.85,.58,1.63-.43Z"></path>
                                        <path class="cls-1" d="M288.88,187.81c.5,.46,1.42-.16,.99-.74-20.55-27.38-42.62-52.38-59.34-82.33-.44-.78-1.59-.1-1.21,.69,14.38,29.98,34.42,59.56,59.58,82.38h0Z"></path>
                                        <path class="cls-1" d="M248.89,154.35c-.76-1.13-2.63-.11-1.89,1.06,12.92,20.3,31.73,39.33,53.58,50.92,.77,.41,1.67-.62,.97-1.2-19.38-15.88-38.78-29.77-52.66-50.78h0Z"></path>
                                        <path class="cls-1" d="M343.09,187.39c-.82-8.4-4.75-16.3-6.16-24.63-.17-1.01-2-.78-1.87,.25,1.06,8.37,3.16,16.98,6.7,24.73,.28,.62,1.4,.32,1.34-.35h0Z"></path>
                                        <path class="cls-1" d="M347.35,337.93c2.51-13.82,5.06-27.82,5.73-41.84,.07-1.47-2.17-1.39-2.34,0-1.68,13.83-5.04,27.69-4.9,41.65,0,.8,1.34,1.03,1.49,.19h0Z"></path>
                                        <path class="cls-1" d="M327.98,306.92c-3.88,5.3-6.22,11.06-6.32,17.6,0,.63,.9,.69,1.09,.14,2.08-5.67,3.75-11.61,6.42-17.07,.38-.77-.68-1.36-1.18-.67Z"></path>
                                        <path class="cls-1" d="M326.81,317.23c-1.21,4.2-2.39,9.02-1.93,13.4,.05,.45,.72,.74,.98,.25,2.18-4.06,1.5-8.9,2.38-13.27,.18-.89-1.16-1.26-1.42-.38h0Z"></path>
                                        <path class="cls-1" d="M198.5,56.51c2.53,10.53,6.32,21.13,11.59,30.71,.46,.83,1.82,.26,1.56-.64-3.08-10.36-7.78-20.39-11.84-30.44-.31-.77-1.51-.49-1.3,.35h0Z"></path>
                                        <path class="cls-1" d="M339.8,132.52c.02-2.76-1.59-5.32-1.67-8.12-.04-1.3-2.16-1.31-2.12,0,.08,2.89,.87,6.23,2.75,8.54,.35,.42,1.05,.05,1.05-.42Z"></path>
                                        <path class="cls-1" d="M91.48,228.95c-3.23-.17-5.79,1.42-8.02,3.51-1.24,1.16,.63,2.93,1.9,1.81,1.84-1.6,3.85-2.86,6.44-2.44,1.91,.31,3.34,1.74,5.11,2.37,.84,.3,1.3-.66,1.03-1.27-1.03-2.24-3.9-3.85-6.44-3.98h0Z"></path>
                                      </svg>