<svg class="animate-icon-color" id="Capa_1" data-name="Capa 1" xmlns="http://www.w3.org/2000/svg" viewBox="0 0 412 324.67">
                                        <defs>
                                        </defs>
                                        <path class="cls-1" d="M259.17,241.54c6.63-3.09,12.89-6.84,18.48-11.39,1.05-.86-.29-2.41-1.4-1.81-.23,.12-.45,.22-.68,.35,34.7-34.41,41.71-95.97,5.11-131.59-35.37-34.42-99.58-42.15-137.25-9.84-.29-.04-.59-.03-.91,.12-43.49,19.78-41.96,87.92-19.77,122.82,27.68,43.56,92.43,57.93,136.42,31.34ZM129.25,104.65c.41,.65,1.34,1.04,1.97,.34,40.01-44.66,101.96-43.62,146.79-5.2,39.18,33.58,25.44,99.19-9.08,130.23-1.93,1.74-3.94,3.33-5.98,4.84-32.7,14.48-65.06,16.95-100.1,.61-52.2-24.35-54.85-84.74-33.59-130.83Zm-2.06-.09c-22.14,40.79-19.67,90.26,15.5,121.68-6.29-5.28-11.92-11.29-16.65-17.94-19.73-27.79-20.89-76.03,1.14-103.74Z"></path>
                                        <path class="cls-1" d="M247.93,234.87c17.75-9.19,38.4-23.68,41.64-45.07,.15-.97-1.28-1.81-1.74-.73-4.19,9.77-8.14,18.03-15.62,25.79-7.26,7.54-16.11,13.4-24.77,19.18-.52,.35-.07,1.12,.48,.83Z"></path>
                                        <path class="cls-1" d="M124.06,139.37c6.47-19.58,15.72-35.35,33.45-46.79,.75-.48,.27-1.87-.64-1.5-17.71,7.06-33.09,29.08-34.53,48.06-.08,1.03,1.43,1.13,1.72,.23Z"></path>
                                        <path class="cls-1" d="M292.38,176.5c1.75-2.7,2.15-6.4,2.9-9.49,.35-1.44-1.86-2.05-2.22-.61-.79,3.08-2.19,6.55-1.92,9.76,.06,.65,.87,.91,1.24,.34Z"></path>
                                        <path class="cls-1" d="M162.51,89.11c2.29-1.36,5.4-2.34,7.24-4.28,.77-.81,.17-1.92-.84-2.03-2.91-.31-5.61,2.34-7.78,3.95-1.38,1.02-.17,3.28,1.38,2.37Z"></path>
                                        <path class="cls-1" d="M247.75,266.4c2.48,5.39,4.14,11.84,7.7,16.65,.71,.96,2.11,.39,1.91-.8-1.05-6.01-4.81-11.73-8.16-16.69-.61-.91-1.9-.13-1.45,.85Z"></path>
                                        <path class="cls-1" d="M297.92,45.86c-28.1-22.81-64.28-33.4-100.1-32.89-48.1,.69-82.17,26.74-113.61,60.37-.64,.68-.55,1.49-.15,2.08-44.04,63.6-29.51,149.74,32.3,196.57,64.13,48.59,160.54,36.83,210.12-25.98,48.6-61.58,29.71-152.86-28.56-200.15ZM65.43,132.6c-.96,8.89-.95,17.96-.16,27.01-.49,.13-.98,.24-1.47,.37-.29,.07-.46,.25-.61,.45-.05-9.26,.68-18.58,2.23-27.84Zm27.19,112.83c-19.66-23.84-29.01-53.27-29.45-83.58,.2,.32,.49,.58,.96,.58,.46,0,.92-.06,1.38-.1,.55,5.14,1.45,10.26,2.52,15.35,1.36,8.39,3.42,16.66,6.1,24.64-.93-1.8-1.87-3.6-2.8-5.43-.53-1.04-2.33-.31-1.9,.8,1.63,4.24,3.37,8.59,5.2,12.94-1.03,.74-.57,2.58,.85,2.13,.01,0,.03,0,.04-.01,4.83,11.15,10.62,22.15,18.21,31.43-.59,.17-1.06,.67-1.12,1.24Zm30.62,26.92c-10.92-6.93-20.2-15-28.03-23.89,3.55,3.26,7.15,6.59,10.84,9.85,.14,.65,.71,1.19,1.38,1.23,6.43,5.65,13.15,11.03,20.32,15.53-1.51-.89-3.02-1.78-4.51-2.72Zm197.27-24.6c-44.05,55.7-124.04,62.64-184.22,32.01,1.37,.31,2.26-1.41,1-2.34-.64-.48-1.28-.95-1.92-1.43,4.87,2.8,9.89,5.31,15.03,7.47,.17,.94,1.2,1.43,1.95,.8,49.83,20.06,110.52,10.43,150.36-25.42,.93,.73,1.9,1.39,2.99,1.85,.7,.29,1.59-.59,1.29-1.3-.43-1.05-1.05-2.01-1.75-2.92,7.12-6.76,13.6-14.29,19.07-22.79,3.27-5.07,5.93-10.48,8.15-16.08,.89,.2,1.78,.34,2.67,.29,.67-.03,1.01-.81,.54-1.31-.61-.66-1.33-1.22-2.09-1.74,10.45-28.7,8.79-62.75,4.89-91.65-4.87-36.02-23.02-62.08-54.1-80.57-7.16-4.26-14.81-7.95-22.77-11.07-.27-.74-1.18-1.13-1.94-.75-58.78-22.17-134.26-12.16-163.3,49.53-.53,1.14,1.03,2.1,1.71,1,3.22-5.19,6.69-9.98,10.33-14.42,1.61,1.35,3.22,2.71,4.78,4.11,2,1.8,3.92,4.01,6.33,5.27,1,.53,2.05-.52,1.53-1.53-1.25-2.4-3.47-4.35-5.44-6.16-1.65-1.51-3.39-2.82-5.21-4.03,11.56-13.46,24.97-23.41,39.59-30.11,2.57,6.37,4.77,14.54,9.96,19.13,.33,.29,.85,.01,.74-.44-1.59-6.61-4.75-13.73-8.04-19.83,15.29-6.54,31.8-9.61,48.76-9.69-.3,3.21-.28,6.43-.29,9.66-.01,3.85-.27,7.83,.91,11.54,.24,.75,1.29,.75,1.53,0,1.03-3.23,.93-6.61,.92-9.97-.01-3.75,.06-7.5-.3-11.23,17.62,.26,35.69,3.8,53.34,10.13-3.56,5.58-6.55,12.38-8.28,18.51-.24,.84,.82,1.42,1.43,.84,4.82-4.59,7.12-12.04,9.87-18.25,5.79,2.19,11.54,4.67,17.21,7.45,10.15,5,18.9,11.33,26.38,18.68-1.98,1.28-3.64,3.19-5.36,4.81-2.65,2.47-6.75,5.08-8.44,8.35-.25,.49,.05,1.29,.7,1.22,3.41-.38,6.63-3.89,9.01-6.08,2.05-1.89,4.56-3.86,6.11-6.25,9.6,9.97,16.91,21.69,22.23,34.44-.75-1.41-1.52-2.81-2.34-4.21-.22-.38-.89-.12-.73,.3,2.05,5.17,3.74,10.5,5.27,15.89-6.54,1.25-13.22,4.24-19.32,6.72-1.11,.45-.71,2.15,.51,1.84,6.35-1.61,13.76-2.77,19.39-6.43,1.32,4.81,2.56,9.65,3.79,14.44,.24,.95,1.51,.89,1.87,.14,2.03,11.05,2.89,22.44,2.69,33.83-3.29-.34-6.75,.25-10.02,.57-3.14,.31-6.17,.79-9.08,2.02-1.02,.43-.52,2.23,.57,2.1,3.27-.37,6.53-.8,9.81-1.07,2.89-.24,5.91-.22,8.69-1.08-.55,17.41-3.55,34.74-8.65,50.74-1.83-.88-3.77-1.61-5.5-2.44-4.13-1.99-8.31-3.78-12.52-5.6-1.15-.5-2.15,1.06-1.01,1.73,3.94,2.29,7.77,4.7,11.83,6.77,1.88,.96,3.95,2.12,6.08,2.99-5.46,15.76-14.07,28.77-24.87,39.25-1.84-2.22-4.2-4.14-6.24-6-3.32-3.03-6.99-5.67-10.79-8.06-1.57-.99-2.86,1.39-1.43,2.44,3.77,2.76,7.21,5.88,10.63,9.06,1.72,1.59,3.36,3.45,5.19,4.99-24.95,22.59-60.4,32.6-95.49,32.1,.38-6.25-.02-12.79-.38-19.01-.09-1.5-2.22-1.49-2.33,0-.43,6.02-1.79,13.15,.51,18.98-17.48-.47-34.8-3.51-50.6-8.87,1.02-1.95,2.05-3.88,2.94-5.91,1-2.29,2.19-4.8,1.93-7.35-.07-.72-.93-1.24-1.52-.62-1.54,1.62-2.16,3.73-3,5.76-.98,2.4-1.98,4.8-2.99,7.18-2.86-1.03-5.69-2.11-8.43-3.29-11.55-4.98-22.04-12.21-31.31-21.05,4.12-3.81,8.46-7.87,11.1-12.62,.5-.91-.6-2.28-1.55-1.55-4.35,3.33-8.13,7.73-11.89,11.89-11.9-11.96-21.64-26.62-28.79-42.63,0-.03-.01-.05-.02-.08,2.01-.57,4.02-1.15,6.01-1.76,2.94-.92,5.9-1.64,8.28-3.66,.58-.49,.1-1.45-.6-1.45-2.97,0-5.72,1.16-8.53,2.05-2,.63-3.93,1.42-5.87,2.15-4.21-16.11-7.16-31.58-8.37-47.31,.94-.23,1.88-.47,2.83-.72,3.56-.94,7.51-1.24,10.87-2.72,.65-.3,.35-1.17-.18-1.37-2.88-1.09-5.93-.33-8.85,.35-1.64,.39-3.29,.83-4.93,1.26-.25-4.02-.38-8.06-.38-12.15,2.89-12.72,5.6-25.01,9.18-37.22h.04c.21,.4,.72,.58,1.13,.43,1.5,.54,3,1.05,4.47,1.61,3.06,1.16,6.06,2.54,9.38,2.67,1.12,.04,1.57-1.59,.57-2.12-2.89-1.52-6.07-2.44-9.11-3.6-1.2-.45-2.45-.9-3.72-1.26,5.29-10.54,9.83-21.6,16-31.63,.48-.78-.68-1.41-1.19-.71-7.24,9.84-12.51,20.2-16.66,31.57,2.17-7.09,4.64-14.18,7.71-21.35,.41-.95-.8-1.7-1.4-.82-7.02,10.26-12.16,22.78-15.44,35.76-.54-.18-1.23-.03-1.4,.61-1.03,3.95-1.87,7.96-2.51,12.02,2.44-19.87,9.36-38.7,21.71-54.2,.98-1.22-.76-2.98-1.74-1.73-3.75,4.75-6.96,9.79-9.75,15.02,2.23-5.05,4.66-10.01,7.36-14.85,.43,.05,.89-.07,1.31-.48,31.62-31.19,59.77-54.55,105.58-58.87,35.22-3.31,70.43,8.63,99.08,28.53,65.24,45.32,78.03,140.69,29.25,202.37Z"></path>
                                        <path class="cls-1" d="M77.12,77.12c8.55-12.46,18.77-22.86,29.18-33.69,.46-.47-.14-1.29-.72-.93-12.77,8.11-21.77,21.33-29.24,34.16-.3,.51,.45,.92,.78,.45Z"></path>
                                        <path class="cls-1" d="M332.69,243.4c-9.09,14.41-19.49,26.9-33.43,36.81-.89,.63-.14,1.91,.85,1.45,15.44-7.24,26.79-22.39,34.32-37.25,.59-1.15-1.04-2.12-1.73-1.01Z"></path>
                                        <path class="cls-1" d="M40.22,6.42c-.3-1.31-1.81-1.17-2.38-.28-.03,0-.07-.01-.1-.01-5.63,1.06-4.55,17.31-4.78,20.91-.94,15.12-1.64,29.44-7.06,43.29-2.54-21.01-1.18-42.59-4.92-63.03-.2-1.09-1.6-.81-1.94,0-2.51,6.02-1.87,51.17-5.76,58.64C11.78,53.04,14.83,4.68,1.89,5.21c-1.01,.04-1.01,1.52,0,1.57,.21,.01,.4,.08,.6,.14-3.17,19.49,.18,39.11,1.17,58.72,.91,17.92,12.55,30.5,13.84,48.66,.76,10.64,1,21.41,.96,32.22-.37-.73-.64-1.51-.82-2.3-.48-2.09-3.48-1.16-3.16,.87,.43,2.72,1.6,5.09,3.93,6.64,0,0,.02,.01,.03,.01-.01,1.27-.07,2.54-.09,3.81-.44-.27-.86-.57-1.25-.91-1.42-1.22-3.42,.71-2.08,2.08,.94,.95,2.03,1.81,3.23,2.45-.46,18.88-1.64,37.79-2.76,56.34-1.47,24.3-2.4,48.71-.61,73.02,.68,9.28,.92,27.95,11.81,31.66,.75,.25,1.62-.28,1.81-1.03,7.38-28.4,4.54-66.13,.75-94.92-2.68-20.37-4.83-42.13-5.44-63.9,2.07-.13,4.26-.81,5-2.81,.17-.48-.19-1.09-.68-1.19-1.48-.31-2.95,.3-4.43,.5-.02-1.32-.11-2.64-.12-3.96,.89-.16,1.67-.55,2.11-1.34,.25-.44,.18-.99-.18-1.35-.55-.55-1.24-.72-1.97-.82-.02-17.59,1.12-35.03,4.24-51.55,.07-.35,0-.66-.12-.93,8.86-30.68,20.18-57.02,12.54-90.44Zm-11.87,241.92c.47,12.48-.68,24.95-.4,37.42,.1,4.47,.82,40.83-5.93,24.63-6.3-15.12-4.84-35.03-4.83-51.08,.01-33.09,2.65-66.19,3.4-99.28,.18,.04,.36,.07,.54,.11,1.58,29.62,6.15,59.47,7.22,88.21ZM36.82,61.46c-3.33,14.14-10.92,26.62-13.24,41.12-.03,.16,.06,.27,.09,.4-1.29,7.26-2.14,14.57-2.61,21.95-.25-10.02-1.16-19.98-3.64-29.49-3.38-12.96-10.29-23.7-10.96-38.26-.75-16.35-2.76-32.43-2.07-48.8,6.47,8.95,2.66,53.13,6.45,60.63,.48,.95,1.49,.86,2.16,.31,7.09-1.94,6.04-38.27,6.21-42.34,.18-4.47,.36-8.93,.82-13.37,.59,19.5-2.07,40.9,3.31,59.75,.16,.54,.48,.8,.86,.93-.19,.4-.33,.8-.52,1.2-.54,1.12,.56,2.28,1.7,1.69,8.8-4.58,8.97-21.65,9.86-30.08,.79-7.53,1.11-15.11,1.57-22.66,.24-3.86-.12-9.53,1.38-13.64,2.46,16.51,2.43,34.56-1.35,50.66Z"></path>
                                        <path class="cls-1" d="M402.94,179.84c.44-.4,.84-.85,1.17-1.38,.63-1.03-.28-2.12-1.36-2.07-.03-.63-.07-1.26-.1-1.89,.06-.16,.2-.29,.24-.47,.08-.34-.07-.6-.3-.8-.4-8.8-.7-17.62-.77-26.45-.21-25.2,1.17-50.69,2.24-75.87,.97-22.91-2.4-46.12,.21-68.85,.18-1.55-2.43-1.89-2.72-.37-.08,.42-.12,.84-.2,1.26-.06-1.02-1.17-2.08-2.43-1.49-8.18,3.82-10.29,12.48-12.48,20.66-5.25,19.7-9.58,40.74-13.78,60.72-1.75,8.31-3.34,16.28-4.21,24.26-.74,.36-1.28,1.27-.72,2.06,.16,.22,.3,.45,.45,.67-.7,8.04-.6,16.15,.99,24.67,2.76,14.82,16.69,23.03,23.83,35.66-.64,.25-1.15,.88-.92,1.64,.59,1.99,1.56,3.92,3.3,4.94-.08,.51-.17,1.02-.26,1.54-.69-.1-1.39-.26-2.08-.48-1.97-.63-2.64,2.27-.83,3.01,.73,.3,1.54,.51,2.37,.68-6.87,40.11-22.85,82.31-13.5,122.67,4.86,20.98,22.31,10.53,23.84-5.67,3.76-39.71,.01-79.12-2.01-118.67Zm-10.84-18.55c-3.73-4.44-7.66-8.62-11.62-12.85-6.71-7.15-9.23-16.06-9.78-25.31,1.55,1.8,2.87,4.15,5.2,4.93,.55,.19,1.08-.4,.93-.93-.68-2.42-2.76-4.53-4.49-6.28-.56-.56-1.23-.48-1.71-.11-.06-2.36-.03-4.74,.11-7.12,.17,.27,.36,.52,.53,.79,1.06,1.7,1.91,3.86,3.63,4.97,.43,.28,1.12,.02,1.22-.49,.71-3.5-2.59-7.34-4.99-10.19,.35-3.49,.82-6.94,1.29-10.25,.25-1.74,.6-3.46,.91-5.18,1,3.36,1.22,7.01,1.65,10.44,.04,.29,.48,.52,.64,.17,2.09-4.77,.87-9.25-1.8-13.43,.83-4.33,1.74-8.63,2.81-12.9,.38,1.77,.93,3.46,1.97,4.75,.45,.57,1.37,.21,1.54-.41,.95-3.28-.91-7.35-1.91-10.55,.77-2.81,1.58-5.62,2.43-8.41,.14,2.41,.56,4.76,2.1,6.53,.33,.38,.87,.13,1.02-.27,1.36-3.74,0-8.56-1.03-12.29-.02-.08-.1-.11-.14-.17,.41-1.28,.79-2.57,1.22-3.85,.7-2.11,1.21-4.7,1.66-7.59,.19,.61,.32,1.24,.52,1.84,.85,2.53,1.27,5.33,2.94,7.47,.38,.48,1.08,.13,1.25-.33,1.66-4.62-1.98-10.71-3.85-15.24,.37-2.93,.75-5.98,1.23-9.03,.58,2.52,1.59,4.88,3.71,6.1,.88,.51,1.77-.32,1.6-1.23-.32-1.73-1.3-3.34-1.94-4.98-.77-1.97-1.33-4.04-1.88-6.08-.04-.17-.18-.24-.28-.36,1.9-8.65,5.09-16.29,11.73-19.2,.4-.17,.61-.44,.72-.74-1.98,12.13-1.17,23.9-.39,36.21,1.15,18.12-.76,36.52-1.29,54.64-.79,26.6-.47,52.75,.49,79-.48,.16-.97,.31-1.48,.43,.01-.51,.05-1.02,.05-1.54,0-.91-.66-1.26-1.31-1.19-.91-3.37-2.42-6.39-5.25-9.74Zm10.73,105.84c0,8.56-.43,17.09-.96,25.64,2.27,12.95-3.46,16.43-17.21,10.43-1.69-7.02-2.54-14.13-2.57-21.33-1.65-34.27,13.44-66.49,16.11-100.15,.76-.07,1.5-.2,2.21-.43,.47,11.44,1.02,22.91,1.74,34.46,1.07,17.05,.7,34.29,.69,51.37Z"></path>
                                        <path class="cls-1" d="M409.59,277.79c-1.27,16.1-4.86,31.46-11.04,46.37-.18,.44,.54,.72,.76,.32,8.12-14.49,13.33-29.93,12.63-46.69-.06-1.52-2.23-1.5-2.35,0Z"></path>
                                        <path class="cls-1" d="M3.91,272.27c.62,7.95,.85,15.96,4.3,23.31,.46,.98,1.8,.24,1.64-.7-1.3-7.52-2.74-15.03-3.67-22.61-.17-1.42-2.39-1.48-2.27,0Z"></path>
                                        <path class="cls-1" d="M.02,286.45c-.19,5.5,1.44,11.44,5.23,15.55,.6,.65,1.51-.05,1.38-.8-.94-5.12-3.97-9.47-4.43-14.75-.12-1.39-2.13-1.43-2.18,0Z"></path>
                                        <path class="cls-1" d="M44.3,3.89c2.18,6.99,3.1,13.98,4.33,21.16,.09,.52,.99,.54,1.07,0,1.02-7.33-1.22-14.79-3.55-21.67-.39-1.17-2.22-.68-1.85,.51Z"></path>
                                        <path class="cls-1" d="M378.47,23c1.6-2.86,2.14-6.41,3.25-9.5,1.48-4.11,3.4-8.05,6.3-11.34,1.06-1.21-.62-2.93-1.78-1.77-5.24,5.19-9.98,14.6-9.48,22.16,.06,.87,1.24,1.29,1.7,.46Z"></path>
                                      </svg>