<svg class="animate-icon-color" id="Capa_1" data-name="Capa 1" xmlns="http://www.w3.org/2000/svg" viewBox="0 0 409.55 320.85">
                                        <defs>
                                        </defs>
                                        <path class="cls-1" d="M228.68,253.04c-1.74-6.69-10.42-11.78-16.76-7.65-4.61,3-8.5,7.22-11.65,12.11-1.18-6.98-.79-14.55,.83-21.07,1.24-4.99,5.88-11.1,11.4-15.48,1.76,2.94,4.26,5.53,7.4,7.53,6.04,3.86,14.45,3.24,15.17-4.52,.18,.68,.34,1.39,.47,2.16,.12,.69,1.23,.52,1.2-.17-.77-17.66-12.5-14.74-22.82-6.89-4.67-8.44,.57-18.85,6.43-25.93,10.88-13.16,10.94,6.72,19.99,9.34,12.11,3.5,17.52-16.99,11.81-28.42,5.59-1.22,10.49-8.3,13.34-15.06,1.78,.42,3.71,.45,5.59,0,.84-.2,.48-1.42-.35-1.27-5.85,1.05-10.39-3.22-9.13-9.13,1.25-5.86,7.69-7.27,12.64-5.72,2.45,.77,5.68,3.26,8.17,6.23-3.21,4.06-4.55,9.57-2.51,14.5,.21,.49,.64,.83,1.21,.68,8.81-2.32,8.35-8.97,4.43-14.73,1.37-1.54,2.96-3.05,4.68-4.68,.42-.4,0-1.2-.58-1-2.15,.73-4.06,2-5.7,3.59-3.28-3.82-7.91-6.89-11.94-7.42-6.75-.88-12.73,3.65-13.04,10.57-.19,4.05,1.98,6.65,4.96,7.88-1.25,1.59-2.45,3.21-3.58,4.89-1.31,1.69-2.63,3.38-3.95,5.07-4.43-.44-7.56-.48-9.46-.14-1.05-.6-2.21-1.06-3.5-1.31-1.01-.2-2.33,.95-1.53,1.99,2.5,3.25,5.01,4.81,7.45,5.16,.2,.13,.37,.25,.59,.38,3.15,4.92,2.32,12.12,.88,17.39-2.26,8.29-11.11,10.87-15.38,3.05-1.19-2.18-2.09-4.5-3.35-6.65-5.78-9.8-17.07,7.72-19.52,11.84-4.04,6.79-3.77,14.21-.38,20.26-5.73,4.72-10.8,10.73-12.97,15.22-2.21,4.56-2.73,15.39-.87,25.01-10.38,19.11-9.5,46.48,9.35,57.77,1.31,.78,2.44-1.2,1.18-2.03-15.81-10.27-16.27-27.1-11.97-43.6,.73-2.48,1.64-4.9,2.63-7.28,2.88,9.51,8.58,16.19,17.98,11.06,9.36-5.11,13.9-12.98,11.15-23.53Zm5.8-30.97c-.65-.2-1.46,.06-1.39,.91,.78,10.78-12.61,3.29-16.08,.04-1.14-1.07-2.04-2.2-2.76-3.36,7.76-5.46,16.66-7.11,20.23,2.42Zm49.61-70.71c2.86,4.4,3.44,9.12-2.43,10.74-.82-4.56,.28-7.83,2.43-10.74Zm-82.02,113.06c-.32-.88-.59-1.79-.84-2.72,.05-.12,.1-.24,.16-.35,3.52-9.4,11.56-12.74,24.09-10.02,11.05,15.44-16.65,31.7-23.4,13.09Z"></path>
                                        <path class="cls-1" d="M177.06,225.24c2.68-15.65-12.71-33.43-26.92-39.85h0c-.92-11.63-12.3-22.45-23.92-23.05-.73-18.89-19.15-28.95-35.82-32.12-1.7-.32-2.43,2.14-.73,2.63,11.21,3.17,24.26,7.59,30.5,18.25,1.95,3.33,2.69,7.45,2.99,11.35-3.13,.35-6.2,1.43-9.02,3.6-.82,.63-.93,1.5-.3,2.31,6.88,8.84,11.95,5.33,12.37-3.67,1.41-.18,2.55-.25,2.95-.18,8,1.42,13.6,10.11,16.35,17.02,.39,.97,.67,1.99,.9,3.01-7.39-1.42-16.57,.79-14.91,10.37,1.16,6.74,13.82,5.6,16.51,.67,1.42-2.6,2.05-5.3,2.14-7.99,11.58,7.01,26.03,21.19,24.1,35.78-7.85-4.73-17.44-6.91-19.23,2.61-1.36,7.25,5.07,19.98,13.73,12.86,4.25-3.5,6.73-7.45,7.87-11.61,.48,.46,.95,.85,1.44,1.38,4.63,3.91,6.51,10.38,8.04,15.95,4.73,17.23,.76,37.33-1.62,54.67-.18,1.26,1.73,1.83,1.95,.54,3.65-21.85,8.3-46.27-1.97-67-1.07-2.17-3.9-5.01-7.39-7.53Zm-59.25-56.57c-1.59-1.55,1.97-2.79,5.54-3.51,.62,3.77-1.21,4.95-5.54,3.51Zm28.84,23.07c-.87,3.37-3.18,5.04-6.93,4.99-1.87-1.71-3.74-3.42-5.6-5.13,3.63-4.77,7.82-6.6,12.56-5.59,.28,1.9,.3,3.83-.03,5.73Zm22.39,43.08c-3.71-.85-7.43-1.7-11.15-2.55,4.94-8.6,10.3-10.93,16.06-7.19-.73,3.26-2.25,6.54-4.91,9.74Z"></path>
                                        <path class="cls-1" d="M200.81,139.08c-.42-1.42-2.49-1.45-2.9,0-2.95,10.66-14.46,18.89-20.54,4.43-4.62-10.98,7.92-19.52,16.67-22.36,2.01-.65,5.66-.73,7.06-2.75,6.38-9.24,.1-27.54-4.41-36.34-.89-1.74-3.47-.21-2.62,1.53,4.14,8.4,5.59,17.17,5.92,26.46,.31,8.71-5.66,7.23-10.36,9.41-8.19,3.8-14.09,8.93-15.85,18.03-1.54,7.98,7.39,21.59,16.75,17.49,3.2-1.4,9.91-6.55,8.83-10.19,2.44,8.25,5.73,34.44-10.01,33.98-2.28-.07-4.8,1.22-6.99,1.82-15.72,4.33,7.28,35.24,12.2,39.22,1.14,.92,2.77-.63,1.63-1.64-1.42-1.26-25.03-34.72-11.69-34.72,3.32,0,7.77-1.26,11.11-2.14,14.3-3.75,7.61-34.03,5.18-42.24Z"></path>
                                        <path class="cls-1" d="M347.76,191.26c1.39-.46,.82-2.45-.6-2.18-63.04,12.38-111.08,66.13-123.01,128.03-.26,1.36,1.76,1.95,2.1,.57,16.12-65.66,58.47-105.57,121.51-126.43Z"></path>
                                        <path class="cls-1" d="M247.83,87.93c-.76,.26-.84,1.17-.21,1.62,.8,.58,1.78,.84,2.8,.99-20.2,28.23-33.47,64.75-41.67,97.49-.18,.73,.83,.97,1.1,.3,7.53-19.2,14.09-38.67,22.41-57.55,6.2-14.05,14.15-26.98,21.7-40.22,.68-.09,1.35-.21,1.96-.33,3.27-.7,5.94-2.93,7.99-5.48,1.05-1.3-.72-3.16-1.86-1.86-1.72,1.95-3.64,3.26-6.03,4.06,.89-1.58,1.77-3.16,2.63-4.74,.39-.71-.6-1.56-1.16-.9-1.68,2.01-3.3,4.1-4.89,6.21-1.62,.02-3.25-.11-4.77,.41Z"></path>
                                        <path class="cls-1" d="M168.64,181.22c-1.6-31.44-24.38-70.44-49.22-89.43-1.07-.81-2.14,.86-1.36,1.76,21.85,25.35,44.93,52.89,48.41,87.67,.13,1.37,2.25,1.42,2.17,0Z"></path>
                                        <path class="cls-1" d="M140.54,89.19c1.11-.72,2.14-1.51,3.18-2.32,1-.58,2.03-1,3.08-1.26,.04,.43,.11,.86,.15,1.3-1.19,2-2.27,4.04-3.25,6.12-.39-.58-.76-1.18-1.14-1.76-.71-1.07-2.24-.15-1.7,1,.55,1.17,1.14,2.31,1.71,3.47-.01,.37,.14,.69,.45,.91,8.06,16.08,17.83,31.1,21.89,48.97,.2,.87,1.45,.49,1.32-.36-2.83-17.57-11.31-34.67-20.92-49.75,1.06-1.41,2.09-2.86,3.08-4.35,.82,.05,1.79-.66,1.63-1.75-.03-.23-.05-.46-.08-.69,.62-.99,1.24-1.97,1.84-2.98,1.26,.41,2.52,1.12,3.73,2.18,1.09,.95,3.25,.06,2.65-1.54-.83-2.23-1.89-4.31-3.04-6.35,.64-1.12,1.28-2.24,1.92-3.35,.83-1.43-.81-2.99-2.23-2.22-.77,.42-1.46,.94-2.19,1.42-1.22-1.9-2.48-3.78-3.74-5.68-.73-1.09-2.63-.75-2.59,.7,.1,3.22,.11,6.4,.22,9.58-1.57,1.32-3.16,2.62-4.8,3.87-1.07,.65-2.13,1.39-3.13,2.3-1.36,1.24,.41,3.54,1.96,2.54Z"></path>
                                        <path class="cls-1" d="M106.3,66.92c.18-4.98,1.33-9.71,3.52-14.18,1.06-2.17,2.52-4.06,4.2-5.77,1.3-1.31,2.72-1.85,3.51-3.52,.27-.57-.07-1.08-.66-1.16-4.31-.53-7.98,5.67-9.72,8.88-2.58,4.77-3.55,10.38-3.57,15.74,0,1.76,2.66,1.75,2.72,0Z"></path>
                                        <path class="cls-1" d="M110.8,60.32c-.71,1.45,1.38,2.72,2.19,1.28,1.55-2.78,3.44-5.25,6.01-7.16,1.35-1.01,2.88-1.61,4.57-1.7,1.21-.06,2.22,.26,3.41-.08,.43-.13,.6-.6,.4-.98-1.6-3.11-5.94-1.94-8.45-.75-3.74,1.76-6.38,5.83-8.12,9.4Z"></path>
                                        <path class="cls-1" d="M114.55,71.05c2.88-2.18,5.96-3.64,9.5-4.44,4.07-.92,7.01,.98,10.33,2.94,.54,.32,1.28-.21,1.08-.83-3.22-10.05-17.2-4.2-22.52,.25-1.15,.96,.41,2.99,1.61,2.09Z"></path>
                                        <path class="cls-1" d="M126.79,77.85c2.38,1.34,4.14,3.44,6.46,4.84,.71,.42,1.8-.29,1.47-1.13-2.15-5.57-9.18-7.92-14.56-8.87-1.53-.27-2.21,1.98-.65,2.37,2.56,.63,4.97,1.5,7.28,2.79Z"></path>
                                        <path class="cls-1" d="M112.76,77.98c-1.14-1.1-2.83,.59-1.74,1.73,1.61,1.68,3.22,3.36,4.64,5.21,1.14,1.47,2.05,4.22,3.94,4.71,.49,.13,.91-.16,1.08-.61,.7-1.88-1.3-3.89-2.39-5.27-1.65-2.09-3.62-3.93-5.53-5.77Z"></path>
                                        <path class="cls-1" d="M104.6,109.32c7.06-5.47,6.66-14.68,3.48-22.21-.59-1.39-2.98-.38-2.44,1.03,2.79,7.33,1.77,13.59-2.5,20.05-.64,.96,.69,1.72,1.46,1.13Z"></path>
                                        <path class="cls-1" d="M97.16,89.47c.81-1.55-1.49-2.91-2.34-1.37-1.02,1.83-2.43,2.96-4.41,3.62-1.53,.51-3.41,.4-4.76,1.35-.5,.35-.52,1.02,0,1.36,1.82,1.23,4.64,.48,6.5-.29,2.22-.92,3.91-2.56,5.01-4.68Z"></path>
                                        <path class="cls-1" d="M88.66,79.91c1.44-.73,.18-2.76-1.25-2.13-1.7,.74-3.36,1.12-5.22,1.05-1.77-.08-3.22-1.3-4.92-1.6-.49-.08-.93,.29-.8,.81,1.3,5.21,8.86,3.57,12.18,1.88Z"></path>
                                        <path class="cls-1" d="M83.74,71.08c1.52,.51,2.1-1.8,.65-2.37-5.99-2.32-7.08-7.33-8.34-12.99-.2-.9-1.68-.94-1.86,0-1.3,6.97,3.03,13.19,9.55,15.36Z"></path>
                                        <path class="cls-1" d="M92.07,64.31c-2.05-3.45-3.27-7.08-4-11.01-.66-3.51,.17-6.97-.33-10.43-.1-.7-1-.61-1.32-.18-4.54,6.2-.15,17.27,3.55,22.85,.86,1.3,2.91,.13,2.1-1.23Z"></path>
                                        <path class="cls-1" d="M96.18,55.66c-.48-2.18-.66-4.35-.64-6.58,.02-2.08,.41-4.11,.09-6.19-.09-.61-.91-.56-1.19-.15-2.53,3.63-1.58,9.54-.62,13.58,.37,1.54,2.71,.88,2.37-.65Z"></path>
                                        <path class="cls-1" d="M265.56,81.3c1.59,.64,2.74-2.1,1.17-2.77-.09-.04-.17-.09-.25-.13,.15,.05,.32,.08,.48,.08,4.66-.13,9.51-2.06,9.77-7.33,.22-4.42-3.86-7.89-7.84-8.67-1.28-.25-2.59-.25-3.85-.03,.12-.23,.18-.5,.13-.82-.72-3.82-.56-7.64,.29-11.43,.91-4.08,3.54-7,5.23-10.66,.35-.77-.37-1.61-1.17-1.18-7.88,4.25-8.65,16.34-6.72,23.94,.08,.31,.24,.51,.43,.65-2.77,1.02-5,3.22-5.48,6.4-.8,5.37,3.09,10.08,7.82,11.97Zm2.27-11.46c.39-1.57,2.24-2.11,3.5-2.87,1.17,.95,2.03,2.25,2.19,3.73,.34,3.12-2.73,4.18-5.33,4.46-.44-1.74-.78-3.55-.35-5.31Zm-.73-4.31c-3.24,2.12-2.69,8.19-1.7,11.76,.1,.34,.31,.64,.58,.85-6.03-3.26-7.25-12.58,1.12-12.62Z"></path>
                                        <path class="cls-1" d="M270.14,58.3c1.1-3.85,2.62-7.48,4.93-10.76,2.44-3.48,6.21-4.39,9.3-6.94,.41-.34,.19-1.12-.32-1.22-4.23-.85-8.2,2.61-10.74,5.63-3,3.58-4.51,8.15-5.56,12.63-.36,1.55,1.95,2.21,2.39,.66Z"></path>
                                        <path class="cls-1" d="M279.81,58.9c2.3-2.09,4.8-3.42,7.94-3.51,3.13-.09,5.12,2.26,7.84,3.25,.52,.19,.97-.38,.85-.85-.82-3.29-4.61-5.28-7.84-5.42-4.18-.18-7.74,1.81-10.66,4.67-1.21,1.19,.61,2.99,1.86,1.86Z"></path>
                                        <path class="cls-1" d="M285.84,64.12c2.97,.18,5.68,1.06,8.01,2.96,2.34,1.91,3.54,4.77,5.07,7.29,.48,.79,1.85,.5,1.81-.49-.37-7.71-7.74-12.24-14.89-12.11-1.53,.03-1.51,2.27,0,2.36Z"></path>
                                        <path class="cls-1" d="M291.14,85.98c.12,.58,1,.68,1.26,.17,2.9-5.61-.66-12.14-4.69-16.14-1.14-1.14-2.83,.58-1.76,1.75,1.8,1.97,3.14,4.07,3.99,6.61,.82,2.45,.69,5.09,1.19,7.61Z"></path>
                                        <path class="cls-1" d="M272.43,99.23c-.34,.41-.18,1.24,.49,1.18,9.32-.89,13-12.3,10.19-19.91-.56-1.53-2.99-.93-2.49,.68,1.1,3.56,1.01,6.88-.68,10.23-1.72,3.4-5.17,5.02-7.51,7.82Z"></path>
                                        <path class="cls-1" d="M270.8,84.5c-1.17,3.15-2.88,5.82-5.15,8.3-1.86,2.03-4.91,3.19-6.3,5.55-.3,.52,.1,1.08,.64,1.12,3.16,.24,6.26-3.13,8.19-5.29,2.29-2.56,3.8-5.83,4.87-9.07,.48-1.44-1.73-2.01-2.25-.62Z"></path>
                                        <path class="cls-1" d="M251.41,81.16c1.76-.33,.99-2.91-.73-2.65-1.97,.3-3.93-.06-5.45-1.4-1.37-1.2-1.62-3.12-2.36-4.69-.37-.78-1.38-.42-1.63,.21-1,2.47,.4,5.19,2.25,6.85,2.17,1.94,5.18,2.19,7.92,1.67Z"></path>
                                        <path class="cls-1" d="M243.42,57.58c-1.49,2.53-.04,6.07,1.36,8.35,1.55,2.55,4.21,4.17,6.91,5.25,1.39,.55,2.38-1.8,1.02-2.41-2.21-.99-4.02-2.3-5.4-4.31-1.44-2.1-1.22-4.8-2.55-6.87-.31-.48-1.04-.52-1.34,0Z"></path>
                                        <path class="cls-1" d="M91.1,76.58c.7,4.18,4.68,6.61,8.53,7.46,1.59,.35,2.25-2.01,.67-2.44-2.5-.69-5.02-2.08-6.04-4.62-.95-2.35,.7-4.15,2.81-4.96,2.41-.94,6.59-1.44,8.28,1.06,1.57,2.35-1.69,3.9-3.09,5.07-.72,.6-.07,1.63,.7,1.69,3.77,.27,6.51-3.71,5.49-7.17-1.36-4.63-7.19-4.67-10.97-3.87-3.67,.77-7.04,3.77-6.37,7.79Z"></path>
                                        <path class="cls-1" d="M37.16,204.99c.59,.97,1.21,1.91,1.77,2.89,.89,1.54,3.65,.49,2.95-1.24-.05-.13-.12-.25-.17-.38,0,0,0,0,.01,0-.01-.03-.03-.05-.05-.07-2.33-5.62-5.35-10.65-9.08-15.46-.32-.4-.62-.79-.91-1.15,2.45-1.92,4.83-3.93,7.03-6.15,1.27-.65,2.59-1.23,4.01-1.7,1.89-.62,1.11-3.56-.83-3-.03,0-.05,.02-.08,.03-.17-.64-.67-1.15-1.5-1.16-3.16-.03-6.32-.18-9.48-.38-.13-2.46-.4-4.82-1.07-7.31-.07-.26-.22-.45-.4-.61-.18-.8-.3-1.59-.5-2.4-.34-1.39-2.71-1.53-2.94,0-.44,2.88-1.09,6.38-1.43,9.85-3.67-.31-7.34-.67-11.01-1.06-1.52-.16-1.81,1.72-1.1,2.65,2.94,3.79,5.87,7.69,8.96,11.46-.48,2.02-1.37,3.88-2.68,5.55-1.84,1.46-3.65,2.96-5.35,4.59-1.37,1.3,.39,3.52,1.99,2.58,2.29-1.34,4.14-2.96,5.63-4.78,1.44-1.14,2.9-2.26,4.37-3.36,3.58,3.96,7.44,7.6,11.85,10.61Zm-6.24-24.53c1.93,.13,3.86,.22,5.8,.29-.11,.11-.21,.24-.32,.34-1.94,1.06-3.77,2.3-5.5,3.72-.03-1.28-.07-2.55-.13-3.82,.08-.15,.12-.33,.15-.53Zm-13.99-1.28c1.33,.15,2.66,.3,3.99,.43-.12,.3-.17,.64-.04,1.05,.49,1.56,.73,3.09,.83,4.57-1.61-2.01-3.2-4.02-4.78-6.05Z"></path>
                                        <path class="cls-1" d="M385.78,172.65c-2.85,.52-5.7,1.11-8.53,1.72,.39-2.55,.95-5.09,1.66-7.61,.43-1.55-1.68-2.94-2.81-1.63-3.11,3.62-5.89,7.46-8.53,11.4-1.67,.37-3.35,.71-5.03,1.05-4.37-3.39-9.39-5.89-15.64-6.87-2.04-.32-2.92,2.8-.86,3.13,4.64,.74,8.56,2.38,12.03,4.62-2.53,.47-5.07,.91-7.63,1.24-1.89,.24-1.99,3.2,0,3.05,3.8-.3,7.56-.88,11.3-1.58,.63,.53,1.25,1.07,1.85,1.63-2.77,4.69-5.34,9.5-7.64,14.47-.64,1.38,.78,3.37,2.3,2.3,4.17-2.91,8.4-5.8,12.5-8.86,2.38,3,4.69,6.14,7.08,9.23h0c.09,.12,.18,.23,.26,.34,1.2,1.55,3.49-.42,2.62-2.02-2.16-4.01-3.32-8.17-3.78-12.41,3.78-3.17,7.34-6.57,10.48-10.41,1.08-1.32,.07-3.1-1.63-2.8Zm-22.72,19.46c-.42,.3-.83,.6-1.25,.9,1.13-2.23,2.35-4.41,3.59-6.57,.05,.22,.18,.41,.35,.55-.94,1.68-1.83,3.39-2.68,5.12Zm8.16-5.96c-.21-.25-.44-.48-.65-.72,.98-.89,1.69-2.05,2.13-3.33,0-.02,.02-.04,.03-.05,0,0,0,0,0,0,.05-.14,.14-.25,.18-.39,.56-1.91-1.96-2.7-3.01-1.27-.12,.17-.21,.35-.33,.52-.35-.08-.72-.01-1.02,.19,.35-.51,.68-1.02,1.02-1.54,1.29-.29,2.58-.58,3.87-.87-.12,1.89-.08,3.78,.04,5.65-.75,.61-1.49,1.22-2.25,1.81Zm5.48-4.55c0-1.23,.04-2.45,.14-3.69,1.61-.36,3.22-.71,4.83-1.05-1.59,1.66-3.26,3.22-4.97,4.73Z"></path>
                                        <path class="cls-1" d="M210.35,122.63c2.05-2.26,4.22-4.5,6.38-6.78,.02,.06,.02,.12,.04,.18,.47,1.96,3.3,1.1,2.97-.82-.13-.74-.21-1.49-.3-2.24,.72-.78,1.43-1.56,2.12-2.35,1.96,.21,3.9,.64,5.8,1.45,1.42,.61,3.16-.69,2.25-2.25-1.05-1.79-2.1-3.57-3.14-5.34,1.13-1.59,2.21-3.21,3.14-4.92,.87-1.59-1.32-3.46-2.58-2-.9,1.04-1.83,2.03-2.79,3-1.78-3.26-3.41-6.6-4.66-10.15-.51-1.47-2.63-1.22-2.7,.36-.26,5.36-1.03,10.72-1.06,16.05-.59,.29-1.22,.52-1.84,.75-2.37,.32-4.74,.82-7.1,1.47-1.8,.48-1.47,3.38,.44,3.28,2.66-.13,5.12-.69,7.43-1.53,.41-.06,.81-.1,1.22-.14,.02,.22,.04,.44,.06,.66-2.85,3.02-5.68,6.06-7.99,9.53-.93,1.4,1.19,3.02,2.32,1.79Zm9.08-24.83c.75,1.68,1.56,3.34,2.42,4.96-.88,.75-1.79,1.46-2.73,2.1,.06-2.35,.19-4.71,.31-7.06Z"></path>
                                        <path class="cls-1" d="M125.99,131.93c1.35,.82,3.13-.84,2.21-2.22-1.2-1.8-2.39-3.6-3.6-5.4,.62-1.43,1.21-2.87,1.79-4.28,.62-1.51-1.72-2.81-2.74-1.59-.56,.67-1.19,1.25-1.79,1.86-1.59-2.28-3.21-4.54-4.97-6.71-.93-1.17-2.84,.09-2.44,1.42,.95,3.11,1.87,6.23,2.7,9.38-1.22,.87-2.5,1.65-3.84,2.36-1.75,.5-3.5,1.26-5.25,2.34-1.55,.96-.55,3.68,1.28,3.02,.13-.05,.26-.12,.39-.17,0,0,0,0,.01,0,1.61-.6,3.17-1.28,4.67-2.06,1.29-.35,2.57-.51,3.85-.47-.91,1.78-1.8,3.56-2.61,5.38-.74,1.64,1.32,2.82,2.39,1.4,.5-.66,.92-1.38,1.38-2.08,.55,1.66,3.18,.83,2.88-1.01-.16-.98-.37-1.94-.56-2.9,.03-.06,.07-.12,.1-.19,1.36,.42,2.73,1.06,4.12,1.91Z"></path>
                                        <path class="cls-1" d="M45.29,187.96c-1.38-.16-1.61,2.04-.32,2.38,59.29,15.78,123.58,57.78,120.08,127.05-.1,1.95,2.88,1.92,3.01,0,4.64-65.09-61.55-122.4-122.77-129.43Z"></path>
                                        <path class="cls-1" d="M80.58,180.08c15.83,9.15,30.17,18.14,43.22,31.18,11.62,11.61,21.38,24.88,32.07,37.31,.91,1.06,2.32-.45,1.5-1.51-20.44-26.34-43.04-57.69-76.03-68.78-1.07-.36-1.7,1.24-.75,1.79Z"></path>
                                        <path class="cls-1" d="M71.94,187.98c1.29-1.63,2.27-3.56,3.03-5.65,1.04,1.48,2.04,3,2.96,4.54,.9,1.48,3.19,.14,2.32-1.36-1.31-2.27-2.77-4.41-4.32-6.48,.34-1.44,.58-2.92,.75-4.41,.94-.26,1.87-.58,2.85-.75,1.77-.3,1.37-2.67,0-3.18-.84-.31-1.69-.56-2.55-.83,.02-1.93-.06-3.8-.22-5.52-.18-1.87-2.56-2.21-3.22-.44-.56,1.49-1.15,3.01-1.77,4.52-2.7-.62-5.44-1.12-8.18-1.59-1.7-.29-2.69,1.81-1.18,2.81,2.12,1.39,4.03,3.07,5.85,4.84-3.29,1.98-6.18,4.62-8.5,7.89-1.09,1.54,.94,2.85,2.28,2.29,3.89-1.64,6.65-4.34,8.82-7.53,.49,.56,.93,1.14,1.4,1.72-.78,2.78-1.92,5.46-2.24,8.35-.11,.94,1.33,1.54,1.92,.8Z"></path>
                                        <path class="cls-1" d="M328.99,256.18c1.67,1.78,3.86,3.18,6.17,3.96,1.78,.61,2.47-2.13,.77-2.79-1.15-.44-2.2-1.01-3.13-1.72,.86-.12,.85-1.6,0-1.72-.64-.09-1.28-.14-1.93-.22-.25-.31-.5-.62-.72-.98-1.29-2.11-1.3-4.78-1.62-7.15-.11-.82-1.45-.97-1.78-.23-1.26,2.86-.92,5.63,.31,8.04-38.87-2.19-86.36,26.77-93.33,65.61-.33,1.85,2.48,2.66,2.85,.78,8.69-44.06,53.69-57.86,92.42-63.6Z"></path>
                                        <path class="cls-1" d="M70.82,249.45c-2.8-2.03-6.2-3.38-9.27-3.88-1.63-.27-2.36,2.15-.7,2.51,2.71,.59,5.05,1.71,7.31,3.31,2.43,1.71,4.01,4.19,6.18,6.15,.79,.71,2.15,.03,1.83-1.07-.5-1.72-1.46-3.25-2.67-4.61,40.98,.81,71.75,25.79,80.75,66.91,.4,1.83,3.02,1.01,2.76-.76-5.8-38.89-44.98-76.84-86.18-68.56Z"></path>
                                        <path class="cls-1" d="M58.22,221.13c-2.82-.33-5.26,3.22-6.28,5.48-1.26,2.79-1.08,5.85,.03,8.65,.62,1.55,3.1,.95,2.56-.71-.79-2.41-.79-4.73,.34-7.02,1.04-2.09,3.45-3.16,4.16-5.32,.19-.57-.3-1.01-.82-1.08Z"></path>
                                        <path class="cls-1" d="M60.45,236.89c.15-2.5,1-4.69,2.77-6.48,1.55-1.57,3.65-1.55,5.49-2.52,.67-.36,.74-1.54,0-1.88-2.64-1.21-5.68,.48-7.62,2.27-2.34,2.16-3.16,5.54-3.11,8.61,.03,1.6,2.38,1.58,2.47,0Z"></path>
                                        <path class="cls-1" d="M62.87,242.03c1.9-1.28,3.87-2.2,6.18-2.4,2.25-.2,3.94,1.14,6.07,1.22,.81,.03,1.12-.84,.84-1.47-1-2.27-3.88-2.73-6.12-2.85-3-.15-6.01,1.43-8.33,3.17-1.36,1.02-.11,3.32,1.36,2.33Z"></path>
                                        <path class="cls-1" d="M60.9,255.58c-1.5-.98-2.81,1.37-1.38,2.38,7.24,5.12,6.81,13.16,3.2,20.4-.29,.58,.39,1.07,.87,.67,8.12-6.69,5.45-18.14-2.68-23.45Z"></path>
                                        <path class="cls-1" d="M54.08,266.7c-.25,2.99-1.65,5.42-4.24,6.95-2.49,1.46-5.23,.33-7.75,1.17-.62,.21-.83,.95-.38,1.44,2.44,2.66,7.53,1.37,10.22-.21,3.26-1.93,4.55-5.73,4.47-9.34-.04-1.51-2.19-1.47-2.32,0Z"></path>
                                        <path class="cls-1" d="M39.33,265.48c-1.77-.05-3.51-.13-5.25-.41-1.54-.25-2.89-1.08-4.41-1.34-.79-.14-1.76,.7-1.17,1.51,2.32,3.21,7.35,2.81,10.83,2.7,1.59-.05,1.59-2.4,0-2.46Z"></path>
                                        <path class="cls-1" d="M31.38,253.43c-2.25-.09-4.33-.56-5.92-2.25-1.53-1.63-.98-4.33-2.54-5.85-.27-.26-.72-.28-.99,0-1.89,1.97-.34,5.88,1.14,7.67,2.05,2.47,5.23,3.13,8.3,3.11,1.73-.02,1.72-2.62,0-2.69Z"></path>
                                        <path class="cls-1" d="M49.84,251.7c-.79-1.68-.69-3.71-1.89-5.27-.47-.62-1.34-.4-1.43,.39-.35,2.93-.31,5.74,1.65,8.07,.48,.57,1.3,.52,1.9,.24,3.84-1.76,7.13-5.16,5.46-9.64-1.48-3.97-5.79-6.2-9.77-6.67-4.64-.54-8.68,2.82-10.43,6.93-1.26-1.85-2.3-3.76-3.01-5.92-.77-2.35-.22-4.92-1.09-7.17-.22-.55-1-.94-1.45-.38-3.47,4.18,.76,11.67,3.4,15.23,.39,.52,.96,.66,1.46,.56-1.23,6.6,5.88,11.39,11.29,12.97,1.68,.49,2.34-2.04,.72-2.6-4.44-1.5-10.02-5.34-8.77-10.73,.83-3.59,4.38-5.95,7.87-5.75,2.54,.15,5.13,1.8,6.48,3.91,1.64,2.57-.25,4.55-2.39,5.82Z"></path>
                                        <path class="cls-1" d="M40.99,226.95c0-.54-.56-.79-1.01-.58-4.3,2.04-3.48,8.74-1.84,12.21,.76,1.62,3.07,.21,2.38-1.39-.88-2.02-.99-4-.49-6.13,.33-1.41,.98-2.63,.97-4.11Z"></path>
                                        <path class="cls-1" d="M361.81,227.21c-6.08-2.9-12.82,2.57-14.71,8.31-.5,1.53,1.83,2.49,2.58,1.09,1.24-2.29,2.65-4.29,4.85-5.75,2.02-1.34,4.74-1.66,7.08-2.09,.71-.13,.86-1.25,.21-1.56Z"></path>
                                        <path class="cls-1" d="M375.29,237.8c.67,.02,1.17-.79,.79-1.37-3.28-5.04-12.36-3.78-17.08-1.97-1.77,.67-1.03,3.53,.79,2.87,2.48-.89,4.91-1.3,7.56-1.22,2.81,.08,5.22,1.63,7.95,1.69Z"></path>
                                        <path class="cls-1" d="M373.01,243.65c-1.53-.92-2.86,1.41-1.39,2.38,2.55,1.68,4.45,3.8,5.94,6.46,1.25,2.23,1.61,4.75,3.19,6.78,.36,.45,1.06,.14,1.21-.32,1.85-5.86-4.4-12.55-8.95-15.3Z"></path>
                                        <path class="cls-1" d="M371.13,254.48c1.38,2.04,2.25,4.17,2.78,6.57,.43,1.92-.02,3.99,.69,5.85,.19,.5,.79,.73,1.21,.32,3.62-3.56,.11-10.89-2.3-14.13-1.04-1.39-3.39-.11-2.38,1.39Z"></path>
                                        <path class="cls-1" d="M366.14,265.05c.75,2.82,.51,5.25-.83,7.85-1.21,2.37-3.37,4-4.8,6.22-.44,.69,.3,1.81,1.13,1.47,6.2-2.51,8.87-10.11,6.9-16.21-.49-1.52-2.83-.9-2.41,.67Z"></path>
                                        <path class="cls-1" d="M356.52,272.78c-1.91,2.17-4.02,3.95-6.59,5.29-2.43,1.27-5.13,.92-7.66,1.72-.73,.23-.84,1.17-.21,1.58,5.7,3.7,12.97-2.62,16.23-6.82,.96-1.24-.69-3-1.77-1.77Z"></path>
                                        <path class="cls-1" d="M344.09,274.24c-2.58,.77-5.12,1.21-7.82,1.1-2.88-.12-4.8-2.13-7.44-2.58-.69-.12-1.35,.41-1.15,1.15,.69,2.68,3.81,3.75,6.26,4.32,3.61,.84,7.5-.04,10.93-1.17,1.78-.59,1.05-3.37-.78-2.83Z"></path>
                                        <path class="cls-1" d="M329.81,258.87c-.27-.09-.7,0-.88,.23-1.46,1.88,.6,4.41,2.04,5.7,1.98,1.76,4.61,2.71,7.14,3.34,1.87,.48,2.66-2.38,.8-2.89-2.05-.56-4.07-1.3-5.73-2.67-1.29-1.06-1.8-3.16-3.38-3.72Z"></path>
                                        <path class="cls-1" d="M337.08,239.1c-2.02,1.09-1.8,3.77-1.78,5.73,.01,1.59,2.45,1.59,2.47,0,.02-1.63,.16-3.16,.62-4.73,.22-.77-.64-1.36-1.3-1Z"></path>
                                        <path class="cls-1" d="M353.25,253.61c.81-.86,0-2.19-1.12-1.94-3.01,.67-6.39,3.42-6.42,6.73-.04,2.71,2.6,4.36,4.83,5.18,5.42,1.98,13.57,.12,14.48-6.45,1.33-9.57-8.62-15.97-16.98-12.09-3.91,1.81-7.06,5.12-8.17,9.33-1.29,4.92,1.47,9.41,5.2,12.37,.54,.43,1.1,.81,1.67,1.19,1.55,1.04,2.91-1.41,1.44-2.47-3.16-2.27-6.05-5.6-5.42-9.76,.48-3.13,2.82-5.64,5.42-7.24,6.36-3.9,14.05,.18,13.76,7.84-.17,4.63-6.14,5.23-9.56,4.41-1.22-.29-3.01-.91-3.37-2.28-.44-1.71,3.35-3.88,4.24-4.83Z"></path>
                                        <path class="cls-1" d="M172.43,49.71c-.1,.31-.23,.6-.32,.91-.41,1.39,1.43,2.38,2.36,1.52,3.95,4.64,8.32,9.18,12.94,13.3,.06,.57,.05,1.16,.15,1.72,.18,.97,1.45,.74,1.74,0,0-.01,0-.03,0-.04,.5,.42,1.02,.82,1.52,1.25-.04,1.18-.1,2.36-.09,3.52,0,.62,.96,.97,1.25,.34,.31-.73,.55-1.5,.83-2.24,1.23,.96,2.46,1.87,3.72,2.72-.12,.16-.24,.32-.35,.47-.98,1.32,1.07,2.67,2.17,1.68,.21-.19,.41-.41,.62-.6,1.04,.32,2.05-.78,1.8-1.75,10.78-10.6,19.55-24.94,26.26-38.1,3.68-7.21,10.89-23.35,4.01-30.82-11.77-12.77-31.63,11.83-33.84,23.44-.44-.86-.95-1.73-1.52-2.58,.17-.84-.43-1.4-1.11-1.52-9.22-12.38-29.7-22.41-36.02-4.45-3.38,9.61,5.44,20.47,10.82,27.41,.99,1.27,2.01,2.55,3.06,3.84Zm18.72,13.88c-.2-.18-.4-.35-.59-.53,1.02-4.18,1.47-8.64,2.47-12.76,.24-.99,.56-1.96,.83-2.94-1.23,5.4-2.2,10.87-2.71,16.23Zm8.5-35.09c1.67-7.84,6.06-13.88,12.05-19.05,2.08-1.8,4.47-3.24,7-4.32-2.53,2.99-4.58,6.35-7.35,9.17-.26,.26-.35,.55-.36,.83-3.52,11.78-7.27,23.55-10.86,35.33,1.53-8.44,2.21-17.15,3.2-25.3,.13-1.12-1.79-1.38-1.97-.27-.31,1.93-.67,3.84-1,5.75-.31-.6-1.23-.8-1.76-.32-.05-.05-.06-.13-.11-.18-.08-.23-.14-.47-.23-.72,.6,.04,1.24-.24,1.38-.93Zm-2.6,37.81c1.21-1.73,2.3-3.56,3.3-5.44,.32,.02,.65-.07,.85-.42,6.41-11.22,8.59-24.93,13.36-36.92,.64-1.6-1.93-2.27-2.57-.7-.23,.56-.45,1.16-.68,1.73,.66-2.93,1.34-5.82,2.09-8.6,3.09-3.17,6.57-7.06,7.44-11.5,0-.04-.01-.07-.01-.11,.4-.13,.79-.29,1.19-.4,8.92-2.47,8.49,8.34,7.63,13.84-1.92,12.25-8.6,23.19-16.26,33.43,1.42-3.39,2.67-6.85,3.84-10.36,.29,0,.59-.06,.78-.34,3.71-5.48,6.28-11.82,9.19-17.75,.64-1.31-1.3-2.47-1.97-1.15-1.68,3.29-3.49,6.56-5.16,9.9,2.26-8,4.2-16.09,6.29-23.92,.4-1.47-1.84-2.08-2.27-.63-5.76,19.45-11.23,38.37-20.27,56.45-1.83,2.28-3.62,4.52-5.34,6.75-1.07-.94-2.12-1.9-3.18-2.86,.15-.33,.25-.68,.4-1.02,.25,.45,1.01,.55,1.38,.03Zm-2.46-37.93c.47,.87,.87,1.75,1.23,2.64-3.12,8.45-7.77,19.2-8.49,29-.81-.76-1.64-1.52-2.44-2.29,2.07-3.18,3.03-8.04,4.11-11.11,2.11-5.99,3.9-12.11,5.59-18.24Zm-5.31-7.26c-2.76,7.69-5.81,15.25-8.48,22.98-.52,1.51-1.88,4.49-.93,6.12,.87,1.47,2.29,.16,2.56-.93,.04-.16,0-.28-.03-.4,.03-.04,.06-.06,.08-.11,.38-.69,.56-1.51,.79-2.26,.86-2.86,1.81-5.69,2.76-8.53,1.68-4.98,3.31-9.97,4.91-14.98,.6,.73,1.17,1.47,1.7,2.23-1.86,6.29-3.95,12.49-6.08,18.7-1.08,3.15-3.42,7.24-4.54,10.99-2.03-2.05-4.03-4.14-5.94-6.3,1.55-3.68,2.84-7.46,3.99-11.29,.01-.03,.02-.05,.04-.07,0-.01,0-.02,0-.03,1.09-3.61,2.14-7.23,3.39-10.79,.47-1.34-1.62-1.88-2.11-.58-2.14,5.67-3.96,11.46-6.11,17.12-.53,1.01-1.02,2.04-1.48,3.09h-.01c4.24-9.45,4.04-21.8,4.83-31.85,.02-.28-.1-.45-.22-.63,3.99,1.58,7.76,4.28,10.88,7.52Zm-21.76-7.18c-1.57,6.06-3.19,13.62-2.38,20.23-.02-.03-.04-.05-.05-.08-5.52-9.12-5.13-24.52,9.35-21.71,.98,.19,1.95,.5,2.92,.83-.48,.09-.94,.39-1,1.01-.61,5.78-1.29,11.54-2.13,17.29-.6,4.13-1.69,8.2-2.21,12.33-1.64-2.06-3.22-4.16-4.7-6.36,.74-2.79,.68-5.68,.77-8.57,.15-4.84,.51-9.65,1.48-14.4,.27-1.32-1.7-1.89-2.04-.56Z"></path>
                                        <path class="cls-1" d="M172.28,38.53c1.5-3.11,1.54-6.79,1.92-10.19,.46-4.02,.6-8.08,.57-12.12-.01-1.61-2.46-1.61-2.5,0-.1,3.54-.4,7.05-.82,10.56-.44,3.77-1.51,7.78-.76,11.54,.14,.72,1.27,.87,1.59,.21Z"></path>
                                        <path class="cls-1" d="M30.26,132.16c6.07,5.8,15.68,4.55,23.26,3.56,6.94-.9,17.92-2.07,23.85-6.65,.87-.14,1.64-.87,1.31-1.95-3.55-11.41-8.43-22.52-13.68-33.24-3.66-7.47-8.19-17.16-17.22-19.09-12.48-2.67-2.42,26.54,.76,32.84-.91,.22-1.86,.49-2.86,.8-.52-.13-1.09,.08-1.42,.48-2.55,.85-5.24,1.91-7.77,3.22-.09-.11-.18-.21-.27-.31-.97-1.09-2.41,.31-1.8,1.45-7.57,4.47-12.42,11-4.14,18.91Zm15.63-41.15c-.8-3.23-1.26-6.52-1.14-9.85,3.5,6.2,7.2,13.07,11.43,19.48-2.66-3.26-5.35-6.5-8.04-9.73-.87-1.04-2.22,.1-1.96,1.2-.1-.37-.2-.73-.29-1.09Zm.31,1.18c.05,.15,.12,.29,.23,.43,4.62,5.74,9.22,11.5,13.71,17.36,1.55,2.03,3.01,4.15,4.5,6.28-.84-.98-1.67-1.95-2.45-2.95-3.02-3.82-5.94-7.72-9.13-11.41-.96-1.12-2.52,.49-1.61,1.6,.83,1.01,1.64,2.08,2.45,3.19-1.01-.58-2.51,.47-1.72,1.61,4.48,6.37,9.4,15.33,16.5,19.06,.75,.39,1.86-.47,1.26-1.26-.51-.69-1.11-1.3-1.67-1.94,.48,.37,.95,.78,1.46,1.11,.62,.4,1.32-.29,1.13-.92,.55,.62,1.06,1.26,1.63,1.84,.76,.76,1.75-.2,1.38-1.07-1.88-4.44-4.9-8.45-7.96-12.31,.85,.84,1.69,1.69,2.59,2.46,.77,.66,1.93-.16,1.43-1.1-3.11-5.77-7.73-10.9-11.53-16.25-4.29-6.05-8.28-12.31-12.15-18.64-.22-.36-.53-.5-.85-.52,2.08-2.94,8.59,2.85,10.02,4.74,9.17,12.13,15.1,28.62,19.68,43.13-3.77,1-7.5,2.07-11.22,3.08,.03-.12,.05-.24,.01-.37-1.09-3.58-3.83-6.55-5.92-9.61-2.38-3.49-4.49-7.13-6.28-10.95-.01-.16-.04-.33-.1-.49,.21-.39,.26-.88-.03-1.39-2.52-4.6-4.08-9.65-5.38-14.71Zm3.56,18.21c1.71,3.7,3.71,7.24,5.91,10.68,1.99,3.12,3.99,6.7,6.98,8.96-1.04,.28-2.09,.59-3.14,.84-1.23-3.09-3.45-5.91-5.14-8.74-2.18-3.66-4.37-7.31-6.6-10.94,.67-.26,1.32-.54,1.98-.82Zm-4.53,1.78c2.24,3.8,4.37,7.66,6.58,11.48,.86,1.5,1.72,3.1,2.66,4.64-1.5-1.95-3.32-3.75-4.68-5.7-2.11-3.02-3.88-6.22-5.44-9.56-.09-.18-.21-.3-.35-.4,.41-.15,.82-.31,1.23-.45Zm-3.11,1.17c-.05,.18-.06,.39,.03,.61,1.45,3.51,3.12,6.88,5.12,10.11,.12,.19,.27,.41,.39,.62-.79-.76-1.55-1.51-2.21-2.26-2.24-2.55-4.46-5.11-6.69-7.68,1.1-.51,2.23-.97,3.36-1.4Zm-5.99,2.71c.1-.06,.21-.1,.31-.15,2.29,2.88,4.54,5.79,6.88,8.64,2.16,2.64,4.78,6.25,7.94,8.03-.68,.09-1.34,.25-2.02,.32,.11-.29,.14-.61-.02-.93-1.32-2.54-4.38-4.42-6.47-6.35-2.85-2.62-5.64-5.29-8.42-7.98-.13-.13-.27-.2-.41-.26,.82-.53,1.61-.98,2.22-1.33Zm-4.1,2.65c.01,.29,.11,.59,.37,.86,2.69,2.78,5.38,5.55,8.15,8.25,1.82,1.78,3.95,4.15,6.36,5.27-1.62,.09-3.25,.11-4.91,0,.17-.22,.27-.5,.2-.82-.51-2.45-3.2-4.44-4.82-6.25-2.02-2.26-4.11-4.45-6.26-6.59,.29-.25,.6-.49,.91-.73Zm-2.68,2.92c1.77,1.93,3.48,3.91,5.22,5.88,1.47,1.66,3.16,4.25,5.26,5.4-.35-.04-.68-.04-1.03-.09-4.22-.6-8.32-3.87-9.8-7.9-.44-1.18-.2-2.28,.36-3.3Z"></path>
                                        <path class="cls-1" d="M55.19,85.25c-.71-1.23-2.62-.12-1.9,1.11,3.99,6.91,8.12,14.79,13.38,20.81,.46,.53,1.4-.03,1.17-.68-2.63-7.58-8.62-14.33-12.64-21.24Z"></path>
                                        <path class="cls-1" d="M293.66,148.42c0,1.08,1.58,1.6,2.1,.57,.19-.37,.32-.77,.49-1.14,.28,.74,.98,1.36,1.97,1.19,16.1-2.61,33.07-4.25,48.15-10.89,6.25-2.75,18.48-7.29,18.15-16-.49-13.08-24.76-9.67-34.18-5.2,3.21-7.03,7.68-16.22,3.6-23.01-4.23-7.04-9.81-9.37-17.36-5.5-7.73,3.96-11.79,13.39-14.52,21.44-.07,.09-.16,.17-.22,.25-.17,.22-.16,.48-.1,.72-.18,.54-.37,1.1-.54,1.62-3.44,10.77-7.58,24.59-7.55,35.94Zm60.8-30.96c1.18,.45,2.21,1,3.06,1.63-2.99,2.37-6.08,4.59-9.09,6.92-3.16,2.45-7.2,5.17-8.96,8.87-.48,1,.56,2.39,1.65,1.66,3.12-2.08,5.68-5.07,8.63-7.42,3.24-2.59,6.58-5.06,9.81-7.68,.89,1.83,.51,4.01-1.73,6.36,.16-1.18-.98-2.45-2.18-1.57-4.3,3.15-9.15,5.67-12.7,9.73-.12,.14-.16,.29-.18,.43-4.7,1.81-9.61,3.21-14.64,4.33,2.32-1.57,4.55-3.31,6.75-4.9,4.97-3.59,9.73-7.47,14.52-11.29,.83-.67,.27-1.89-.56-2.21,1.72-1.3,3.43-2.58,5.14-3.75,.41-.28,.54-.7,.47-1.08Zm-52.01,4.92c3.27-2.05,6.25-4.73,9.17-7.16,4.82-4,9.42-8.22,13.84-12.67,1.09-1.1-.58-2.77-1.69-1.69-4.06,3.93-8.33,7.59-12.7,11.16-2.52,2.05-5.25,4.01-7.8,6.14,.53-2.6,1.13-5.15,1.89-7.56,0-.02,.01-.03,.02-.05,.45-.27,.89-.58,1.33-.88-.59,.81-1.14,1.63-1.55,2.52-.34,.76,.4,1.74,1.22,1.22,3.41-2.13,6.11-5.48,9.08-8.17,3.47-3.14,6.98-6.24,10.27-9.58,.33-.33,.41-.7,.35-1.06,.43-.28,.86-.58,1.3-.85,1.28-.77,.15-2.71-1.16-2-4.53,2.45-8.72,5.35-12.78,8.51-1.86,1.46-3.92,2.91-5.88,4.47,3.16-7.14,8.29-14.34,16.1-15.27,13.15-1.57,8.09,15.48,6.36,20.38-.71,2.02-1.53,3.99-2.33,5.97-.05,0-.07-.03-.12-.02-4.76,.66-9.77,2.43-14.61,4.71,.23-.19,.46-.38,.69-.56,5.61-4.49,11.05-9.17,16.14-14.26,1.31-1.3-.69-3.3-2.02-2.02-4.65,4.5-9.58,8.66-14.62,12.71-3.49,2.8-7.5,5.43-10.93,8.49,.14-.83,.28-1.67,.43-2.49Zm15.94,.48c.48-.24,.68-.62,.73-1.01,2.59-1.04,5.11-2.2,7.45-3.64-.12,.34-.27,.66-.39,1-.26,.77,.11,1.29,.64,1.54-8.36,3.12-16.43,8.15-23.77,12.6-1.48,.9-.15,3.19,1.36,2.32,9.92-5.77,20.72-9.6,30.69-15.12,1.15-.63,.34-2.26-.85-2.02-.44,.09-.87,.23-1.3,.33,4.41-2.02,9.07-2.79,14.12-2.73,1.94,.02,3.82,.27,5.51,.72-1.3,.79-2.56,1.62-3.84,2.44-.1-.11-.22-.18-.4-.12-2.58,.9-5.11,1.93-7.61,3.02-.11-.07-.23-.11-.35-.08-13,2.63-25.68,10.18-38.02,15.01-1.68,.66-.96,3.38,.75,2.73,3.74-1.43,7.75-2.82,11.8-4.27-.79,.43-1.58,.84-2.37,1.27-2.85,1.46-5.69,2.91-8.53,4.39-1.63,.86-.2,3.21,1.43,2.45,10.81-5.09,21.48-10.79,31.85-16.84-.05,.03-.11,.07-.15,.1-5.88,4.01-12.35,7.39-17.97,11.73-.78,.6-.38,2.04,.72,1.7,2.24-.68,4.42-1.64,6.57-2.7-2.18,1.42-4.3,2.91-6.21,4.61-7.78,1.36-15.59,2.33-22.93,3.52-.1,.02-.15,.06-.24,.09,1.73-4.33,2.8-9.11,3.69-13.99,5.99-2.8,11.75-6.01,17.62-9.05Z"></path>
                                        <path class="cls-1" d="M302.26,184.74c-3.25,.97-2.54-3.55-3.85-5.15-.32-.39-.95-.32-1.28,0-1.79,1.7-1.04,5.28,.52,6.96,1.47,1.57,3.47,1.88,5.5,1.43,3.79-.85,7.09-5.31,4.04-8.67-4.34-4.8-12.64-5.3-17.38-.99-2.21,2.01-2.75,4.99-2.36,7.81,.16,1.19,.82,3.08,1.78,4.55-20.23,13.19-40.28,38.09-47.41,60.78-.44,1.41,1.8,2.39,2.41,1.01,10.97-24.84,28.51-41.04,46.76-60.05,.74,.39,1.55,.48,2.44-.04,.48-.28,.82-.83,.8-1.39-.05-1.44-1.54-2.31-2.27-3.47-.19-.29-.43-.45-.68-.54-1-2.54-.93-5.2,1.85-7.08,3.56-2.41,8.37-1.03,11.41,1.52,1.65,1.38-1.04,2.95-2.28,3.32Z"></path>
                                        <path class="cls-1" d="M147.47,279.33c.95,1.5,3.27,.16,2.39-1.4-8-14.17-21.56-27.26-36.56-33.8-.97-.42-1.67,.77-.82,1.4,13.39,10.12,25.92,19.33,35,33.79Z"></path>
                                        <path class="cls-1" d="M109.21,290.45c-1.19-.2-2.14,1.49-.88,2.1,11.45,5.52,25.69,4.74,33.58,16.36,.65,.97,2.2,.1,1.59-.92-7.07-11.76-21.53-15.37-34.28-17.54Z"></path>
                                        <path class="cls-1" d="M281.16,292.5c-6.63-1-14.89,3.63-20.37,6.97-6.23,3.82-11.32,9.38-13.09,16.56-.44,1.78,2.2,2.49,2.72,.75,2.12-6.98,7.35-11.7,13.43-15.37,5.52-3.33,12.13-3.87,17.56-6.93,.75-.43,.7-1.85-.26-1.99Z"></path>
                                        <path class="cls-1" d="M103.41,278.44c-5.02-4.37-14.85-1.23-16.92,4.8-2.56,7.48,5.7,14.48,12.48,14.51,1.59,0,1.55-2.33,0-2.44-4.99-.34-10.46-5.34-9.64-10.69,.71-4.62,8.87-6.66,12.22-3.74,2.13,1.85,2.27,5.62,1.18,8.06-1.54,3.43-3.92-1.67-5.07-3.02-.52-.6-1.7-.14-1.62,.67,.44,4.41,5.21,9.63,8.88,4.74,2.73-3.63,1.81-10-1.51-12.89Z"></path>
                                        <path class="cls-1" d="M107.7,179.39c3.55,3.42,7.07,6.89,10.47,10.47,.89,.93,2.12-.41,1.38-1.37-3.08-3.91-6.25-7.66-9.73-11.21-3.03-3.1-6.38-6.96-10.36-8.81-.8-.37-1.88,.44-1.31,1.31,2.42,3.68,6.39,6.56,9.55,9.62Z"></path>
                                        <path class="cls-1" d="M230.13,163.05c-.44,1.14,1.46,1.94,1.97,.83,7.3-15.67,19.01-27.25,29.81-40.37,1.08-1.31-.55-2.95-1.86-1.86-12.84,10.79-23.95,25.74-29.93,41.4Z"></path>
                                        <path class="cls-1" d="M273.2,116.89c-3.01,2.5-4.17,7.44-.65,10.02,3.02,2.22,7.44,.11,9.59-2.28,4.34-4.82,4.27-13.68-2.25-16.39-5.12-2.13-11.87-.51-15.75,3.35-5.62,5.57-1.11,12.84,3.81,16.95,1.36,1.13,3.32-.74,1.97-1.98-3.27-3-7.27-7.69-4.16-12.13,2.23-3.18,7.01-4.28,10.65-3.96,4.34,.38,6.26,3.75,5.55,7.84-.56,3.23-2.54,6.42-6.14,6.53-4.16,.12-1.56-4.98-.95-6.96,.32-1.04-.96-1.58-1.69-.98Z"></path>
                                        <path class="cls-1" d="M178.18,117.61c1.65-13.09-1.3-27.25-8.78-38.27-.6-.89-2.17-.36-1.8,.76,4.13,12.76,8.85,23.77,9.21,37.51,.02,.91,1.26,.85,1.37,0Z"></path>
                                        <path class="cls-1" d="M223.93,84.81c0,1.65,2.47,1.63,2.55,0,.6-11.8,5.33-21.47,8.5-32.57,.28-.99-1.02-1.41-1.56-.66-6.64,9.17-9.52,22.07-9.49,33.23Z"></path>
                                        <path class="cls-1" d="M86.05,145.32c-4.01,0-4.01,6.21,0,6.21s4.01-6.21,0-6.21Z"></path>
                                        <path class="cls-1" d="M69.15,142.55c-3.72,0-3.72,5.78,0,5.78s3.73-5.78,0-5.78Z"></path>
                                        <path class="cls-1" d="M67.16,299.66c-3.64,0-3.64,5.65,0,5.65s3.65-5.65,0-5.65Z"></path>
                                        <path class="cls-1" d="M44.3,302.24c-2.89,0-2.89,4.47,0,4.47s2.89-4.47,0-4.47Z"></path>
                                        <path class="cls-1" d="M67.16,286.26c.87,0,.87-1.34,0-1.34s-.86,1.34,0,1.34Z"></path>
                                        <path class="cls-1" d="M55.24,152.26c2.38,0,2.38-3.7,0-3.7s-2.39,3.7,0,3.7Z"></path>
                                        <path class="cls-1" d="M211.58,139.39c3.62,2.07,6.66-.97,4.59-4.59-2.75-4.82-9.41,1.84-4.59,4.59Z"></path>
                                        <path class="cls-1" d="M220.24,127.83c-2.2,0-2.2,3.42,0,3.42s2.21-3.42,0-3.42Z"></path>
                                        <path class="cls-1" d="M288.82,100.26c3.26,0,3.26-5.06,0-5.06s-3.26,5.06,0,5.06Z"></path>
                                        <path class="cls-1" d="M319.63,173.91c-4.3,.22-4.3,6.46,0,6.68,1.13,.06,1.99-.04,3.01-.57,2.09-1.09,2.09-4.44,0-5.53-1.03-.54-1.89-.63-3.01-.57Z"></path>
                                        <path class="cls-1" d="M311.68,169.89c3.33,0,3.33-5.15,0-5.15s-3.32,5.15,0,5.15Z"></path>
                                        <path class="cls-1" d="M315.66,231.87c1.22,0,1.22-1.9,0-1.9s-1.22,1.9,0,1.9Z"></path>
                                        <path class="cls-1" d="M287.71,281.3c.05-.07,.1-.13,.14-.2,.56-.76,.56-2.19,0-2.95-.05-.07-.09-.13-.14-.21-1.84-2.56-6.19-1.85-6.19,1.68s4.35,4.24,6.19,1.68Z"></path>
                                        <path class="cls-1" d="M287.83,293.84c-3.47,0-3.47,5.37,0,5.37s3.46-5.37,0-5.37Z"></path>
                                        <path class="cls-1" d="M296.77,284.94c-3.4,0-3.4,5.28,0,5.28s3.41-5.28,0-5.28Z"></path>
                                        <path class="cls-1" d="M314.66,294.14c-3.08,0-3.08,4.78,0,4.78s3.08-4.78,0-4.78Z"></path>
                                        <path class="cls-1" d="M147.67,58.39c4.39,0,4.39-6.8,0-6.8s-4.39,6.8,0,6.8Z"></path>
                                        <path class="cls-1" d="M134.75,45.25c2.82,0,2.82-4.38,0-4.38s-2.82,4.38,0,4.38Z"></path>
                                        <path class="cls-1" d="M242.1,46.59c3.26,0,3.26-5.06,0-5.06s-3.27,5.06,0,5.06Z"></path>
                                        <path class="cls-1" d="M329.57,156.99c-4.32,0-4.32,6.71,0,6.71s4.33-6.71,0-6.71Z"></path>
                                        <path class="cls-1" d="M322.61,162.65c-3.44,0-3.44,5.34,0,5.34s3.44-5.34,0-5.34Z"></path>
                                        <path class="cls-1" d="M334.54,179.59c3.03,0,3.03-4.69,0-4.69s-3.02,4.69,0,4.69Z"></path>
                                        <path class="cls-1" d="M345.48,159.53c2.78,0,2.78-4.32,0-4.32s-2.78,4.32,0,4.32Z"></path>
                                        <path class="cls-1" d="M321.62,233.05c4.03,0,4.03-6.24,0-6.24s-4.03,6.24,0,6.24Z"></path>
                                        <path class="cls-1" d="M308.7,238.86c-3.86,0-3.86,6,0,6s3.87-6,0-6Z"></path>
                                        <path class="cls-1" d="M309.69,223.7c-2.9,0-2.9,4.51,0,4.51s2.9-4.51,0-4.51Z"></path>
                                        <path class="cls-1" d="M83.07,225.53c-3.11,0-3.11,4.81,0,4.81s3.1-4.81,0-4.81Z"></path>
                                        <path class="cls-1" d="M38.34,220.32c-2.14,0-2.14,3.32,0,3.32s2.14-3.32,0-3.32Z"></path>
                                        <path class="cls-1" d="M26.41,291.36c-2.82,0-2.82,4.38,0,4.38s2.82-4.38,0-4.38Z"></path>
                                        <path class="cls-1" d="M34.36,281.94c-3.42,0-3.42,5.31,0,5.31s3.42-5.31,0-5.31Z"></path>
                                        <path class="cls-1" d="M143.7,152.96c-3.13,0-3.13,4.85,0,4.85s3.13-4.85,0-4.85Z"></path>
                                        <path class="cls-1" d="M171.66,258.61c-2.02,.56-3,2.96-1.94,4.76,1.22,2.09,4.39,2.13,5.6,0,1.39-2.44-.81-5.55-3.67-4.76Z"></path>
                                        <path class="cls-1" d="M175.51,246.39c-3.13,0-3.13,4.84,0,4.84s3.13-4.84,0-4.84Z"></path>
                                        <path class="cls-1" d="M163.58,256.63c-1.46,0-1.46,2.27,0,2.27s1.46-2.27,0-2.27Z"></path>
                                        <path class="cls-1" d="M209.3,288.67c-3.73,0-3.73,5.78,0,5.78s3.73-5.78,0-5.78Z"></path>
                                        <path class="cls-1" d="M210.3,301.06c-3.13,0-3.13,4.84,0,4.84s3.12-4.84,0-4.84Z"></path>
                                        <path class="cls-1" d="M247.07,215.73c-2.92,0-2.92,4.53,0,4.53s2.92-4.53,0-4.53Z"></path>
                                        <path class="cls-1" d="M201.35,205.27c2.8,0,2.8-4.35,0-4.35s-2.81,4.35,0,4.35Z"></path>
                                        <path class="cls-1" d="M226.98,240.86v.84c0,4.13,6.4,4.13,6.4,0v-.84c0-4.12-6.4-4.12-6.4,0Z"></path>
                                        <path class="cls-1" d="M182.47,168.13c-4.07,0-4.07,6.31,0,6.31s4.06-6.31,0-6.31Z"></path>
                                        <path class="cls-1" d="M174.51,168.35c2.63,0,2.63-4.07,0-4.07s-2.63,4.07,0,4.07Z"></path>
                                        <path class="cls-1" d="M147.67,168.26c2.51,0,2.51-3.88,0-3.88s-2.5,3.88,0,3.88Z"></path>
                                        <path class="cls-1" d="M146.68,14.97c2.22,0,2.22-3.44,0-3.44s-2.22,3.44,0,3.44Z"></path>
                                        <path class="cls-1" d="M133.76,22.61c3.1,0,3.1-4.82,0-4.82s-3.11,4.82,0,4.82Z"></path>
                                        <path class="cls-1" d="M23.43,157.54c2.78,0,2.78-4.31,0-4.31s-2.79,4.31,0,4.31Z"></path>
                                        <path class="cls-1" d="M14.49,142.34c2.4,0,2.4-3.73,0-3.73s-2.41,3.73,0,3.73Z"></path>
                                        <path class="cls-1" d="M316.65,74.14c4.18,0,4.18-6.49,0-6.49s-4.19,6.49,0,6.49Z"></path>
                                        <path class="cls-1" d="M306.71,60.35c3.06,0,3.06-4.75,0-4.75s-3.07,4.75,0,4.75Z"></path>
                                        <path class="cls-1" d="M305.72,38.26c2.78,0,2.78-4.32,0-4.32s-2.78,4.32,0,4.32Z"></path>
                                        <path class="cls-1" d="M2.55,229.28c-3.41,0-3.41,5.28,0,5.28s3.41-5.28,0-5.28Z"></path>
                                        <path class="cls-1" d="M388.22,216.4c-3.35,0-3.35,5.19,0,5.19s3.34-5.19,0-5.19Z"></path>
                                        <path class="cls-1" d="M393.19,231.68c-2.87,0-2.87,4.44,0,4.44s2.87-4.44,0-4.44Z"></path>
                                        <path class="cls-1" d="M407.1,231.37c-3.26,0-3.26,5.07,0,5.07s3.26-5.07,0-5.07Z"></path>
                                      </svg>