<svg class="animate-zoom-in-out" id="Capa_1" data-name="Capa 1" xmlns="http://www.w3.org/2000/svg" viewBox="0 0 350.08 416.66">
                                <defs>
                                 
                                </defs>
                                <path class="cls-1" d="M260.01,132.47c.52,.35,2.1,.61,2.98-.46,11.63-19.23,16.1-28.11,16.1-28.11,.69-1.08-.29-4.36-1.01-3.27-12.26,18.64-15.63,24.97-16.98,26.32l-8.09-7.86c-.99-.96-2.54,.13-1.86,1.31,.74,1.26,2.84,7.96,8.86,12.07Z"></path>
                                <path class="cls-1" d="M348.45,382.9c-11.7-138.11-4.73-215.12-21.54-353.21-.42-3.32-4.04-3.5-3.91-.19,.03,.61,.08,1.21,.08,1.82-.26-.2-.53-.38-.88-.47-3.1-.8-6.17-1.53-9.26-2.2,3.76-.44,7.5-.89,11.2-1.5,3.38-.56,1.37-7.57-1.99-6.96-16.2,2.9-32.37,3.21-48.63,2.51-9.05-.85-18.08-1.4-27.11-1.84-7.44-.36-14.96-1.36-22.42-1.99-6.94-.58-13.06-.94-19.85-.31-13.91,1.3-28.63-1.81-42.8-3.25-23.15-2.37-46.29-4.75-69.44-7.12C65.5,5.49,39.11,2.78,12.73,.07c-2.03-.21-4.48-.12-5.22,2.2-1.58,4.91,6.32,12.91,2.73,15.34-.14-2.78-2.13-5.53-4.26-5.88,7.94,54.23,13.37,108.63,16.27,162.77C16.56,137.2,10.82,99.64,0,63.39c2.55,15.56,5.09,31.12,7.64,46.67,8,48.91,16.01,97.9,20.83,146.92,3.83,38.98,5.66,78.06,12.72,116.87,.54,2.98,2,6.86,4.21,6.57,2.43-.33,2.06-4.99,1.2-8.19-7.5-27.96-9.14-56.9-10.72-85.39-2.09-37.89-4.19-75.78-5.66-113.6-2.14-54.83-3.12-110.49-16.76-164.61,8.6-.09,17.26,.33,25.95,1.26,4.45,.47,8.91,1.08,13.38,1.82,2.66,.44,5.38,1.56,8.03,1.55,2.61,0,4.56-1.45,7.27-1.17,45.64,4.8,91.5,11.26,136.95,13.48,9.12,.45,18.24,.8,27.36,1.2,16.76,2.5,33.68,3.79,50.33,3.7,12.84,1.54,25.71,3.68,38.63,6.87,.84,.21,1.51-.04,2.01-.55,6.11,139.56,9.91,219.08,20.5,359.01,.08,1.31,.6,2.25,1.25,2.87,0,.32-.02,.64-.05,.97-.46-.39-.99-.68-1.67-.65-100.75,5.29-202.86-10.27-304.22-12.28-.04-.63-.1-1.3-.15-1.94-.49,2.73,.8,8.05,2.96,8.24,10.1,.9,16.06,1.85,24.28,2.79,2.39-.18,4.65,.08,6.78,.71,.45,.04,.85,.09,1.32,.13-.14,.04-.28,.11-.42,.15,.49,.17,.96,.37,1.44,.58,3.04-.36,5.88,0,8.52,.93,.46-.12,.91-.26,1.39-.35,3.22-.59,6.24-.34,9.04,.51,80.97,7.34,162.6,13.78,241.97,8.62-.11,.27-.19,.57-.22,.93-.01,.47-.05,.93-.06,1.39-.29,5.4,6.08,5.72,4.91,.26-.1-.48-.19-.95-.3-1.43-.12-.56-.38-1-.68-1.37,1.35-.1,2.69-.14,4.04-.25,.25-.02,.43-.14,.62-.22-.12,1.98-.3,3.95-.37,5.93-.17,4.95,5.2,6.14,5.23,1.17,.05-9.26,.03-18.74,.56-27.88,.09-1.46-.77-2.48-1.62-2.69ZM17.84,62.14c-1.45-11.02-3.25-22.02-5.47-32.99,.34-.21,.7-.39,1.03-.59,1.79,11.22,3.26,22.4,4.44,33.58Z"></path>
                                <path class="cls-1" d="M33.81,124.64c6.81,41.6,13.62,83.27,17.72,124.97,3.26,33.15,4.81,66.4,10.82,99.41,.46,2.53,1.7,5.84,3.58,5.58,2.06-.28,1.75-4.24,1.02-6.97-6.38-23.78-7.78-48.39-9.12-72.63-1.78-32.23-3.56-64.46-4.82-96.62-1.82-46.64-2.66-93.98-14.25-140.01,7.32-.07,14.68,.28,22.07,1.07,3.79,.4,7.58,.92,11.38,1.55,2.26,.37,4.58,1.33,6.83,1.32,2.22,0,3.87-1.24,6.19-.99,38.82,4.09,77.82,9.58,116.48,11.46,7.76,.38,15.51,.68,23.27,1.02,14.26,2.13,28.65,3.22,42.81,3.15,10.92,1.31,21.87,3.13,32.86,5.84,.71,.18,1.28-.03,1.71-.47,5.19,118.7,8.43,186.35,17.44,305.36,.07,1.11,.51,1.91,1.06,2.44,0,.27-.02,.54-.04,.82-.39-.34-.85-.58-1.42-.55-85.7,4.5-172.55-8.73-258.76-10.44-.04-.53-.09-1.11-.13-1.65-.42,2.32,.68,6.85,2.52,7.01,8.59,.77,13.66,1.57,20.65,2.37,2.03-.16,3.95,.07,5.77,.6,.38,.04,.72,.07,1.12,.11-.12,.03-.24,.09-.36,.12,.42,.15,.82,.32,1.22,.49,2.58-.31,5,0,7.25,.79,.39-.1,.77-.22,1.19-.3,2.74-.5,5.31-.29,7.69,.44,68.87,6.25,138.3,11.72,205.81,7.33-.09,.23-.16,.48-.19,.79-.01,.4-.04,.79-.05,1.18-.24,4.6,5.17,4.87,4.18,.22-.08-.41-.16-.81-.25-1.22-.1-.48-.32-.85-.58-1.17,1.15-.08,2.29-.12,3.43-.22,.21-.02,.36-.12,.53-.19-.1,1.68-.26,3.36-.31,5.05-.14,4.21,4.42,5.23,4.45,1,.05-7.88,.03-15.94,.48-23.71,.08-1.25-.65-2.11-1.38-2.29-9.95-117.47-4.02-182.98-18.32-300.43-.36-2.83-3.44-2.98-3.32-.16,.02,.52,.06,1.03,.07,1.55-.22-.17-.45-.32-.74-.4-2.63-.68-5.25-1.3-7.88-1.87,3.2-.38,6.38-.76,9.52-1.28,2.88-.47,1.16-6.44-1.7-5.92-13.78,2.47-27.54,2.73-41.36,2.13-7.7-.72-15.38-1.19-23.06-1.57-6.33-.31-12.72-1.16-19.07-1.69-5.9-.49-11.1-.8-16.89-.26-11.83,1.1-24.35-1.54-36.4-2.76-19.69-2.02-39.38-4.04-59.06-6.06-22.44-2.3-44.89-4.61-67.33-6.91-1.73-.18-3.81-.11-4.44,1.87-1.34,4.18,5.38,10.98,2.32,13.05-.12-2.37-1.81-4.7-3.62-5,6.75,46.13,11.37,92.4,13.84,138.45-4.84-31.73-9.72-63.68-18.92-94.51,2.16,13.23,4.33,26.47,6.49,39.7Zm4.02-68.82c.29-.18,.59-.33,.88-.5,1.52,9.54,2.77,19.05,3.78,28.56-1.23-9.37-2.76-18.73-4.66-28.06Z"></path>
                                <path class="cls-1" d="M89.95,113.44c8.11,1.36,136.3,2.07,144.48,2.04,1.55,0,2.41-2.6,.72-3.35-7.88-3.49-136.91-3.27-145.22-3.02-2.15,.06-1.98,4,.02,4.33Z"></path>
                                <path class="cls-1" d="M251.15,183.38c.74,1.26,2.84,7.96,8.86,12.07,.52,.35,2.1,.61,2.98-.46,11.63-19.23,16.1-28.11,16.1-28.11,.69-1.08-.29-4.36-1.01-3.27-12.26,18.64-15.63,24.97-16.98,26.32l-8.09-7.86c-.99-.96-2.54,.13-1.86,1.31Z"></path>
                                <path class="cls-1" d="M89.95,176.41c8.11,1.36,136.3,2.07,144.48,2.04,1.55,0,2.41-2.6,.72-3.35-7.88-3.49-136.91-3.27-145.22-3.02-2.15,.06-1.98,4,.02,4.33Z"></path>
                                <path class="cls-1" d="M251.15,246.36c.74,1.27,2.84,7.96,8.86,12.07,.52,.35,2.1,.61,2.98-.46,11.63-19.23,16.1-28.11,16.1-28.11,.69-1.08-.29-4.36-1.01-3.27-12.26,18.64-15.63,24.97-16.98,26.32l-8.09-7.86c-.99-.96-2.54,.13-1.86,1.31Z"></path>
                                <path class="cls-1" d="M89.95,239.39c8.11,1.36,136.3,2.07,144.48,2.04,1.55,0,2.41-2.6,.72-3.35-7.88-3.49-136.91-3.27-145.22-3.02-2.15,.06-1.98,4,.02,4.33Z"></path>
                                <path class="cls-1" d="M251.15,309.33c.74,1.27,2.84,7.96,8.86,12.07,.52,.35,2.1,.61,2.98-.46,11.63-19.23,16.1-28.1,16.1-28.1,.69-1.08-.29-4.36-1.01-3.27-12.26,18.64-15.63,24.97-16.98,26.32l-8.09-7.86c-.99-.96-2.54,.13-1.86,1.31Z"></path>
                                <path class="cls-1" d="M89.95,302.36c8.11,1.36,136.3,2.07,144.48,2.04,1.55,0,2.41-2.6,.72-3.35-7.88-3.49-136.91-3.27-145.22-3.02-2.15,.06-1.98,4,.02,4.33Z"></path>
                              </svg>