 <svg width="84.559204mm" height="116.875mm" viewBox="0 0 84.559204 116.875" version="1.1" id="svg5" xml:space="preserve" xmlns:inkscape="http://www.inkscape.org/namespaces/inkscape" xmlns:sodipodi="http://sodipodi.sourceforge.net/DTD/sodipodi-0.dtd" xmlns="http://www.w3.org/2000/svg" xmlns:svg="http://www.w3.org/2000/svg">
                        <sodipodi:namedview id="namedview7" pagecolor="#ffffff" bordercolor="#000000" borderopacity="0.25" inkscape:showpageshadow="2" inkscape:pageopacity="0.0" inkscape:pagecheckerboard="0" inkscape:deskcolor="#d1d1d1" inkscape:document-units="mm" showgrid="false"></sodipodi:namedview>
                        <defs id="defs2"></defs>
                        <g inkscape:label="Capa 1" inkscape:groupmode="layer" id="layer1" transform="translate(385.63459,-314.58926)">
                            <g id="g322" transform="translate(-74.06293,389.3933)">
                                <path style="fill:#aed2e9;stroke-width:0.264583" d="m -269.64428,41.937518 c 0.1819,-0.0734 0.47956,-0.0734 0.66146,0 0.1819,0.0734 0.0331,0.133453 -0.33073,0.133453 -0.3638,0 -0.51263,-0.06005 -0.33073,-0.133453 z m -15.8426,-25.423208 c -0.32911,-0.419645 -0.31975,-0.429004 0.0999,-0.0999 0.25466,0.199721 0.46302,0.408081 0.46302,0.463021 0,0.217763 -0.21727,0.0776 -0.56291,-0.363124 z m -1.05834,-1.322917 c -0.3291,-0.419645 -0.31975,-0.429003 0.0999,-0.0999 0.25466,0.199721 0.46302,0.40808 0.46302,0.463021 0,0.217762 -0.21727,0.07761 -0.56292,-0.363125 z m -1.05833,-1.322917 c -0.32911,-0.419645 -0.31975,-0.429003 0.0999,-0.0999 0.25466,0.199721 0.46302,0.40808 0.46302,0.463021 0,0.217763 -0.21728,0.07761 -0.56292,-0.363125 z m 37.07542,-1.488958 c 0,-0.05494 0.20836,-0.2633 0.46302,-0.463021 0.41964,-0.329107 0.429,-0.319749 0.0999,0.0999 -0.34564,0.44073 -0.56291,0.580887 -0.56291,0.363125 z m 1.4552,-1.752187 c 0.26339,-0.291042 0.53843,-0.529167 0.61119,-0.529167 0.0728,0 -0.0832,0.238125 -0.3466,0.529167 -0.26339,0.291041 -0.53842,0.529166 -0.61118,0.529166 -0.0728,0 0.0832,-0.238125 0.34659,-0.529166 z m 4.49792,-4.7625001 c 0.56839,-0.5820833 1.09297,-1.0583333 1.16573,-1.0583333 0.0728,0 -0.33276,0.47625 -0.90115,1.0583333 -0.56838,0.5820833 -1.09296,1.0583333 -1.16572,1.0583333 -0.0728,0 0.33275,-0.47625 0.90114,-1.0583333 z m 2.64583,-2.9104165 c 0.26339,-0.2910417 0.53843,-0.5291667 0.61119,-0.5291667 0.0728,0 -0.0832,0.238125 -0.3466,0.5291667 -0.26339,0.2910416 -0.53842,0.5291666 -0.61119,0.5291666 -0.0728,0 0.0832,-0.238125 0.3466,-0.5291666 z m 1.45521,-1.687396 c 0,-0.054941 0.20836,-0.2633001 0.46302,-0.46302083 0.41965,-0.32910725 0.42901,-0.31974894 0.0999,0.0998961 -0.34564,0.44072963 -0.56292,0.58088733 -0.56292,0.36312473 z m -15.08125,-22.2249994 c 0,-0.05494 0.20836,-0.2633 0.46302,-0.46302 0.41965,-0.329108 0.42901,-0.319749 0.0999,0.0999 -0.34564,0.440729 -0.56292,0.580887 -0.56292,0.363124 z m 27.80214,-2.964859 c 0.0127,-0.308227 0.0754,-0.37092 0.15985,-0.159854 0.0764,0.190995 0.067,0.419198 -0.0209,0.507119 -0.0879,0.08792 -0.15046,-0.06835 -0.13897,-0.347265 z m 0.26458,-1.852084 c 0.0127,-0.308226 0.0754,-0.370919 0.15985,-0.159853 0.0764,0.190995 0.067,0.419198 -0.0209,0.507119 -0.0879,0.08792 -0.15045,-0.06835 -0.13897,-0.347266 z m 0.30508,-2.491493 c 0,-0.509323 0.0545,-0.717683 0.121,-0.463021 0.0666,0.254661 0.0666,0.67138 0,0.926041 -0.0666,0.254662 -0.121,0.0463 -0.121,-0.46302 z m -24.36127,-1.852084 c 0,-0.363802 0.06,-0.51263 0.13345,-0.330729 0.0734,0.181901 0.0734,0.479557 0,0.661458 -0.0734,0.181902 -0.13345,0.03307 -0.13345,-0.330729 z m 0,-4.497916 c 0,-0.363802 0.06,-0.51263 0.13345,-0.330729 0.0734,0.181901 0.0734,0.479557 0,0.661458 -0.0734,0.181901 -0.13345,0.03307 -0.13345,-0.330729 z m 24.36127,-1.058333 c 0,-0.509323 0.0545,-0.717683 0.121,-0.463021 0.0666,0.254661 0.0666,0.67138 0,0.926041 -0.0666,0.254662 -0.121,0.0463 -0.121,-0.46302 z m -0.30508,-2.53559 c 0.0127,-0.308226 0.0754,-0.370919 0.15985,-0.159853 0.0764,0.190995 0.067,0.419198 -0.0209,0.507119 -0.0879,0.08792 -0.15045,-0.06835 -0.13897,-0.347266 z m -0.26458,-1.5875 c 0.0127,-0.308226 0.0754,-0.370919 0.15985,-0.159853 0.0764,0.190995 0.067,0.419198 -0.0209,0.507119 -0.0879,0.08792 -0.15046,-0.06835 -0.13897,-0.347266 z m -0.26458,-1.322916 c 0.0127,-0.308227 0.0754,-0.37092 0.15985,-0.159853 0.0764,0.190994 0.067,0.419197 -0.0209,0.507118 -0.0879,0.08792 -0.15045,-0.06835 -0.13896,-0.347265 z m -27.30672,-2.425348 c -0.32911,-0.419645 -0.31975,-0.429003 0.0999,-0.0999 0.25466,0.19972 0.46302,0.40808 0.46302,0.463021 0,0.217762 -0.21727,0.07761 -0.56291,-0.363125 z m -26.55688,-1.653646 c 0.71667,-0.727604 1.36256,-1.322917 1.43532,-1.322917 0.0728,0 -0.45407,0.595313 -1.17073,1.322917 -0.71667,0.727604 -1.36256,1.322917 -1.43532,1.322917 -0.0728,0 0.45407,-0.595313 1.17073,-1.322917 z m 9.3431,-4.943239 c 0.191,-0.07643 0.4192,-0.06703 0.50712,0.02087 0.0879,0.08792 -0.0684,0.150453 -0.34727,0.138965 -0.30822,-0.0127 -0.37092,-0.07539 -0.15985,-0.159851 z m 6.08542,0 c 0.19099,-0.07643 0.4192,-0.06703 0.50712,0.02087 0.0879,0.08792 -0.0684,0.150453 -0.34727,0.138965 -0.30823,-0.0127 -0.37092,-0.07539 -0.15985,-0.159851 z m -3.45138,-0.275595 c 0.47555,-0.05889 1.18992,-0.05767 1.5875,0.0027 0.39757,0.06037 0.008,0.108551 -0.86464,0.107067 -0.87312,-0.0016 -1.19841,-0.05088 -0.72286,-0.109765 z m 32.05596,-10.060853 -0.64143,-0.727604 0.7276,0.641433 c 0.40018,0.352789 0.72761,0.68021 0.72761,0.727604 0,0.207506 -0.21426,0.03862 -0.81378,-0.641433 z m -62.02476,-1.389062 c 0.26339,-0.291042 0.53842,-0.529167 0.61118,-0.529167 0.0728,0 -0.0832,0.238125 -0.3466,0.529167 -0.26339,0.291042 -0.53842,0.529167 -0.61118,0.529167 -0.0728,0 0.0832,-0.238125 0.3466,-0.529167 z m 58.44777,-2.182812 -0.50403,-0.595313 0.59532,0.504028 c 0.55944,0.473662 0.71576,0.686597 0.50402,0.686597 -0.0502,0 -0.31809,-0.267891 -0.59531,-0.595312 z m -55.66965,-0.298333 c 0,-0.05494 0.20836,-0.263301 0.46302,-0.463021 0.41965,-0.329107 0.42901,-0.319749 0.0999,0.09989 -0.34565,0.440729 -0.56292,0.580887 -0.56292,0.363126 z m 53.94125,-1.156876 c -0.32911,-0.419644 -0.31975,-0.429002 0.0999,-0.0999 0.44073,0.345644 0.58089,0.562916 0.36313,0.562916 -0.0549,0 -0.2633,-0.208359 -0.46302,-0.463021 z m -52.61833,0.09854 c 0,-0.05494 0.20836,-0.263302 0.46302,-0.463021 0.41964,-0.329107 0.429,-0.319749 0.0999,0.0999 -0.34564,0.440729 -0.56291,0.580887 -0.56291,0.363126 z m 21.64622,-9.076679 c 0.191,-0.07643 0.4192,-0.06703 0.50712,0.02089 0.0879,0.08792 -0.0684,0.150453 -0.34727,0.138965 -0.30822,-0.01269 -0.37092,-0.07539 -0.15985,-0.159853 z m 4.08451,-0.276583 c 0.5457,-0.05708 1.43867,-0.05708 1.98437,0 0.5457,0.05708 0.0992,0.103786 -0.99219,0.103786 -1.0914,0 -1.53789,-0.0467 -0.99218,-0.103786 z" id="path336"></path>
                                <path style="fill:#4184f2;stroke-width:0.264583" d="m -254.25579,-22.373935 c 1.83647,-2.701317 2.92415,-6.41998 2.93,-10.017347 0.008,-5.077558 -1.63053,-8.92417 -5.40376,-12.683889 -3.7658,-3.752321 -7.37328,-5.254707 -12.584,-5.240787 -3.96664,0.01058 -7.36126,1.062382 -10.31875,3.197148 -0.50932,0.367639 4.83609,-5.110416 11.87868,-12.173455 l 12.80473,-12.841888 2.14423,0.915147 c 6.95902,2.970071 13.33576,8.065502 17.68966,14.135197 1.57029,2.189123 4.93057,8.42292 5.33807,9.902878 0.11818,0.429207 -2.29554,2.966997 -12.45657,13.096874 -6.93173,6.910482 -12.34176,12.180038 -12.02229,11.710122 z M -298.6823,-62.74504 c 0,-0.04553 0.38695,-0.432487 0.8599,-0.859895 l 0.85989,-0.777106 -0.7771,0.859896 c -0.72437,0.801543 -0.94269,0.981512 -0.94269,0.777105 z m 23.23372,-11.475032 c 0.191,-0.07643 0.4192,-0.06703 0.50712,0.02089 0.0879,0.08792 -0.0684,0.150453 -0.34726,0.138965 -0.30823,-0.01269 -0.37092,-0.07539 -0.15986,-0.159853 z m 12.17084,0 c 0.19099,-0.07643 0.4192,-0.06703 0.50712,0.02089 0.0879,0.08792 -0.0684,0.150453 -0.34727,0.138965 -0.30823,-0.01269 -0.37092,-0.07539 -0.15985,-0.159853 z m -10.07071,-0.259072 c 0.18191,-0.0734 0.47956,-0.0734 0.66146,0 0.1819,0.0734 0.0331,0.133452 -0.33073,0.133452 -0.3638,0 -0.51263,-0.06005 -0.33073,-0.133452 z m 7.95404,-0.0055 c 0.191,-0.07643 0.4192,-0.06703 0.50712,0.02089 0.0879,0.08792 -0.0684,0.150453 -0.34727,0.138964 -0.30822,-0.01269 -0.37092,-0.07539 -0.15985,-0.159852 z" id="path334"></path>
                                <path style="fill:#fdb801;stroke-width:0.264583" d="m -292.21003,8.4705639 c -6.39129,-6.9777766 -9.70574,-11.2254898 -12.74397,-16.3323368 -1.54407,-2.5953591 -3.79429,-7.4678111 -4.16916,-9.0275621 -0.14225,-0.591888 1.15952,-1.978974 12.37689,-13.188031 l 12.53586,-12.52657 -1.15113,2.340112 c -2.91932,5.934615 -2.51296,12.312496 1.13788,17.859192 3.29977,5.013325 8.79029,7.93561 14.91011,7.935785 3.87025,1.11e-4 7.57284,-1.124421 10.31198,-3.131902 0.51304,-0.376007 -5.91289,6.178677 -14.27987,14.5659654 -8.36697,8.3872886 -15.27711,15.2496146 -15.35586,15.2496146 -0.0788,0 -1.68648,-1.68492 -3.57273,-3.7442671 z" id="path332"></path>
                                <path style="fill:#b4565e;stroke-width:0.264583" d="m -309.53021,-17.991766 c 0,-0.169773 0.0841,-0.224568 0.18691,-0.121764 0.10281,0.102804 6.0857,-5.681649 13.29531,-12.854339 l 13.1084,-13.041256 -13.09587,13.16302 c -7.20273,7.239661 -13.18562,13.16302 -13.29531,13.16302 -0.1097,0 -0.19944,-0.138906 -0.19944,-0.308681 z m -0.50828,-1.697741 c 0.0127,-0.308227 0.0754,-0.37092 0.15985,-0.159854 0.0764,0.190995 0.067,0.419198 -0.0209,0.507119 -0.0879,0.08792 -0.15045,-0.06835 -0.13896,-0.347265 z m -0.26459,-1.058334 c 0.0127,-0.308226 0.0754,-0.370919 0.15985,-0.159853 0.0764,0.190995 0.067,0.419198 -0.0209,0.507119 -0.0879,0.08792 -0.15045,-0.06835 -0.13897,-0.347266 z m -0.26458,-1.058333 c 0.0127,-0.308226 0.0754,-0.370919 0.15985,-0.159853 0.0764,0.190995 0.067,0.419198 -0.0209,0.507119 -0.0879,0.08792 -0.15046,-0.06835 -0.13897,-0.347266 z m -0.24369,-1.168577 c 0,-0.363802 0.06,-0.51263 0.13345,-0.330729 0.0734,0.181901 0.0734,0.479557 0,0.661458 -0.0734,0.181901 -0.13345,0.03307 -0.13345,-0.330729 z m -0.26459,-1.5875 c 0,-0.363802 0.0601,-0.51263 0.13345,-0.330729 0.0734,0.181901 0.0734,0.479557 0,0.661458 -0.0734,0.181901 -0.13345,0.03307 -0.13345,-0.330729 z m -0.25478,-1.719792 c 0.005,-0.436562 0.0647,-0.583125 0.13178,-0.325694 0.0671,0.257432 0.0627,0.614619 -0.01,0.79375 -0.0725,0.179131 -0.12736,-0.03149 -0.12197,-0.468056 z m -0.24049,-2.910416 c 0.002,-0.727604 0.0534,-0.993857 0.11419,-0.591674 0.0608,0.402182 0.0592,0.997495 -0.004,1.322916 -0.0628,0.325422 -0.11256,-0.0036 -0.11058,-0.731242 z m 0,-6.085416 c 0.002,-0.727605 0.0534,-0.993857 0.11419,-0.591675 0.0608,0.402183 0.0592,0.997495 -0.004,1.322917 -0.0628,0.325421 -0.11256,-0.0036 -0.11058,-0.731242 z m 0.24049,-2.645834 c 0.005,-0.436562 0.0647,-0.583125 0.13178,-0.325694 0.0671,0.257432 0.0627,0.614619 -0.01,0.79375 -0.0725,0.179131 -0.12736,-0.03149 -0.12197,-0.468056 z m 0.25478,-1.719791 c 0,-0.363802 0.0601,-0.51263 0.13345,-0.330729 0.0734,0.181901 0.0734,0.479557 0,0.661458 -0.0734,0.181901 -0.13345,0.03307 -0.13345,-0.330729 z m 0.2437,-1.477256 c 0.0127,-0.308227 0.0754,-0.37092 0.15985,-0.159853 0.0764,0.190994 0.067,0.419197 -0.0209,0.507118 -0.0879,0.08792 -0.15045,-0.06835 -0.13896,-0.347265 z m 20.08591,-12.479514 -8.59743,-8.665104 8.66511,8.597431 c 8.05303,7.990147 8.78416,8.732776 8.59743,8.732776 -0.0372,0 -3.93652,-3.899296 -8.66511,-8.665103 z m -16.9318,3.272104 c 0,-0.283948 0.78723,-1.75075 0.93963,-1.75075 0.0728,0 -0.0645,0.386953 -0.30503,0.859896 -0.49113,0.965702 -0.6346,1.167111 -0.6346,0.890854 z m 3.96875,-6.877729 c 0,-0.05494 0.20836,-0.2633 0.46302,-0.46302 0.41964,-0.329107 0.429,-0.319749 0.0999,0.09989 -0.34565,0.44073 -0.56292,0.580887 -0.56292,0.363125 z m 0.79375,-1.058332 c 0,-0.05494 0.20836,-0.263302 0.46302,-0.463021 0.41964,-0.329108 0.429,-0.319749 0.0999,0.0999 -0.34565,0.440729 -0.56292,0.580887 -0.56292,0.363126 z m 2.11666,-2.413647 c 0.49366,-0.509323 0.95709,-0.926042 1.02985,-0.926042 0.0728,0 -0.27161,0.416719 -0.76526,0.926042 -0.49366,0.509323 -0.95709,0.926041 -1.02985,0.926041 -0.0728,0 0.27161,-0.416718 0.76526,-0.926041 z" id="path330"></path>
                                <path style="fill:#e84334;stroke-width:0.264583" d="m -309.34254,-18.12264 c -0.283,-0.457895 -1.22894,-4.485978 -1.66798,-7.102691 -0.64695,-3.855932 -0.59369,-10.475584 0.11626,-14.448758 1.35942,-7.607913 5.2051,-15.465178 10.25269,-20.94766 l 1.34802,-1.464163 8.57293,8.575976 8.57293,8.575973 -13.52418,13.524179 c -7.4383,7.438297 -13.5901,13.417513 -13.67067,13.287144 z" id="path328"></path>
                                <path style="fill:#0065d9;stroke-width:0.264583" d="m -290.6659,-53.732562 -8.517,-8.532812 2.07538,-1.820509 c 10.8301,-9.500068 26.04868,-12.830858 39.78433,-8.707336 l 2.33307,0.700401 -13.4446,13.446534 c -7.39452,7.395593 -13.50525,13.446534 -13.57938,13.446534 -0.0741,0 -3.96745,-3.839765 -8.6518,-8.532812 z" id="path326"></path>
                                <path style="fill:#00ab46;stroke-width:0.264583" d="m -271.37249,41.408139 c -1.13462,-0.559234 -1.79881,-1.526971 -2.55393,-3.721102 -2.69188,-7.821755 -7.97677,-17.250457 -12.99956,-23.192321 l -1.76312,-2.085742 29.46493,-29.465819 c 16.20572,-16.206202 29.53818,-29.465822 29.6277,-29.465822 0.23011,0 1.45432,4.477028 1.93803,7.087534 1.24209,6.703168 0.58574,15.197883 -1.70639,22.085029 -1.85172,5.563822 -5.70611,12.204435 -10.27462,17.7018493 -1.16858,1.4061889 -3.76917,4.3068555 -5.77909,6.4459297 -4.26154,4.535397 -6.71557,7.548417 -9.58405,11.767155 -3.8483,5.659789 -7.13275,11.881416 -9.56779,18.123958 -0.6244,1.600729 -1.34939,3.223159 -1.6111,3.6054 -0.98984,1.445773 -3.44768,1.973207 -5.19101,1.113951 z" id="path324"></path>
                            </g>
                        </g>
                    </svg>