<svg class="animate-icon-color" id="Capa_1" data-name="Capa 1" xmlns="http://www.w3.org/2000/svg" viewBox="0 0 383.39 414.58">
                                      
                                        <path class="cls-1" d="M286.13,340.16c-21.28-4.5-42.9-13.39-64.71-26.67-80.07-48.61-91.53-133.63-61.65-214.16,.36-.93,.17-1.68-.38-2.28,22.49-37.49,64.95-62.06,109.33-69.04,.03-.08,.06-.03,.14,0,4.07-.75,8.19-1.24,12.32-1.53,9.28-.82,18.64-.84,27.82,0l.08,.03c3.25,.24,6.52,.68,9.76,1.21-6.04-3.55-10.83-6.32-11.64-6.73-1.62-.82-3.27-1.56-4.93-2.29C273.93,5.8,241.57-1,206.49,.12,110.53,3.13,21.79,70.06,8.52,165.39c-.38,.1-.73,.39-.9,.82-19.01,51.04,.1,112.91,29.2,156.58,34.15,51.3,85.23,82.25,146.24,90.14,70.66,9.15,140.98-20.55,186.55-71.59,4.95-5.4,9.54-11.14,13.77-17.06-3.64,1.89-7.33,3.66-11.12,5.2-26.28,11.06-56.53,14.58-86.13,10.69Zm-36.85-2.57c10.82,4.23,22.13,7.2,33.49,9.02,5.52,1.26,11.09,2.16,16.67,2.76-19.52,.11-38.37-2.67-58.91-11.34-19.72-8.4-37.09-21.76-52.38-37.37,17.39,15.3,38.09,27.96,61.13,36.92Zm-64.65-46.62c-39.31-38.95-57.55-95.05-43.27-150.78,.29,.01,.55-.03,.8-.08-11.4,55.3,1.79,108.67,42.46,150.86Zm52.54,113.76c-.15-.35-.49-.62-.91-.64-52.59-2.75-97.85-14.53-142.81-42.87C31.33,322.07,25.53,262.64,11.91,197.23c-.28-1.42-2.24-1.11-2.19,.27,2.22,63.81,20.13,121.87,71.8,161.72,33.74,26.04,79.67,45.5,124.07,48.37-4.1,.06-8.16,.04-12.27-.09C81.88,403.51-2.85,295.04,7.44,187.6c1.48,1.93,5.07,1.81,5.27-1.21C17.73,89.81,90.46,24.94,182.63,8.92c36.1-6.25,73.39-2.54,107.72,9.68-9.11,.26-18.29,1.31-27.42,3.11l-.06,.03c-15.31-1.9-31.62,.42-45.96,2.43-2.1,.3-1.56,3.42,.51,3.2,9.54-.86,18.81-1.4,28.02-1.28-45.24,13.71-85.6,45.4-100.93,88.04-25.98,56.78-15.22,114.79,18.37,159.28-.82,.5-1.37,1.65-.65,2.8,37.4,55.8,108.95,98.11,172.03,75.11,.84-.3,1.05-1.09,.95-1.82,7.54-.82,14.96-2.21,22.24-4.24-32.06,31.02-74.81,52.1-120.27,59.48Z"></path>
                                        <path class="cls-1" d="M230.86,382.71c-18.35-1.04-35.31-3.82-51.85-12.3-1.96-.95-3.68,2.26-1.82,3.32,15.61,8.89,35.54,15.88,53.74,12.16,1.65-.38,1.78-3.09-.08-3.18Z"></path>
                                        <path class="cls-1" d="M259.35,380.45c-11.28-2.91-22.87-2.89-34.05-6.82-2.06-.7-3.2,2.25-1.21,3.12,10.87,4.35,23.21,7.91,34.97,6.06,1.12-.15,1.55-2.02,.28-2.36Z"></path>
                                        <path class="cls-1" d="M282.21,373.98c-11.37-3.57-24.42-4.16-36.21-5.86-2.16-.3-2.43,2.89-.36,3.3,11.33,2.4,24.56,7.8,36.23,5.58,1.5-.24,1.89-2.51,.34-3.02Z"></path>
                                        <path class="cls-1" d="M295.07,364.66c-5.27-.54-10.4-.29-15.64,.2-2.19,.27-1.68,3.47,.5,3.34,5.08-.36,10.2-.18,15.18-1.54,1.07-.26,1.18-1.92-.05-2.01Z"></path>
                                        <path class="cls-1" d="M43.57,145.07c-.26,1.16,1.61,1.59,1.98,.52,7.76-22.44,21.1-47.43,40.61-61.64,.21-.16,0-.49-.3-.36-21.43,14.44-36.47,36.4-42.29,61.48Z"></path>
                                        <path class="cls-1" d="M7.22,313.93c-.56-1.04-2.12-.38-1.69,.75,7.43,19.12,18.98,37.59,35.09,50.6,1.32,1.07,2.9-.81,1.96-2.08-12.14-16.34-25.62-31.2-35.36-49.26Z"></path>
                                        <path class="cls-1" d="M27.53,369.76c-1.56-1.63-4.3,.56-2.73,2.23,5.22,5.55,11.53,8.07,18.59,10.56,1.58,.56,2.49-1.78,.93-2.43-6.09-2.56-12.16-5.52-16.79-10.36Z"></path>
                                        <path class="cls-1" d="M5.21,107.94c6.11-8.11,12.04-17.31,16.9-26.21,.92-1.69-.93-3.93-2.62-2.47-7.91,6.79-13.49,17.36-18.25,26.52-1.24,2.36,2.47,4.17,3.97,2.16Z"></path>
                                      </svg>