<svg width="26" height="30" viewBox="0 0 26 30" fill="none" xmlns="http://www.w3.org/2000/svg">
<path fill-rule="evenodd" clip-rule="evenodd" d="M5.07178 29.2633C5.24429 29.2393 5.40975 29.2393 5.56114 29.2597H5.65761C5.64704 29.2633 5.63719 29.2668 5.62662 29.2703C5.66113 29.2773 5.69563 29.2844 5.73013 29.2942C5.95052 29.2562 6.15753 29.2562 6.34342 29.2942C6.37792 29.2837 6.41242 29.2738 6.44693 29.2633C6.68492 29.2119 6.90179 29.2083 7.10176 29.2393C8.52127 29.2189 9.94783 29.1908 11.3709 29.157C11.4159 29.157 11.4568 29.1534 11.5018 29.1534C14.5479 29.0739 17.5967 28.9402 20.6216 28.6713C20.6765 28.6677 20.7322 28.6642 20.7906 28.6572C22.0792 28.5439 23.3642 28.4059 24.6429 28.2334C24.6323 28.2475 24.626 28.2644 24.6224 28.2848C24.6189 28.3123 24.6154 28.3362 24.6154 28.3644C24.5739 28.6642 25.0358 28.6431 24.9703 28.3475C24.9632 28.32 24.9597 28.2961 24.9534 28.2679C24.9463 28.2405 24.9294 28.2165 24.9083 28.199C25.0048 28.1849 25.1048 28.1715 25.2012 28.1574C25.2181 28.1574 25.2322 28.1469 25.2498 28.1433C25.2329 28.2539 25.2118 28.3637 25.2012 28.4742C25.1738 28.7494 25.5596 28.7839 25.5765 28.5051C25.611 27.992 25.642 27.4683 25.711 26.9552C25.7216 26.8756 25.6624 26.8242 25.6005 26.8172C25.4765 24.3648 25.4695 22.2531 25.497 20.266V20.1315C25.5385 17.0111 25.6519 14.1828 25.4801 10.7907C25.4765 10.7358 25.473 10.6774 25.4695 10.6218C25.4146 9.59199 25.335 8.51009 25.2181 7.35287C25.2012 7.17056 24.9393 7.18394 24.9358 7.36695C24.9358 7.40144 24.9393 7.43593 24.9358 7.46691C24.9189 7.45987 24.9013 7.45001 24.8738 7.44649C24.6534 7.42256 24.433 7.40144 24.2091 7.38103C24.4844 7.33598 24.7569 7.28811 25.0294 7.22969C25.2738 7.17831 25.1534 6.80242 24.9055 6.85803C23.7205 7.11636 22.5453 7.23321 21.3673 7.29515C20.7125 7.30219 20.0583 7.32612 19.407 7.3571C19.3662 7.35921 19.3253 7.3585 19.2845 7.36062C20.5505 6.8341 21.6912 5.86271 21.4518 4.99198C21.8172 4.82727 22.1144 4.64285 22.227 4.50066C23.3043 3.14846 22.8164 1.55553 22.4333 0.130832C22.4108 0.0463636 22.2108 0.0836704 22.2291 0.166027C22.4791 1.2972 22.8945 2.60787 22.3988 3.732C22.2383 4.09592 22.0404 4.51755 21.5553 4.77237C21.5046 4.80756 21.4546 4.8329 21.4046 4.86247C21.2849 4.59146 21.0251 4.33313 20.5794 4.10577C19.6718 3.64119 18.9979 4.4718 19.1408 4.94412C19.3288 5.56496 20.3343 5.42277 21.1568 5.11446C21.3483 6.01757 19.9964 6.89534 18.8198 7.37329C18.7536 7.37399 18.6874 7.37751 18.6205 7.37821C18.5987 7.22617 18.5346 7.07413 18.4057 6.92701C18.1241 6.60533 16.7968 6.53142 16.675 6.97065C16.6187 7.17338 16.6828 7.32401 16.8201 7.43382C16.6645 7.4479 16.5074 7.4655 16.3434 7.49225C16.0843 7.53166 15.8223 7.5556 15.5583 7.56968C15.804 7.15367 16.0329 6.73625 16.2406 6.32869C16.6264 5.5727 17.3827 3.88263 16.6609 3.09919C15.4273 1.76177 13.3452 4.33876 13.1136 5.55511C13.0671 5.4643 13.0143 5.3742 12.9544 5.2841C12.972 5.19612 12.9094 5.13699 12.8382 5.12502C12.3137 4.42041 11.4406 3.79253 10.6463 3.66372C10.6477 3.56799 10.6519 3.47296 10.6512 3.37794C10.6498 3.209 10.3935 3.2097 10.3886 3.37794C10.3865 3.46592 10.3787 3.55321 10.3745 3.64049C9.81615 3.63627 9.32327 3.91783 9.06274 4.65904C8.70786 5.66632 9.63238 6.80383 10.1964 7.53166C10.2119 7.55137 10.2281 7.57108 10.2436 7.59079C9.85206 7.59361 9.46057 7.59572 9.06908 7.59854C8.91699 7.54293 8.76701 7.5197 8.62337 7.53448C8.62337 7.53448 8.62337 7.53448 8.62337 7.53378C7.87559 6.17947 6.37722 4.87443 5.44707 5.38054C5.20345 5.06237 4.9556 4.8153 4.79153 4.73858C3.22838 3.99948 1.78916 4.83783 0.488641 5.5361C0.411188 5.57763 0.49357 5.76346 0.569615 5.72686C1.61383 5.22568 2.79535 4.52107 4.00362 4.74703C4.39441 4.82023 4.84998 4.91667 5.20978 5.32986C5.25555 5.37139 5.29146 5.41362 5.3323 5.45586C5.09572 5.63465 4.90419 5.94648 4.78379 6.43217C4.6324 7.04316 4.94222 7.45424 5.30132 7.62106C4.36977 7.62669 3.43892 7.63232 2.50595 7.63725C2.3609 7.64077 2.18206 7.65766 2.12009 7.79211C1.98913 8.07437 2.53693 8.47067 2.26796 8.62553C2.26796 8.47419 2.12995 8.33271 1.97856 8.32567C2.3095 10.8126 2.51229 13.3163 2.58481 15.8243C2.58833 15.8933 2.59186 15.9623 2.59186 16.0313C2.60594 16.441 2.61227 16.8478 2.6158 17.2575C2.56087 16.8612 2.50243 16.4621 2.43976 16.0623C2.43272 15.9968 2.42287 15.9313 2.4123 15.8659C2.17431 14.2919 1.88492 12.7279 1.37161 11.23C1.50258 12.0775 1.63707 12.9243 1.76803 13.7718C1.8814 14.4954 1.99546 15.2183 2.10249 15.9454C2.11305 16.0074 2.12291 16.0693 2.12995 16.1312C2.4123 18.0121 2.66086 19.8957 2.79112 21.7934C2.8735 22.9683 2.90801 24.1529 2.99109 25.327C2.99813 25.4305 3.00518 25.534 3.01503 25.6403C3.01855 25.7226 3.0256 25.8022 3.03193 25.8845C3.03545 25.9155 3.03545 25.9465 3.03897 25.9774C3.10094 26.7215 3.18684 27.4655 3.32133 28.199C3.35231 28.3608 3.44525 28.5678 3.6072 28.5368C3.78323 28.5059 3.77267 28.2475 3.72056 28.0751C3.50721 27.369 3.38963 26.6384 3.32414 25.9014C3.32062 25.8669 3.3171 25.836 3.31358 25.8015C3.30654 25.7254 3.30302 25.6501 3.29668 25.5706C3.28612 25.4671 3.2826 25.3636 3.27978 25.2573C3.24176 24.6407 3.23472 24.0206 3.22838 23.404C3.20937 21.7667 3.19529 20.1308 3.1967 18.4942C5.23513 18.3429 7.39961 18.1747 9.619 18.0057C9.83024 19.2587 10.0365 20.5109 10.2295 21.7618C10.5808 24.0318 10.8977 26.3012 11.2702 28.5713C8.55859 28.6509 5.84701 28.7367 3.13544 28.9261C3.13192 28.8916 3.13192 28.8536 3.13192 28.8191C3.08333 28.9739 3.1629 29.2597 3.31781 29.2562C4.04798 29.2457 4.4789 29.2597 5.07178 29.2633ZM19.4394 4.53234C19.8288 4.47673 20.2189 4.42182 20.6082 4.36621C20.8871 4.57527 21.0469 4.78856 21.123 5.00184C20.5195 5.24539 19.9576 5.09405 19.4394 4.53234ZM25.2998 27.7646C25.2688 27.7477 25.2308 27.7337 25.1829 27.7407C23.6979 27.923 22.2129 28.061 20.7244 28.1645C20.1844 24.2254 19.7696 20.8439 19.3042 17.311C21.256 17.1857 23.1579 17.0773 24.9527 16.9963C24.9639 18.0803 24.9801 19.1559 25.0034 20.2632C25.0034 20.3047 25.0069 20.349 25.0069 20.3941C25.052 22.5677 25.1203 24.8617 25.2273 27.5619C25.2273 27.6344 25.2618 27.6823 25.3069 27.7133C25.3069 27.7302 25.3033 27.7477 25.2998 27.7646ZM18.8339 16.9485C16.1709 17.1343 12.9622 17.3469 9.84362 17.5813C9.74011 16.8091 9.63449 16.0362 9.5338 15.2654C9.5162 15.1331 9.4993 15.0001 9.4817 14.867C10.5555 14.7319 11.6053 14.5932 12.577 14.4848C14.5767 14.2624 16.5877 14.1582 18.5987 14.0695C18.7311 15.0522 18.8606 16.0123 18.9881 16.9555C18.9282 16.9499 18.8691 16.9443 18.8127 16.9344C18.8198 16.9393 18.8254 16.945 18.8331 16.9492L18.8339 16.9485ZM9.29229 15.3168C9.26764 15.1782 9.243 15.0388 9.21906 14.9001C9.22399 14.9001 9.22821 14.8987 9.23314 14.8987C9.25215 15.0381 9.27328 15.1782 9.29229 15.3168ZM3.21641 14.8818C3.35372 14.8579 3.48961 14.834 3.48257 14.8227C4.4106 14.5686 5.68436 14.6242 6.58282 14.5559C7.38552 14.4947 8.18611 14.4229 8.9867 14.3469C8.99585 14.3989 9.005 14.4517 9.01416 14.5038C7.03135 14.7065 5.04079 14.9431 3.2143 15.1683C3.2143 15.0726 3.21571 14.9768 3.21641 14.8811V14.8818ZM9.11907 14.3349C9.13034 14.3342 9.1409 14.3328 9.15217 14.3321C9.15921 14.3842 9.16695 14.4362 9.1747 14.4883C9.16554 14.489 9.15639 14.4904 9.14724 14.4911C9.13808 14.4391 9.12893 14.387 9.11978 14.3349H9.11907ZM7.90376 7.96316H7.99318C7.96994 8.01454 7.95305 8.07789 7.94178 8.14899C7.9284 8.08704 7.91643 8.0251 7.90376 7.96316ZM9.03035 7.96808C9.52958 8.15743 10.1788 8.59315 10.4513 9.36181C10.4654 9.40193 10.4886 9.51878 10.5111 9.6659C9.94994 9.84258 9.84854 10.412 10.5745 10.9822C10.6414 11.0343 10.6942 11.0096 10.7146 10.9174C10.785 10.5979 10.7801 10.2677 10.7273 9.94394C10.9822 9.91649 11.2617 9.93056 11.5194 10.0798C11.856 10.2741 12.1524 10.6028 12.4186 10.9942C12.3749 11.0019 12.3306 11.0104 12.2876 11.0181C12.1088 11.0498 12.1848 11.2103 12.3637 11.1891C12.4193 11.1828 12.4756 11.1744 12.532 11.1666C12.8699 11.703 13.1579 12.333 13.4086 12.9186C13.4804 13.0855 13.6191 12.9742 13.5579 12.8053C13.348 12.2281 13.0784 11.6425 12.7664 11.1328C14.3951 10.8773 16.0476 10.2318 16.1181 9.09363C16.7588 9.07321 17.3918 8.86697 17.8629 8.5664C18.0861 10.2452 18.2966 11.8227 18.4987 13.3283C15.8625 13.4712 13.2262 13.6127 10.5921 13.8696C10.183 13.9097 9.77461 13.9449 9.36552 13.9787C9.17118 12.4871 8.97262 10.9906 8.75715 9.49344C9.06485 9.25482 8.98881 8.55092 8.78954 7.96738C8.86981 7.96738 8.95079 7.96738 9.03106 7.96808H9.03035ZM10.5491 9.96365C10.5886 10.3381 10.5949 10.7203 10.459 10.581C10.264 10.1607 10.295 9.95661 10.5491 9.96365ZM15.8188 8.91061C15.4449 8.86345 15.0717 8.7825 15.2379 8.68184C15.6914 8.58752 15.8836 8.66495 15.8188 8.91061ZM18.1706 7.78155C18.16 7.80196 18.1537 7.82238 18.141 7.84209C18.0945 7.91459 18.0375 7.99061 17.9755 8.06663C17.9607 7.97442 17.9474 7.88643 17.9333 7.79422C18.0121 7.78859 18.0917 7.78507 18.1706 7.78085V7.78155ZM18.5374 13.6155C18.548 13.6922 18.5578 13.7689 18.5684 13.8457C17.0658 13.9238 15.5639 13.9977 14.062 14.0836C12.596 14.1681 11.0202 14.3039 9.42889 14.463C9.42185 14.4116 9.41551 14.3602 9.40847 14.3081C10.3583 14.2166 11.3082 14.1188 12.2609 14.0231C14.3493 13.8147 16.4434 13.7098 18.5374 13.6155ZM8.36425 8.99226C8.29314 8.91624 8.22272 8.83952 8.15161 8.76349C8.07486 8.44674 8.10232 8.21797 8.22272 8.06874C8.27131 8.37705 8.31637 8.68466 8.36425 8.99226ZM8.69097 9.04717C8.63816 8.68677 8.58676 8.32637 8.53113 7.96668C8.58323 7.96668 8.63464 7.96668 8.68674 7.96668C8.81137 8.33552 8.81207 8.69522 8.69167 9.04717H8.69097ZM8.45368 9.57298C8.68111 11.0519 8.89798 12.5273 9.10569 13.9998C9.09091 14.0012 9.07612 14.0019 9.06133 14.0033C8.78954 12.4646 8.50789 10.9259 8.20019 9.39771C8.27272 9.49907 8.35792 9.56454 8.45368 9.57369V9.57298ZM18.8641 14.0583C20.7829 13.9752 22.7023 13.902 24.614 13.7506C24.8344 13.733 24.8252 13.4374 24.6055 13.4557C22.6812 13.619 20.7568 13.7309 18.8324 13.8316C18.8219 13.7556 18.8113 13.6803 18.8008 13.6035C20.8462 13.512 22.8917 13.4268 24.9323 13.2628C24.9344 14.4074 24.9393 15.5027 24.9492 16.5846C23.2332 16.6669 21.5173 16.7704 19.7999 16.8851C19.7879 16.8879 19.7767 16.8922 19.7647 16.895C19.5873 16.9372 19.4183 16.959 19.2584 16.9647C19.1324 16.0144 19.0014 15.0479 18.8634 14.059L18.8641 14.0583ZM22.0101 7.66681C22.9368 7.67385 23.8641 7.71468 24.7907 7.81182C24.8527 7.81886 24.9013 7.80126 24.9386 7.77029C24.9351 8.81769 24.9351 9.80245 24.9316 10.7464V10.9224C24.9316 11.6094 24.9316 12.2682 24.9316 12.9144C24.9301 12.9144 24.9294 12.9144 24.9287 12.9144C22.872 13.0883 20.816 13.203 18.7599 13.3142C18.543 11.7797 18.3044 10.1692 18.0354 8.44674C18.2987 8.24683 18.4916 8.01595 18.579 7.77381C19.7196 7.80126 20.8709 7.76747 22.0094 7.66681H22.0101ZM16.9489 7.18534C17.1447 7.07413 17.3404 6.96221 17.5362 6.85099C17.9284 6.84818 18.1706 6.95658 18.2621 7.17619C18.2811 7.24377 18.2875 7.31205 18.286 7.38033C18.148 7.38103 18.01 7.38173 17.872 7.38455H17.7826C17.7551 7.38455 17.7312 7.38455 17.7066 7.38807C17.5643 7.39088 17.4277 7.39581 17.2918 7.40144C17.1728 7.34372 17.0574 7.27474 16.9482 7.18534H16.9489ZM16.3835 7.87376C16.8419 7.85335 17.3038 7.82871 17.7615 7.80126C17.7812 7.95119 17.8002 8.09408 17.8199 8.2419C17.4946 8.57696 17.0264 8.88597 16.4272 8.95214C16.3849 8.95707 16.2659 8.95214 16.1173 8.94088C16.0737 8.35875 15.5491 8.13069 14.8358 8.6917C15.0154 8.43548 15.1893 8.17433 15.3534 7.90966C15.697 7.8984 16.0399 7.89066 16.3828 7.87376H16.3835ZM11.2913 7.9716C11.2934 7.97653 11.2941 7.98216 11.2969 7.98709C11.3659 8.10464 11.4687 8.05326 11.5265 7.9709C11.592 7.9709 11.6581 7.9709 11.7236 7.9709C11.6476 8.14054 11.5729 8.3137 11.5237 8.48053C11.3596 8.3144 11.2012 8.14336 11.0441 7.9716C11.1265 7.9716 11.2089 7.9716 11.2913 7.9716ZM12.1426 7.9702C12.1855 7.9702 12.2292 7.9702 12.2721 7.9702C12.1771 8.32074 12.1038 8.6734 12.0792 9.01479C11.9947 8.93454 11.9067 8.85571 11.8236 8.77476C11.9708 8.5488 12.063 8.24472 12.1433 7.9709L12.1426 7.9702ZM12.677 7.99554C12.6791 7.98568 12.6826 7.97653 12.6847 7.96668C12.6925 7.96668 12.7002 7.96668 12.7073 7.96668C12.6073 8.44111 12.5235 8.91906 12.4791 9.38856C12.4587 9.36955 12.4376 9.35196 12.4172 9.33295C12.5242 8.89442 12.5707 8.42773 12.6763 7.99554H12.677ZM13.4304 7.95612C13.4304 7.95612 13.436 7.95612 13.4389 7.95612C13.4332 7.97512 13.4269 7.99413 13.4213 8.01243C13.4248 7.99342 13.4269 7.97442 13.4304 7.95612ZM12.9537 9.67083C12.9805 9.71799 13.06 9.72854 13.0981 9.67364C13.2255 9.49203 13.3396 9.30057 13.4438 9.10348C13.4776 9.10559 13.5114 9.09644 13.5325 9.05913C13.7332 8.70859 13.8916 8.33341 14.0317 7.94837C14.1704 7.94556 14.3092 7.94556 14.4479 7.94204C14.2521 8.42281 14.0402 8.89935 13.805 9.37026C13.6135 9.60888 13.4248 9.84398 13.2452 10.0777C13.1326 9.97913 13.0227 9.87918 12.9122 9.77852C12.9277 9.74403 12.9389 9.70672 12.9537 9.67153V9.67083ZM14.8739 7.92655C14.8929 7.92655 14.9119 7.92515 14.9309 7.92444C14.8901 7.98005 14.8506 8.03566 14.8098 8.09127C14.8323 8.03707 14.852 7.98146 14.8746 7.92655H14.8739ZM15.7139 3.13861C16.6483 2.88028 16.6039 4.01215 16.5138 4.58865C16.3441 5.67195 15.8167 6.65742 15.1738 7.58375C15.1182 7.58516 15.0626 7.58446 15.0077 7.58516C15.0788 7.3937 15.1471 7.20013 15.2111 7.00515C15.2414 7.00515 15.2731 6.99811 15.2928 6.96925C15.6815 6.39486 15.9512 5.73108 16.2561 5.10883C16.323 4.97157 16.1195 4.8505 16.049 4.98846C15.8737 5.33267 15.6836 5.67618 15.5083 6.02531C15.7456 5.18696 15.9484 4.33876 16.1673 3.51872C16.2089 3.36456 15.9744 3.30051 15.9293 3.45325C15.5125 4.86035 15.1069 6.24071 14.5859 7.58446C14.4444 7.58305 14.3028 7.58164 14.1613 7.57883C14.4246 6.7813 14.6295 5.9514 14.9337 5.18837C15.0013 5.02084 14.7309 4.95045 14.664 5.11446C14.6401 5.17359 14.6169 5.23553 14.5922 5.29607C14.6612 4.98846 14.733 4.68649 14.8119 4.39507C15.1358 4.06283 15.5012 3.65527 15.5914 3.18999C15.5914 3.18577 15.59 3.18295 15.59 3.17873C15.6315 3.16536 15.6723 3.14846 15.7146 3.1372L15.7139 3.13861ZM13.3699 5.71137C13.5445 4.88992 14.005 4.25641 14.6331 3.7144C14.8513 3.52575 15.1013 3.37442 15.3675 3.26179C15.102 3.57503 14.8872 3.92768 14.5964 4.22262C14.5697 4.25007 14.5598 4.28034 14.5584 4.3099C14.2338 5.39743 13.8909 6.48426 13.5565 7.57179C13.5346 7.57179 13.5121 7.57179 13.4903 7.57179C13.6022 6.82776 13.6691 6.07459 13.7564 5.36153C13.7705 5.24468 13.5684 5.21723 13.5501 5.33338C13.5177 5.5361 13.4804 5.73601 13.4452 5.93592C13.4128 5.87257 13.3163 5.85215 13.2607 5.90213C13.2558 5.8965 13.2544 5.88805 13.2495 5.88383C13.2417 5.85919 13.234 5.83456 13.2255 5.80851C13.2889 5.81344 13.3551 5.78317 13.3699 5.71067V5.71137ZM12.8397 5.69941C12.8889 5.79091 12.9312 5.88312 12.9685 5.97534C12.7911 6.4561 12.5679 7.00867 12.3869 7.57671C12.3461 7.57671 12.3045 7.57671 12.2637 7.57742C12.4798 6.9608 12.665 6.33081 12.839 5.6987L12.8397 5.69941ZM12.4587 5.13628C12.5221 5.21231 12.5805 5.29044 12.6369 5.37068C12.4418 6.02954 12.2228 6.67994 11.9989 7.32964C11.9722 7.40778 11.937 7.49225 11.8982 7.58023C11.8187 7.58023 11.7391 7.58094 11.6595 7.58164C11.7483 7.28811 11.8454 6.9967 11.9433 6.70669C12.1186 6.1851 12.2904 5.6614 12.458 5.13628H12.4587ZM9.98092 6.65319C10.0584 6.36037 10.052 6.0584 10.0619 5.75501C10.0781 5.2475 10.1154 4.74351 10.2168 4.24585C10.245 4.10788 10.0394 4.04805 10.0027 4.18672C9.83798 4.82164 9.66899 5.61423 9.75349 6.30687C9.75208 6.30406 9.74997 6.30195 9.74785 6.29843C9.22188 5.42981 9.21202 4.02412 10.3513 3.99385C10.3372 4.15786 10.3217 4.32187 10.302 4.48588C10.2555 4.88077 10.1436 5.301 10.2224 5.69448C10.2372 5.7698 10.3555 5.78599 10.3893 5.7163C10.5463 5.39039 10.5506 5.00536 10.5907 4.64848C10.6146 4.43731 10.6301 4.22543 10.6393 4.01286C10.6688 4.01708 10.6956 4.01778 10.7273 4.02412C10.8301 4.04453 10.9322 4.07691 11.0329 4.1114C10.9822 4.12126 10.9343 4.15223 10.9273 4.21699C10.8639 4.82305 10.7914 5.42559 10.7041 6.02883C10.6407 6.46103 10.5266 6.88759 10.4724 7.32049C10.3006 7.1044 10.1344 6.88478 9.97951 6.6539L9.98092 6.65319ZM11.4575 5.43544C11.2328 6.02954 11.042 6.6356 10.8167 7.22899C10.7611 7.33528 10.7097 7.44297 10.6611 7.55349H10.6597C11.104 6.56309 11.0836 5.26862 11.166 4.21628C11.1681 4.18672 11.1554 4.16912 11.1434 4.15082C11.5617 4.31624 11.9567 4.59921 12.2834 4.93919C11.994 5.74446 11.6743 6.53775 11.3941 7.34654C11.373 7.40848 11.3385 7.49365 11.3103 7.58446C11.204 7.58446 11.0977 7.58587 10.9913 7.58657C11.1131 7.27474 11.223 6.95869 11.3195 6.63841C11.3209 6.6356 11.3216 6.63348 11.323 6.63067C11.323 6.62926 11.323 6.62856 11.323 6.62715C11.437 6.24915 11.5476 5.86975 11.6786 5.49668C11.7278 5.3559 11.5089 5.29889 11.4575 5.43544ZM10.5027 7.97372C10.4956 7.99202 10.4886 8.01032 10.483 8.03003C10.4393 8.17574 10.6329 8.27921 10.7308 8.18911C11.1448 8.67551 11.6032 9.15135 12.087 9.58213C12.0933 9.64196 12.0926 9.70391 12.1024 9.76233C12.1207 9.86369 12.2545 9.83906 12.2848 9.76233C12.2848 9.76092 12.2848 9.75952 12.2855 9.75811C12.3383 9.80245 12.3918 9.84469 12.4453 9.88833C12.4404 10.0115 12.4348 10.1361 12.4362 10.2572C12.4362 10.3219 12.5369 10.3592 12.5665 10.2924C12.5996 10.2163 12.6242 10.1354 12.6531 10.0573C12.7819 10.1572 12.9115 10.253 13.0424 10.3423C13.0305 10.3592 13.0178 10.3754 13.0051 10.3916C12.903 10.5296 13.1171 10.6718 13.2326 10.5669C13.2544 10.5465 13.2755 10.524 13.2973 10.5042C13.4065 10.5373 13.5121 10.4226 13.486 10.3205C13.955 9.85947 14.3859 9.32873 14.7823 8.76913C14.7816 8.8001 14.8035 8.82896 14.8527 8.85289C15.1485 8.99437 15.4703 9.06476 15.7984 9.08799C15.7674 9.3421 15.6892 9.61099 15.485 9.8285C14.8978 10.4529 13.7346 10.7485 12.6524 10.9519C12.0905 10.0974 11.4011 9.5047 10.6604 9.6307C10.4823 8.96692 10.0985 8.35945 9.66125 7.9702C9.94149 7.9709 10.2217 7.97231 10.5027 7.97231V7.97372ZM5.53157 5.69589C5.90686 6.22733 5.88715 6.80946 5.45904 7.44157C5.31611 7.07483 5.17317 6.7081 5.03023 6.34207C5.17035 6.0225 5.34145 5.81837 5.53157 5.69589ZM5.63296 5.63957C6.51382 5.22568 7.76012 6.48778 8.48325 7.56475C8.45016 7.5746 8.41777 7.58868 8.38538 7.60276H8.15231C8.04176 7.60276 7.93544 7.60628 7.82489 7.60628C7.75237 7.25855 7.67351 6.91082 7.59394 6.56591C7.65591 6.91364 7.71787 7.25855 7.77983 7.60628C7.17288 7.6098 6.56733 7.61332 5.96108 7.61684C6.47157 7.27333 6.11176 6.35333 5.63296 5.63957ZM4.4099 8.01947C4.7338 8.01947 5.05417 8.02299 5.37455 8.03636C5.56748 8.04692 5.76041 8.09127 5.95334 8.07437C6.14275 8.05748 6.29132 7.96738 6.48706 7.96386C6.9384 7.96034 7.39327 7.96034 7.84461 7.96386C7.87137 8.1152 7.89883 8.26584 7.92558 8.41717C7.93051 8.63679 7.97346 8.88105 8.04599 9.09011C8.11429 9.47092 8.18118 9.85173 8.25089 10.2339C8.47832 11.4932 8.70364 12.7539 8.92755 14.0146C7.66435 14.1153 6.40116 14.2033 5.13796 14.3271C4.71479 14.3687 4.086 14.3905 3.56002 14.5348C3.50651 14.5242 3.44525 14.5383 3.40653 14.5827C3.33963 14.6052 3.27697 14.6326 3.21712 14.6615C3.21852 12.4456 3.11854 10.2339 2.53201 8.10816C3.15586 8.04974 3.78253 8.01877 4.4099 8.01877V8.01947ZM2.38414 9.25271C2.40808 9.23863 2.43554 9.22877 2.46018 9.2147C2.55313 9.82428 2.62213 10.4374 2.67001 11.0505C2.60101 10.4479 2.50806 9.84821 2.38414 9.25271ZM3.48046 18.1233L3.1967 17.9755C3.19811 17.696 3.19458 17.4166 3.1967 17.1371C3.20022 16.7239 3.20726 16.3072 3.21078 15.894V15.6737C3.21148 15.5759 3.21219 15.4773 3.21289 15.3795C5.03939 15.3872 7.09754 15.1662 9.08739 14.9191C9.24511 15.8145 9.39861 16.7106 9.5507 17.6059C7.40594 17.7685 5.31259 17.9417 3.48046 18.124V18.1233ZM10.7322 24.1227C10.4506 22.0757 10.1717 20.0302 9.89713 17.9867C12.9249 17.7559 16.0364 17.5243 19.0388 17.3307C19.5246 20.9051 19.9957 24.3028 20.5484 28.1806C17.5024 28.3939 14.45 28.4805 11.3976 28.5699C11.1392 27.0854 10.9322 25.5973 10.7329 24.1234L10.7322 24.1227Z" fill="black"/>
</svg>
