<svg class="animate-zoom-in-out" id="Capa_1" data-name="Capa 1" xmlns="http://www.w3.org/2000/svg" viewBox="0 0 408.91 318.22">
                                <defs>
                                </defs>
                                <path class="cls-1" d="M234.55,19.14c3.49,.77,6.79,2.31,9.84,4.14,1.59,.96,2.94-1.43,1.44-2.45-3.25-2.22-6.64-3.72-10.43-4.74-2.98-.8-7.13-1.87-9.91-.23-.54,.33-.51,1.08,0,1.4,2.57,1.63,6.12,1.21,9.07,1.87Z"></path>
                                <path class="cls-1" d="M221.01,25.91c1.93,.78,4.18,.6,6.23,.88,2.48,.33,4.95,.77,7.42,1.23,1.78,.32,2.56-2.35,.76-2.75-2.45-.53-4.89-1.04-7.36-1.45-2.25-.36-4.88-.92-7.05-.12-1.11,.41-1.06,1.78,0,2.21Z"></path>
                                <path class="cls-1" d="M282.9,9.47c-.92-1.46-1.76-2.96-2.42-4.55-.6-1.46-.75-3.05-1.54-4.42-.35-.62-1.42-.7-1.75,0-1.53,3.23,1.6,7.74,3.36,10.35,.97,1.45,3.3,.12,2.35-1.38Z"></path>
                                <path class="cls-1" d="M328.45,20.28c2-2.43,4.04-4.79,6.26-7.01,1.35-1.37,2.79-2.62,4.34-3.74,1.12-.81,2.16-1.4,2.88-2.61,.34-.57-.11-1.21-.73-1.26-2.8-.18-5.4,2.55-7.33,4.29-2.76,2.49-5.08,5.47-7.37,8.39-1.07,1.36,.8,3.31,1.93,1.93Z"></path>
                                <path class="cls-1" d="M339.17,26c4.43-2.65,8.85-5.43,12.8-8.75,.72-.6-.05-2-.95-1.62-4.79,1.99-8.85,5.26-13.25,7.98-1.52,.93-.14,3.32,1.4,2.39Z"></path>
                                <path class="cls-1" d="M355.86,43.68c2.02-.1,3.85-.8,5.62-1.75,.45-.24,.72-.75,.72-1.26,0-.82-.57-1.46-1.45-1.46-.67,0-1.39,.48-1.98,.75-.93,.42-1.88,.69-2.9,.76-1.9,.11-1.91,3.06,0,2.96Z"></path>
                                <path class="cls-1" d="M236.79,292.14c.31,.3,.62,.6,.93,.9,.09,.08,.21-.05,.13-.13-.3-.31-.6-.62-.9-.93-.1-.11-.27,.05-.16,.16Z"></path>
                                <path class="cls-1" d="M356.71,127.08c-13.04-8.63-28.47-13.65-44.31-15.7-.02-.17-.06-.33-.13-.49,7.21-9.15,15.67-17.3,23.11-26.26,2.83-3.41,5.85-7.31,8.12-11.51,1.71-2.17,3.23-4.47,4-6.92,.11-.33-.07-.65-.34-.85,.73-1.08,1.57-2.17,2.2-3.33,1.16,.02,2.2-1.51,1.16-2.62-12.56-13.41-25.71-25.85-36.57-40.76-.46-.64-1.2-.7-1.75-.42-.01-.05-.02-.1-.03-.16-.21-1.36-2.54-1.04-2.4,.33,1.02,9.92,1.84,19.97,4.17,29.66-2.78-2.82-5.67-5.58-8.18-8.41-4.96-5.55-10.09-11.57-16.38-15.71,.1-.2,.21-.39,.31-.58,.09-.17,.09-.33,.06-.49,.19,.01,.38,.03,.57,.03,4.33,.18,9.42,.58,13.92-.38,.12,.03,.22,.11,.35,.11,.8-.01,1.59-.03,2.38,0l.04,.03c.08,.06,.12,.11,.33,.29,1.04,.86,2.94-.28,2.02-1.56-.15-.21-.27-.47-.44-.71,.23-.33,.17-.73-.1-1.01,.21-.88-.51-1.9-1.48-1.9-1.09,0-2.19-.02-3.28,.02-.49,.02-1.08,.27-1.31,.75-.12,.25-.15,.45-.17,.66-4.99,.1-10.09,.71-15.03,.52-7.14-.27-14.25-.93-21.39-.93-.75,0-1.18,.46-1.32,1.01-.2,.06-.4,.16-.59,.34-6.05,5.6-10.76,13.34-15.72,19.87-3.3,4.35-6.6,8.71-10.01,12.97-.86,1.08-3.14,4.49-4.32,5.42-.78-.03-1.58,.6-1.26,1.51,.1,.29,.26,.52,.39,.77-.26,.23-.41,.58-.26,1.03,3.92,11.63,15.66,22.19,23.99,30.66,5.87,5.96,12.59,12.54,19.97,17.71-8.83-2-19.99,.99-30.02,6.07-13.3-17.33-31.61-31.61-54.54-40.89-54.11-21.9-119.84-6.54-150.66,43.2-.25-.03-.5,.03-.7,.23-23.11,23.68-27.71,62.78-22.27,94.19,6.4,36.9,27.18,66.69,59.14,86.08,45.48,27.59,105.26,22.44,145.82-8.53,5.31,4.77,11.12,9.09,17.57,12.72,47.81,26.94,105.37,17.85,136.42-27.82,31.27-45.99,27.28-116.27-21.06-148.24Zm-47.74-23.11c-1.55,1.24-3.18,2.38-4.83,3.48,1.61-3.45,2.67-7.25,3.61-11.01,1.67-3.92,3.15-7.95,5.01-11.66,.56-1.12-1.02-2.06-1.68-.99-.05,.07-.09,.14-.13,.21,1.95-7.17,4.07-14.22,6.77-21.16,.03-.01,.05-.02,.08-.02,.52-.12,.76-.44,.9-.79,3.15,6.07,6.48,12.06,9.99,17.93-1.56,2.07-3.11,4.13-4.68,6.11-3.66,4.63-7.16,9.37-10.32,14.32-1.77,.79-3.24,2.39-4.71,3.57Zm-7.96,1.98c-.39,1.51-.79,3.01-1.19,4.48-1.73-.06-3.46-.09-5.19-.09-.65-7.24-1.39-14.51-2.26-21.73,8.58-6.77,14.72-15.95,21.35-24.56-5.13,11.53-8.32,24.67-11.46,37.06-.51,1.31-1.03,2.63-1.43,3.95-.12,.38,0,.66,.19,.89Zm-11.36-19.83c.02,.36,.04,.72,.06,1.08-.06,.12-.12,.24-.15,.36-.06-.23-.17-.46-.4-.64-8.73-6.98-15.85-15.44-23.65-23.33,13.26,4.1,30.12,3.29,44.16,.86-5.75,7.21-10.85,14.95-17.97,20.91-.7-.69-2.12-.5-2.05,.75Zm1.83,24.27c-1.03,.02-2.06,.02-3.09,.07-6.24-7.03-11.88-13.53-16.64-21.87-3.86-6.76-7.2-13.8-10.56-20.83-.01-.16-.07-.28-.17-.36-.32-.67-.64-1.34-.96-2.01,.8,.06,1.61,.1,2.42,.19,.39,.05,.69-.06,.92-.25,7.45,8.39,14.62,17.74,23.97,23.89,.87,.58,1.87-.09,2.16-.91,.04,.21,.14,.39,.25,.56,.31,7.13,.28,14.53,1.69,21.53Zm33.5-17.88c-2.86,3.06-5.76,6.08-8.58,9.13,3.68-5.48,7.63-10.76,11.79-15.96,.73-.91,1.49-1.83,2.26-2.75,.14,.23,.27,.46,.41,.68-2.02,2.39-4.01,4.79-6.03,7.18-.5,.6-.3,1.31,.15,1.71Zm16.68-23.3c-.49,.87-.98,1.73-1.47,2.59-.07,.12-.09,.23-.12,.34-1.14,1.56-2.25,3.12-3.42,4.55-1.23,1.52-2.51,2.99-3.77,4.49-.13-.24-.26-.46-.39-.69,3.9-4.6,7.84-9.34,10.54-14.58-.39,1.14-.9,2.21-1.38,3.3Zm2.08-5.34c-.2-.47-.79-.75-1.28-.29-4.31,4.06-8.09,8.88-11.77,13.75-2.92-5.15-5.85-10.3-8.81-15.43,7.31,1.04,14.8,1.08,22.16,1.08-.08,.31-.21,.59-.3,.89Zm-31.06-42.39c8.95,14.76,22.67,26.48,34.51,38.88-.06,.07-.12,.13-.17,.2-.24-.4-.62-.71-1.23-.71-8.51,0-16.89-.27-25.32-1.2-.1-.27-.19-.53-.3-.8,.77-.06,1.5-.77,.94-1.57-.83-1.18-1.78-2.31-2.75-3.44-3.21-10.12-4.21-20.83-5.68-31.36Zm-9.02,20.28c3.45,3.88,7.24,9.38,11.64,13.11-.04,.24-.02,.5,.11,.77,.42,.82,.84,1.63,1.26,2.45-.03,.06-.06,.12-.09,.17-.17,.01-.31,.09-.46,.14-.44-.25-.99-.25-1.47,.25-.6,.64-1.17,1.31-1.75,1.96-16.14,2.44-34.5,3.99-50.07-.83,3.91-4.41,7.49-9.1,11.01-13.84,4.67-6.27,10.28-12.78,14.28-19.65,5.46,4.91,10.63,9.95,15.54,15.47Zm-36.29-20.04c6.93,.21,13.85,.72,20.79,1.06-.07,.07-.14,.15-.21,.22-.05-.04-.1-.07-.16-.11-1.08-.63-2.32,.87-1.43,1.75-4.42,4.58-7.94,10.32-11.64,15.39-4.81,6.59-9.8,12.99-15,19.27-.21,0-.42,.05-.6,.15,2.39-12.66,6.53-24.95,8.25-37.74Zm-21.21,26.32c6-7.79,11.75-15.8,18.01-23.38-2.46,12.25-6.21,24.21-8.21,36.56,0,.03-.02,.07-.02,.1-.02,.16-.06,.32-.09,.47-1.82-.01-3.64,.05-5.31,.03-3.32-.05-11.01,.7-14.3-1.8,3.8-2.21,8.6-10.28,9.92-11.99Zm-10.13,15.08c2.05,.96,4.65,1.18,6.79,1.4,4.47,.46,8.96,.45,13.45,.63-2.61,5.82-5.01,12.37-4.91,18.45-6.16-6.05-12.14-12.86-15.33-20.48Zm22.76,27.51c-1.7-1.57-3.48-3.23-5.26-4.93,1.33-3.66,1.69-7.73,2.71-11.5,.62-2.29,1.35-4.55,2.16-6.79,.49,1.17,1.02,2.33,1.52,3.49-.58,6.59-2.14,13.6-.64,19.92,.11,.49,.84,.48,.96,0,1.31-5.18,1.29-10.98,1.15-16.59,.33,.71,.69,1.41,1.02,2.12-.3,.04-.57,.25-.53,.6,.38,2.89,.35,5.79,.36,8.69,0,2.78-.43,5.9,.43,8.58-1.31-1.22-2.61-2.44-3.88-3.61Zm4.71,4.39c.25-.03,.49-.18,.6-.47,1-2.75,.47-6.01,.28-8.89-.16-2.44-.57-4.84-.99-7.24,.79,1.67,1.62,3.3,2.44,4.95-.39,.12-.72,.39-.73,.92-.04,1.97-.08,3.95-.13,5.91-.05,1.82-.43,3.84,.55,5.45,.3,.47,.99,.47,1.29,0,.86-1.42,.62-3,.58-4.61-.04-1.6-.07-3.2-.11-4.8,.61,1.18,1.26,2.34,1.89,3.52-.29,.18-.51,.48-.52,.93-.04,2.14-.07,4.26,.08,6.4,.07,.94,.13,2.15,.52,3.12-1.96-1.71-3.88-3.45-5.75-5.19Zm7.36,6.54c.25-.02,.48-.13,.62-.37,.72-1.25,.01-2.75-.16-4.1-.16-1.28-.22-2.56-.26-3.85,.35,.61,.72,1.26,1.1,1.93-.4,.13-.72,.47-.71,1.02,.04,2.44,.52,6.15,2.46,7.83,.37,.33,1.08,.25,1.2-.31,.22-1.11-.05-1.95-.42-3.02-.28-.8-.5-1.58-.68-2.38,1.75,2.9,3.77,5.86,6.03,8.43-.57-.02-1.14,.33-1.37,.87-2.68-1.86-5.28-3.9-7.79-6.04Zm-58.65,192.77c-.46,.27-.91,.57-1.37,.84-.44,.27-.89,.51-1.34,.77-29.17,16.49-65.75,20.49-99.44,11.7-.02-.22-.11-.43-.36-.56-28.56-14.47-50.8-32.13-68.84-58.94-24.91-37.01-13.53-71.46-4.99-111.19,.18-.86-.97-1.14-1.28-.36-14.48,35.99-18.78,72.68,.14,107.53,12.35,22.75,33.11,44.87,57.06,57.35-2.29-.96-4.55-1.96-6.79-3.04C24.04,268.84,3.63,187.7,35.75,130.53c.33,1.44,2.37,2.26,3.2,.61,26.54-52.43,82.89-70.64,138.07-56.89,26.63,6.63,50.38,22.14,68.02,42.94-2.45,1.33-4.83,2.73-7.05,4.24-.31,.09-.59,.22-.89,.32-.57-.84-1.35-1.58-2.09-2.32-.84-.84-1.98-.27-2.3,.58-.72-.62-1.45-1.21-1.99-1.73-1.1-1.07-2.61,.02-2.52,1.21-1.23-1.06-2.45-2.14-3.73-3.13-.65-.51-1.45-.21-1.8,.32-1.75-1.76-3.53-3.47-5.4-5.1-.83-.72-1.79,.15-1.49,1.01-35.84-30.62-103.88-31.87-137.92,1.24-30.07,24.82-38.86,59.11-30.67,91.58-.62,.06-1.22,.56-1.07,1.37,7.47,39.58,38.58,80.03,81.7,82.64,.57,.04,.88-.3,1.05-.71,12.73,3.72,26.15,4.95,39.7,3.3,3.83,2.18,8.48,3.72,12.61,3.25,.51-.06,.8-.74,.28-1.03-2.16-1.22-4.64-1.65-7.03-2.25-.62-.15-1.2-.4-1.8-.59,2.2-.36,4.4-.82,6.6-1.32-.12,.4-.06,.87,.37,1.1,3.35,1.76,10.76,4.08,13.14-.43,.27-.52-.06-1.19-.68-1.18-1.67,.02-3.15,.87-4.83,1.04-2.21,.23-4.24-.17-6.27-.94,2.3-.57,4.59-1.25,6.88-2,.13,.23,.32,.44,.63,.55,1.71,.57,3.41,.89,5.21,.98,2.1,.11,3.48-.49,5.16-1.66,.41-.28,.28-.94-.26-.96-2.39-.05-4.77,.12-7.12-.15,1.02-.44,1.22-1.55,.83-2.32,3.31-1.37,6.49-3.04,9.62-4.86-1.53,1.29-3.05,2.6-4.58,3.87-.87,.74,.27,2.18,1.21,1.57,10.7-6.92,22.01-16.39,28.3-27.81,12.89-17.52,20.02-38.56,21.24-59.91,.2,.41,.72,.64,1.12,.22,3.25-3.41,4.41-8.96,5.95-13.29,.46-1.29-1.53-1.79-2.02-.56-1.6,4.05-4.2,8.37-5.01,12.69,.43-8.76-.1-17.56-1.67-26.17,.18,.01,.39-.09,.46-.29,1.14-2.91,1.31-6.15,1.78-9.21,.11-.71-.97-1.03-1.1-.3-.49,2.75-1.22,5.51-1.42,8.31-.82-4.2-1.87-8.35-3.17-12.44,1.14-2.06,1.16-5.09,1.14-7.15,0-.09-.03-.14-.05-.22,.26-.19,.52-.39,.78-.58,2.13,4.43,4.05,8.98,5.87,13.59-.53-.22-1.24-.1-1.36,.56-.68,3.76-2.52,7.99-1.77,11.84,.09,.47,.79,.53,1.01,.13,1.78-3.26,2.17-7.5,2.62-11.19,.32,.83,.62,1.69,.95,2.53-.45-.19-.99-.09-1.07,.52-.6,4.08-1.42,8.13-1.91,12.21-.07,.57,.85,.81,1.08,.3,1.6-3.63,1.94-7.66,2.46-11.56,.62,1.63,1.26,3.24,1.84,4.91,.23,.68,1.39,.62,1.32-.18-.86-9.18-4.03-17.69-8.34-25.66,3.76-2.47,7.77-4.48,11.88-6.24,13.18,29.74,9.41,65.27-.35,95.64-4.68,14.54-11.95,27-21.05,37.43-.34-.35-.89-.52-1.31-.25-4.66,3.02-8.13,8.18-12.09,12.05-3.79,3.71-7.98,6.92-12.44,9.73Zm12.96-159.85c-5.94,4.91-11.33,10.5-15.51,16.64,5.04-8.26,11.03-16.06,18.46-21.55-1.1,1.13-2.14,2.26-3.01,3.36-.44,.56-.31,1.18,.06,1.54Zm-143.82,126.93c5.29,4.92,11.14,9.27,17.36,13.04,2.95,2,5.99,3.83,9.09,5.52-11.49-4.69-21.88-10.73-31.69-20.43-9.47-9.37-16.19-20.88-21.16-33.12,6.25,12.62,15.15,24.53,26.4,34.99Zm-12.13-134.07c.15,.07,.3,.11,.46,.15-21.11,27.5-27.23,59.86-14.27,92.76-13.02-30.79-9.1-65.88,13.8-92.91Zm33.18,144.38c-11.37-7.58-21.8-17.7-31.18-30.2-34.49-45.97-19.09-95.22,19.48-132.04,.45-.43,.51-.91,.37-1.34,38.7-25.37,101.17-17.01,131.04,16.2,1.07,1.2,2.04,2.47,3.01,3.73-13.38,10.18-22.19,28.23-29.25,42.07-12.26,24.04-13.46,57.16,.58,80.68,2.77,7.19,6.38,14.06,10.69,20.5-.7,.53-1.37,1.07-2.06,1.62-29.72,20.17-70.56,16.94-102.68-1.22Zm115.67-16.53c-.25,.17-.44,.44-.44,.85-.02,1.51,.02,3.71,.75,5.33-.16,.16-.31,.33-.46,.49-.17-.95-.41-1.91-.56-2.8-.43-2.51-.82-5.02-1.17-7.54,.57,1.24,1.27,2.44,1.89,3.66Zm20.48-103.17c11.77,31.77,6.47,70.24-11.4,98.16-1.09,1.7-2.24,3.32-3.42,4.89-17.11-32.94-8.18-74.64,14.82-103.05Zm22.31-12.89c36.62-14.79,84.21-2.11,104.54,32.46,19.05,32.4,10.72,75.97-15.2,101.83-29.55,29.48-80.45,29.9-110.63,2.53,7.14-7.87,13.27-16.78,18.07-26.71,18.23-37.73,18.24-77.23,3.22-110.12Zm119.59,125.75c-26.9,51.52-83.13,60.4-133.17,37.73-7.95-3.6-15.04-8.33-21.4-13.84,.79-.63,1.55-1.31,2.32-1.96,.4,2.14,1.41,4.35,3.41,4.85,.53,.13,.97-.24,1-.76,.15-2.12-1.67-3.88-2.22-5.96,.37-.33,.71-.68,1.07-1,.84,2.65,2.14,6.36,4.71,6.53,.29,.02,.58-.22,.65-.49,.07-.28,.06-.52,.04-.77,2.39,2.84,4.9,5.47,8.04,7.75,.36,.26,.79-.31,.47-.61-2.58-2.37-5.01-4.99-7.36-7.67,.5,.45,.99,.92,1.58,1.23,.42,.23,.89,.02,1.07-.36,.04,.12,.04,.25,.17,.36,3.27,2.91,6.6,5.76,10.07,8.43,3,2.31,6.8,5.77,10.67,6.2,.43,.05,.75-.54,.51-.89-1.83-2.53-5.11-4.01-7.67-5.75-4.25-2.89-8.38-5.96-12.37-9.2-.51-.42-1.1-.13-1.34,.31-.84-3.25-3.41-5.98-5.21-8.87,.19-.18,.39-.35,.57-.54,4.01,3.85,8.33,7.43,13.12,10.53,.93,.6,1.92-.74,1.16-1.51-.61-.61-1.18-1.22-1.78-1.84,5.71,3.58,11.81,6.36,18.15,8.34-.38,.23-.6,.71-.18,1.11,4.67,4.41,12.23,8.26,18.83,7.38,.5-.07,.9-.82,.3-1.09-5.98-2.75-12.52-2.51-17.71-7.06,4.32,1.28,8.74,2.16,13.22,2.72,.04,.04,.04,.09,.09,.12,4.47,2.69,9.77,5.84,15.09,6.23,.62,.05,.75-.8,.3-1.09-3.22-2.11-6.98-3.29-10.57-4.79,5.03,.35,10.11,.18,15.16-.34-.05,.3,.06,.65,.42,.79,4.81,1.9,10.78,3.13,15.85,1.58,.39-.11,.39-.68,0-.8-4.64-1.43-9.58-.57-14.29-1.75,10.71-1.36,21.27-4.67,31.02-9.84,4.94,.81,9.66-.05,13.55-3.37,.21-.17-.01-.55-.27-.46-3.56,1.24-7.06,2.38-10.76,2.41,2.53-1.44,4.99-3.04,7.39-4.72,5.85-1.52,12.4-3.73,16.52-8.13,.25-.26,0-.78-.37-.64-3.73,1.3-7.29,3.07-10.87,4.78,.11-.1,.24-.18,.35-.27,2.73-2.29,5.19-4.8,7.53-7.4,3.75-2.23,7.57-4.92,9.91-8.4,.26-.38-.25-.89-.64-.63-1.75,1.13-3.37,2.47-4.97,3.82,20.77-27.71,22.2-68.29,4.71-98.01-23.85-40.52-92.11-50.44-126.77-18.87-.2,0-.41,.06-.6,.24-21.9,21.78-31.62,55.15-25.72,85.37-.62-1.93-1.27-3.84-1.78-5.88-7.45-29.67,4.22-57.5,24.2-79.13,.8-.86-.42-2.07-1.28-1.29-29.16,26.55-33.9,68.49-18.81,102.42-.71-.37-1.9,.04-1.82,1.01,.23,2.55,.36,5.12,.7,7.66,.24,1.73,.28,3.88,1.09,5.53-.38,.37-.73,.8-1.12,1.16-1.42,1.06-2.75,2.27-4.08,3.33-.39,.31-.8,.61-1.19,.93-3.71-5.54-6.98-11.41-9.59-17.66,.08-.27,.07-.59-.09-.93-.67-1.37-1.29-2.76-1.89-4.15-.13-.38-.29-.75-.42-1.13-8.81-25.24-4.66-50.29,4.86-73.8,.39,.06,.81-.08,.92-.61,.34-1.55,.76-3.04,1.23-4.5,1.54-3.49,3.18-6.93,4.91-10.35,14.43-15.13,29.19-29.17,49.04-37.3,7.73-3.16,15.92-5.01,24.29-5.8,.07,.03,.13,.07,.2,.11,0,.1,.1,.2,.15,.31-4.52,.54-8.83,1.48-12.4,2.85-1.66,.64-.97,3.31,.74,2.7,13.96-4.98,26.78-.57,40.81,.36,.82,.06,1.05-1.1,.4-1.49-2.41-1.43-5.25-2.47-8.26-3.26,.15-.41,.15-.89-.05-1.29,.3-.02,.58-.03,.88-.05,.63,.06,1.26,.1,1.88,.17,.31,.91,1.68,1.48,2.54,.68,.13-.08,.26-.17,.38-.27,9.04,1.27,17.92,3.42,26.24,6.19,60.75,20.24,71.29,93.07,44.52,144.33Z"></path>
                                <path class="cls-1" d="M253.88,290.24c-1.12-.79-2.14,1.03-1.06,1.81,5.94,4.32,12.4,10.42,19.65,12.25,.34,.08,.59-.33,.34-.58-5.23-5.44-12.78-9.16-18.94-13.48Z"></path>
                                <path class="cls-1" d="M299.8,301.04c-2.37-.56-4.68-1.27-6.97-2.13-.51-.19-.88,.68-.37,.9,4.14,1.76,9.43,5.16,14.07,3.59,.36-.12,.34-.57,0-.71-2.12-.85-4.51-1.11-6.73-1.65Z"></path>
                                <path class="cls-1" d="M316.61,297.13c-.55-.11-.78,.69-.23,.84,3.38,.94,7.15,1.74,10.39-.08,.36-.2,.18-.73-.2-.74-3.4-.15-6.53,.65-9.95-.02Z"></path>
                                <path class="cls-1" d="M333.4,292.82c-1.96,.21-3.94,.24-5.91,.29-1,.02-1,1.53,0,1.56,3.49,.08,8.12,.7,11.19-1.33,.37-.25,.19-.74-.21-.79-1.69-.22-3.38,.1-5.07,.27Z"></path>
                                <path class="cls-1" d="M362.26,156.79c.24,0,.24-.37,0-.37s-.24,.37,0,.37Z"></path>
                                <path class="cls-1" d="M367.75,166.67s.02,0,.02,0v-1.84s-.02,0-.02,0v1.84Z"></path>
                                <path class="cls-1" d="M367.16,161.52c5.12,8.58,8.02,17.81,10.61,27.38,.29,1.07,2.12,.89,1.98-.27-1.24-10.25-5.52-19.42-11.4-27.81-.5-.71-1.65-.08-1.19,.69Z"></path>
                                <path class="cls-1" d="M86.14,274.3c-.82-1.01-2.58,.34-1.81,1.39,6.5,8.8,15.87,17.57,26.88,19.96,1.03,.23,1.77-1.25,.75-1.78-9.97-5.07-18.68-10.8-25.82-19.58Z"></path>
                                <path class="cls-1" d="M111.09,287.47c-.95-.89-2.33,.49-1.42,1.42,4.98,5.09,10.96,10.11,17.94,11.99,.68,.19,1.34-.76,.73-1.25-5.57-4.39-12-7.24-17.25-12.15Z"></path>
                                <path class="cls-1" d="M123.96,289.48c-1.12-.71-2.06,1-1.02,1.75,5.72,4.11,11.73,10.38,18.77,12.03,.87,.2,1.68-.93,.93-1.59-5.43-4.79-12.55-8.33-18.68-12.19Z"></path>
                                <path class="cls-1" d="M143.33,295.91c-1.25-.41-1.75,1.52-.54,1.96,2.94,1.04,5.71,2.43,8.82,2.88,.66,.1,1.14-.76,.48-1.13-2.78-1.58-5.72-2.71-8.76-3.71Z"></path>
                                <path class="cls-1" d="M67.26,116.53c9.8-10.57,23.39-21.18,37.71-24.28,.16-.04,.09-.27-.07-.25-15.46,2.75-29.24,11.25-38.63,23.77-.43,.58,.51,1.28,.99,.76Z"></path>
                                <path class="cls-1" d="M191.81,93.07c14.08,4.76,26.71,10.29,37.96,20.17,.5,.43,1.33-.13,.95-.74-8.04-12.75-24.75-17.47-38.38-21.34-1.23-.35-1.72,1.5-.52,1.9Z"></path>
                                <path class="cls-1" d="M245.66,151.49c.02,1.65-.07,3.23-.35,4.86-.03,.17,.2,.23,.26,.07,.64-1.61,.7-3.21,.74-4.94,0-.42-.65-.42-.65,0Z"></path>
                                <path class="cls-1" d="M247.01,155.67c-.47,2.59-.48,5.19-.79,7.8-.05,.36,.53,.42,.62,.08,.63-2.51,.92-4.99,1.4-7.53,.15-.8-1.08-1.15-1.23-.34Z"></path>
                                <path class="cls-1" d="M252.2,173.03c-1.2,4.17-3.02,8.25-3.73,12.54-.15,.89,.98,1.47,1.49,.64,2.33-3.84,3.03-8.38,3.98-12.7,.24-1.13-1.42-1.6-1.74-.48Z"></path>
                                <path class="cls-1" d="M252.04,196.14c0-.18,0-.36,0-.55,0-.09-.14-.09-.13,0,0,.19,0,.36,0,.55,0,.08,.12,.08,.12,0Z"></path>
                                <path class="cls-1" d="M206.28,236.44c-.07-.77-1.11-.76-1.19,0-.47,4.34-2.34,10.86,.73,14.57,.29,.35,.85,.13,.96-.25,.62-2.02,.16-4.17,.05-6.24-.14-2.7-.3-5.37-.55-8.07Z"></path>
                                <path class="cls-1" d="M208.58,257.24c.15,.37,.6,.37,.75,0,1.61-3.96,.39-9.07-.13-13.17-.13-.99-1.69-1.02-1.58,0,.44,4.22-.65,9.21,.96,13.17Z"></path>
                                <path class="cls-1" d="M214.72,263.67c.02-2.56-.72-5.05-1.09-7.56-.45-3.07-.66-6.22-.51-9.32,.05-1.18-1.67-1.12-1.81,0-.66,5.4-1.26,12.49,1.79,17.32,.46,.72,1.61,.44,1.62-.44Z"></path>
                                <path class="cls-1" d="M3.44,200.68c-.57,12.45,1.31,25.56,7.07,36.75,.47,.92,1.81,.26,1.6-.68-2.73-12.07-6.57-23.64-7.55-36.07-.06-.72-1.09-.73-1.12,0Z"></path>
                                <path class="cls-1" d="M2.13,236.7c-.46-1.29-2.53-.74-2.07,.57,1.54,4.37,4.43,7.32,7.74,10.44,.74,.7,1.82-.38,1.12-1.12-2.75-2.92-5.4-6.06-6.79-9.89Z"></path>
                                <path class="cls-1" d="M393.83,160.51c.47,1.02,2.05,.28,1.77-.75-3.66-13.67-14.51-23.52-23.65-33.67-.65-.72-1.65,.32-1.05,1.05,8.74,10.55,17.19,20.84,22.93,33.37Z"></path>
                                <path class="cls-1" d="M398.65,142.29c-.54-1.32-2.69-.79-2.18,.6,5.7,15.55,8.68,31.16,10.19,47.63,.13,1.35,2.05,1.38,2.13,0,.93-16.51-3.94-33.09-10.14-48.23Z"></path>
                                <path class="cls-1" d="M54.08,85.7c5.39-3.01,10.94-6.66,15.84-10.41,.93-.71,.45-2.41-.85-2.02-6.06,1.83-11.77,6.34-16.66,10.25-1.27,1.01,.35,2.92,1.68,2.18Z"></path>
                                <path class="cls-1" d="M386.5,281.75c-3.52,9.24-9.83,16.49-15.89,24.12-.93,1.16,.47,2.6,1.63,1.64,7.79-6.49,12.98-15.74,16.06-25.26,.38-1.16-1.38-1.61-1.8-.5Z"></path>
                              </svg>