 <svg width="117.14854mm" height="107.65594mm" viewBox="0 0 117.14854 107.65594" version="1.1" id="svg5" xml:space="preserve" xmlns:inkscape="http://www.inkscape.org/namespaces/inkscape" xmlns:sodipodi="http://sodipodi.sourceforge.net/DTD/sodipodi-0.dtd" xmlns="http://www.w3.org/2000/svg" xmlns:svg="http://www.w3.org/2000/svg">
                        <sodipodi:namedview id="namedview7" pagecolor="#ffffff" bordercolor="#000000" borderopacity="0.25" inkscape:showpageshadow="2" inkscape:pageopacity="0.0" inkscape:pagecheckerboard="0" inkscape:deskcolor="#d1d1d1" inkscape:document-units="mm" showgrid="false"></sodipodi:namedview>
                        <defs id="defs2"></defs>
                        <g inkscape:label="Capa 1" inkscape:groupmode="layer" id="layer1" transform="translate(152.6554,-343.33562)">
                            <g id="g352" transform="translate(320.91102,-28.944915)">
                                <g id="g429" transform="matrix(1.7266155,0,0,1.7266155,359.13685,348.36151)">
                                    <g id="g4615">
                                        <path style="fill:#d2f2f6;stroke-width:0.264583" d="m -461.95281,76.082966 c 0.25466,-0.06655 0.67138,-0.06655 0.92604,0 0.25466,0.06655 0.0463,0.121002 -0.46302,0.121002 -0.50933,0 -0.71768,-0.05445 -0.46302,-0.121002 z m 24.47704,-0.0047 c 0.32912,-0.06329 0.80537,-0.06088 1.05833,0.0053 0.25297,0.06622 -0.0163,0.118004 -0.5984,0.115067 -0.58208,-0.0029 -0.78905,-0.05712 -0.45993,-0.120407 z m -4.71947,-2.127983 -0.64143,-0.727604 0.72761,0.641432 c 0.68005,0.599517 0.84893,0.813777 0.64143,0.813777 -0.0474,0 -0.37482,-0.327422 -0.72761,-0.727605 z m -14.53205,0.363125 c 0,-0.05494 0.20836,-0.2633 0.46302,-0.463021 0.41964,-0.329107 0.429,-0.319749 0.0999,0.0999 -0.34564,0.44073 -0.56291,0.580888 -0.56291,0.363125 z m 18.48708,-3.802708 c -0.32911,-0.419645 -0.31975,-0.429003 0.0999,-0.0999 0.44072,0.345644 0.58088,0.562917 0.36312,0.562917 -0.0549,0 -0.2633,-0.208359 -0.46302,-0.463021 z m -5.98494,-1.785937 c 0.003,-0.582083 0.0571,-0.789054 0.1204,-0.459936 0.0633,0.329118 0.0609,0.805368 -0.005,1.058333 -0.0662,0.252966 -0.11801,-0.01632 -0.11507,-0.598397 z m -10.06931,0 c 0.005,-0.436563 0.0647,-0.583126 0.13177,-0.325694 0.0671,0.257431 0.0627,0.614619 -0.01,0.79375 -0.0725,0.179131 -0.12736,-0.03149 -0.12197,-0.468056 z m -8.78283,-1.290521 c 0,-0.05494 0.20836,-0.2633 0.46302,-0.463021 0.41964,-0.329107 0.429,-0.319749 0.0999,0.0999 -0.34564,0.44073 -0.56291,0.580887 -0.56291,0.363125 z m 20.90208,-3.736562 c 0.34178,-0.363802 0.68094,-0.661459 0.7537,-0.661459 0.0728,0 -0.14734,0.297657 -0.48912,0.661459 -0.34177,0.363802 -0.68094,0.661458 -0.7537,0.661458 -0.0728,0 0.14734,-0.297656 0.48912,-0.661458 z m -1.5875,-1.5875 c 0.34178,-0.363802 0.68094,-0.661458 0.7537,-0.661458 0.0728,0 -0.14734,0.297656 -0.48912,0.661458 -0.34177,0.363802 -0.68094,0.661458 -0.7537,0.661458 -0.0728,0 0.14734,-0.297656 0.48912,-0.661458 z m -18.3224,-0.5836 c 0.32743,-0.06307 0.86321,-0.06307 1.19063,0 0.32742,0.06306 0.0595,0.114663 -0.59531,0.114663 -0.65485,0 -0.92274,-0.0516 -0.59532,-0.114663 z m 24.09362,0.006 c 0.191,-0.07643 0.4192,-0.06703 0.50712,0.02088 0.0879,0.08792 -0.0684,0.150453 -0.34726,0.138965 -0.30823,-0.0127 -0.37092,-0.07539 -0.15986,-0.159851 z m -43.87122,-9.179566 c 0,-0.05494 0.20836,-0.263301 0.46302,-0.463022 0.41965,-0.329107 0.42901,-0.319749 0.0999,0.0999 -0.34565,0.440729 -0.56292,0.580888 -0.56292,0.363125 z m 26.14414,-9.605843 c 0.191,-0.07643 0.4192,-0.06703 0.50712,0.02088 0.0879,0.08792 -0.0684,0.150453 -0.34727,0.138965 -0.30822,-0.0127 -0.37092,-0.07539 -0.15985,-0.159851 z m 41.12141,-1.142177 c 0,-0.509323 0.0545,-0.717682 0.121,-0.463022 0.0666,0.254661 0.0666,0.67138 0,0.926042 -0.0666,0.254661 -0.121,0.0463 -0.121,-0.46302 z m -37.10305,-3.274897 c 0,-0.05494 0.20836,-0.2633 0.46302,-0.46302 0.41965,-0.329107 0.429,-0.31975 0.0999,0.0999 -0.34565,0.44073 -0.56292,0.580889 -0.56292,0.363125 z m 29.74049,-14.782916 -0.50403,-0.595312 0.59531,0.504028 c 0.55945,0.473663 0.71576,0.686597 0.50403,0.686597 -0.0502,0 -0.3181,-0.267891 -0.59531,-0.595313 z m -44.82174,-0.01665 c 0,-0.04554 0.38695,-0.432487 0.8599,-0.859895 l 0.85989,-0.777105 -0.7771,0.859896 c -0.72437,0.801544 -0.94269,0.981512 -0.94269,0.777104 z m 43.23424,-1.570855 -0.50403,-0.595312 0.59531,0.504028 c 0.32742,0.277215 0.59531,0.545106 0.59531,0.595313 0,0.211733 -0.21293,0.05542 -0.68659,-0.504029 z" id="path3881"></path>
                                        <path style="fill:#b0e9f0;stroke-width:0.264583" d="m -466.55063,73.950247 c -0.3291,-0.419645 -0.31974,-0.429003 0.0999,-0.0999 0.25466,0.199721 0.46302,0.40808 0.46302,0.463021 0,0.217763 -0.21727,0.07761 -0.56292,-0.363125 z m 5.01123,-2.892718 c 0.19099,-0.07643 0.4192,-0.06703 0.50712,0.02088 0.0879,0.08792 -0.0684,0.150453 -0.34727,0.138965 -0.30823,-0.0127 -0.37092,-0.07539 -0.15985,-0.159851 z m 24.32513,0.0055 c 0.1819,-0.0734 0.47955,-0.0734 0.66146,0 0.1819,0.0734 0.0331,0.133453 -0.33073,0.133453 -0.36381,0 -0.51263,-0.06005 -0.33073,-0.133453 z m -31.34721,-2.206014 c 0,-0.654844 0.0516,-0.922734 0.11466,-0.595312 0.0631,0.327421 0.0631,0.863203 0,1.190625 -0.0631,0.327421 -0.11466,0.05953 -0.11466,-0.595313 z m 29.62265,0 c 0,-0.509323 0.0544,-0.717682 0.121,-0.463021 0.0666,0.254662 0.0666,0.67138 0,0.926042 -0.0666,0.254661 -0.121,0.0463 -0.121,-0.463021 z m 8.99584,0 c 0,-0.509323 0.0545,-0.717682 0.121,-0.463021 0.0666,0.254662 0.0666,0.67138 0,0.926042 -0.0665,0.254661 -0.121,0.0463 -0.121,-0.463021 z m -5.0467,0 c 0,-0.363802 0.0601,-0.51263 0.13346,-0.330729 0.0734,0.181901 0.0734,0.479557 0,0.661458 -0.0734,0.181901 -0.13346,0.03307 -0.13346,-0.330729 z m -0.86927,-2.050521 c -0.32911,-0.419645 -0.31975,-0.429003 0.0999,-0.0999 0.44072,0.345644 0.58088,0.562917 0.36312,0.562917 -0.0549,0 -0.2633,-0.208359 -0.46302,-0.463021 z m 3.71789,-3.174999 -0.64143,-0.727605 0.7276,0.641432 c 0.68006,0.599517 0.84894,0.813777 0.64143,0.813777 -0.0474,0 -0.37481,-0.327422 -0.7276,-0.727604 z m -24.35539,0 c -0.32911,-0.419646 -0.31975,-0.429004 0.0999,-0.0999 0.25466,0.19972 0.46302,0.40808 0.46302,0.46302 0,0.217763 -0.21728,0.0776 -0.56292,-0.363124 z m -11.74021,-1.653646 c 0.26339,-0.291042 0.53842,-0.529167 0.61118,-0.529167 0.0728,0 -0.0832,0.238125 -0.34659,0.529167 -0.26339,0.291041 -0.53843,0.529166 -0.61119,0.529166 -0.0728,0 0.0832,-0.238125 0.3466,-0.529166 z m 31.0224,-0.439812 c 0.1819,-0.0734 0.47955,-0.0734 0.66146,0 0.1819,0.0734 0.0331,0.133453 -0.33073,0.133453 -0.36381,0 -0.51263,-0.06005 -0.33073,-0.133453 z m -15.04886,-13.781541 c -0.3291,-0.419645 -0.31975,-0.429003 0.0999,-0.0999 0.44073,0.345644 0.58089,0.562917 0.36312,0.562917 -0.0549,0 -0.2633,-0.20836 -0.46302,-0.463021 z m 17.44664,-4.480218 c 0.191,-0.07643 0.4192,-0.06703 0.50712,0.02088 0.0879,0.08792 -0.0684,0.150453 -0.34726,0.138965 -0.30823,-0.0127 -0.37092,-0.07539 -0.15986,-0.159851 z m -19.06653,-11.106989 c 0.1819,-0.0734 0.47956,-0.0734 0.66146,0 0.1819,0.0734 0.0331,0.133454 -0.33073,0.133454 -0.36381,0 -0.51263,-0.06006 -0.33073,-0.133454 z m 7.42487,-18.26176 c 0.19099,-0.07643 0.4192,-0.06703 0.50712,0.02088 0.0879,0.08792 -0.0684,0.150452 -0.34727,0.138964 -0.30823,-0.0127 -0.37092,-0.07539 -0.15985,-0.159851 z m 3.70416,0 c 0.191,-0.07643 0.4192,-0.06703 0.50712,0.02088 0.0879,0.08792 -0.0684,0.150452 -0.34726,0.138964 -0.30823,-0.0127 -0.37092,-0.07539 -0.15986,-0.159851 z" id="path3878"></path>
                                        <path style="fill:#8690af;fill-opacity:1;stroke-width:0.264583" d="m -463.67511,75.622596 c -2.87777,-1.0269 -4.6866,-3.644743 -4.69126,-6.789464 -0.002,-1.421961 0.14801,-2.045057 0.81366,-3.377131 0.44893,-0.898398 1.20125,-1.927111 1.67181,-2.286026 2.66354,-2.031582 6.55331,-1.901291 9.13188,0.305874 1.69285,1.449011 2.24478,2.732391 2.25733,5.248878 0.009,1.883071 -0.0793,2.277263 -0.80405,3.571875 -1.66238,2.969627 -5.31504,4.419467 -8.37937,3.325994 z m 3.06261,-4.692128 c 0.9024,-0.480624 1.22185,-1.058233 1.23096,-2.225768 0.016,-2.054735 -2.08957,-3.051399 -3.35023,-1.585793 -0.88406,1.027779 -0.81886,2.363814 0.16329,3.345963 0.85615,0.856152 1.10947,0.916451 1.95598,0.465598 z m 21.42529,4.687017 c -3.53011,-1.103347 -5.6736,-5.437365 -4.47456,-9.047334 1.68382,-5.069488 8.17123,-6.519793 11.75802,-2.628583 1.46978,1.59453 2.0013,3.161789 1.83944,5.42395 -0.33656,4.703884 -4.64006,7.653091 -9.1229,6.251967 z m 3.53967,-5.012595 c 0.57333,-0.493162 0.73635,-0.863848 0.73635,-1.674458 0,-1.572503 -0.69629,-2.454664 -1.93745,-2.454664 -1.25307,0 -1.8798,0.629301 -2.07483,2.083359 -0.12506,0.932397 -0.0418,1.167243 0.66353,1.87262 0.97161,0.971608 1.63316,1.015452 2.6124,0.173143 z m -14.91853,-1.414518 c 0.84206,-0.05266 2.15174,-0.05218 2.91042,0.0011 0.75867,0.05326 0.0697,0.09635 -1.53102,0.09575 -1.60073,-5.29e-4 -2.22146,-0.04417 -1.3794,-0.09684 z m 28.49919,-9.164499 c 0,-0.05494 0.20836,-0.2633 0.46302,-0.463021 0.41965,-0.329107 0.42901,-0.319749 0.0999,0.0999 -0.34564,0.44073 -0.56292,0.580887 -0.56292,0.363125 z m -15.14739,-0.869082 c 0.1819,-0.0734 0.47955,-0.0734 0.66146,0 0.1819,0.0734 0.0331,0.133453 -0.33073,0.133453 -0.36381,0 -0.51263,-0.06006 -0.33073,-0.133453 z m -8.86354,-5.03424 c 0.25466,-0.06655 0.67138,-0.06655 0.92604,0 0.25466,0.06655 0.0463,0.121002 -0.46302,0.121002 -0.50933,0 -0.71769,-0.05445 -0.46302,-0.121002 z m -32.92409,-3.173354 c 0.19099,-0.07643 0.4192,-0.06703 0.50712,0.02088 0.0879,0.08792 -0.0684,0.150453 -0.34727,0.138965 -0.30822,-0.0127 -0.37092,-0.07539 -0.15985,-0.159851 z m 5.09758,-8.175683 c 0.0127,-0.308226 0.0754,-0.370919 0.15985,-0.159853 0.0764,0.190995 0.067,0.419198 -0.0209,0.507119 -0.0879,0.08792 -0.15046,-0.06835 -0.13897,-0.347266 z m 38.60828,-4.97264 c 0,-0.05494 0.20836,-0.2633 0.46302,-0.463021 0.41964,-0.329107 0.429,-0.319748 0.0999,0.0999 -0.34564,0.440729 -0.56291,0.580887 -0.56291,0.363124 z m -9.85099,-23.904354 c 0.47554,-0.05889 1.18992,-0.05767 1.5875,0.0027 0.39757,0.06037 0.008,0.10855 -0.86464,0.107066 -0.87312,-0.0016 -1.19841,-0.05088 -0.72286,-0.109766 z" id="path3875"></path>
                                        <path style="fill:#6fd8e5;stroke-width:0.264583" d="m -422.72834,60.654935 c 0.26339,-0.291041 0.53843,-0.529166 0.61119,-0.529166 0.0728,0 -0.0832,0.238125 -0.3466,0.529166 -0.26339,0.291042 -0.53842,0.529167 -0.61119,0.529167 -0.0728,0 0.0832,-0.238125 0.3466,-0.529167 z m -55.99312,-0.46302 c -0.32911,-0.419645 -0.31975,-0.429003 0.0999,-0.0999 0.25466,0.19972 0.46302,0.40808 0.46302,0.46302 0,0.217763 -0.21728,0.07761 -0.56292,-0.363124 z m 44.76922,-25.091317 c 0.0127,-0.308227 0.0754,-0.37092 0.15985,-0.159854 0.0764,0.190995 0.067,0.419198 -0.0209,0.507119 -0.0879,0.08792 -0.15046,-0.06835 -0.13897,-0.347265 z" id="path3872"></path>
                                        <path style="fill:#55d1e1;stroke-width:0.264583" d="m -446.65224,68.702679 c 0.0127,-0.308226 0.0754,-0.370919 0.15985,-0.159853 0.0764,0.190994 0.067,0.4192 -0.0209,0.507119 -0.0879,0.08792 -0.15046,-0.06835 -0.13897,-0.347266 z m 16.09867,-6.923264 -0.64143,-0.727605 0.7276,0.641432 c 0.68006,0.599517 0.84894,0.813777 0.64143,0.813777 -0.0474,0 -0.37481,-0.327422 -0.7276,-0.727604 z m -13.47372,0.363124 c 0,-0.05494 0.20836,-0.2633 0.46302,-0.463021 0.41964,-0.329107 0.429,-0.319748 0.0999,0.0999 -0.34564,0.44073 -0.56291,0.580888 -0.56291,0.363125 z m -10.46769,-11.607915 -0.7771,-0.859896 0.85989,0.777105 c 0.80155,0.724371 0.98151,0.942687 0.77711,0.942687 -0.0455,0 -0.43249,-0.386953 -0.8599,-0.859896 z m 8.81713,-0.120983 c 0.32911,-0.06329 0.80536,-0.06088 1.05833,0.0053 0.25296,0.06622 -0.0163,0.118004 -0.5984,0.115067 -0.58208,-0.0029 -0.78905,-0.05712 -0.45993,-0.120406 z m 6.94222,-2.294017 c 0,-0.05494 0.20836,-0.2633 0.46302,-0.463021 0.41965,-0.329107 0.42901,-0.319749 0.0999,0.0999 -0.34564,0.44073 -0.56292,0.580887 -0.56292,0.363125 z m -35.16869,-4.287777 c 0.0127,-0.308226 0.0754,-0.370919 0.15985,-0.159853 0.0764,0.190995 0.067,0.419198 -0.0209,0.507119 -0.0879,0.08792 -0.15046,-0.06835 -0.13897,-0.347266 z m 59.00208,-4.233333 c 0.0127,-0.308226 0.0754,-0.370919 0.15985,-0.159853 0.0764,0.190995 0.067,0.419198 -0.0209,0.507119 -0.0879,0.08792 -0.15046,-0.06835 -0.13897,-0.347266 z m -22.56008,-1.084733 c 0.19099,-0.07643 0.4192,-0.06703 0.50712,0.02088 0.0879,0.08792 -0.0684,0.150453 -0.34727,0.138965 -0.30822,-0.0127 -0.37092,-0.07539 -0.15985,-0.159851 z m -3.3482,-3.523427 c 0,-0.363802 0.0601,-0.51263 0.13345,-0.330729 0.0734,0.181901 0.0734,0.479557 0,0.661458 -0.0734,0.181901 -0.13345,0.03307 -0.13345,-0.330729 z M -466.12,23.084104 c 0.56839,-0.582083 1.09297,-1.058333 1.16573,-1.058333 0.0728,0 -0.33276,0.47625 -0.90115,1.058333 -0.56839,0.582084 -1.09296,1.058334 -1.16573,1.058334 -0.0728,0 0.33276,-0.47625 0.90115,-1.058334 z" id="path3869"></path>
                                        <path style="fill:#25c5d9;stroke-width:0.264583" d="m -452.02659,67.467956 c -0.26436,-3.256473 -2.00593,-5.707705 -5.16429,-7.268651 -1.87037,-0.924383 -2.19272,-0.998969 -4.28519,-0.991473 -1.91921,0.0069 -2.51537,0.123555 -3.9273,0.768662 -1.8687,0.853797 -4.03716,2.988495 -4.59066,4.519175 -0.18332,0.506971 -0.46111,0.921766 -0.6173,0.921766 -0.46559,0 -4.32822,-2.28296 -5.85313,-3.459419 -2.08175,-1.606058 -4.85909,-4.652813 -5.44142,-5.969256 -0.4204,-0.950399 -0.45976,-1.320207 -0.22814,-2.143778 0.4935,-1.754756 1.65669,-2.711857 3.30675,-2.720856 1.48608,-0.0081 3.20006,-0.85145 3.82758,-1.88333 0.698,-1.14776 0.9882,-2.613509 1.33027,-6.718943 0.82243,-9.870487 2.7977,-14.623771 8.24442,-19.83937 6.2058,-5.942475 14.00226,-8.901403 22.43233,-8.513561 12.60854,0.580083 23.52694,8.599651 27.08697,19.89539 2.27092,7.205474 1.06294,15.741639 -3.13331,22.141613 -2.19365,3.34568 -8.95848,9.505497 -9.31059,8.477892 -0.348,-1.015616 -2.00885,-2.963656 -3.26206,-3.826131 -2.06495,-1.421117 -4.45251,-1.992762 -6.70883,-1.606272 -2.26647,0.388231 -3.85144,1.177435 -5.32597,2.65196 -1.67821,1.67821 -2.44161,3.319645 -2.89565,6.22604 l -0.155,0.992188 h -2.59761 -2.59762 z m 9.71447,-13.563543 c 2.4936,-0.528201 4.35718,-1.487017 6.19213,-3.185859 2.75708,-2.552573 4.06273,-6.10172 2.61716,-7.11424 -1.25293,-0.877581 -2.56986,-0.278736 -3.07189,1.396867 -0.44392,1.481688 -2.42529,3.57904 -4.20257,4.448585 -1.92885,0.943695 -5.39544,1.183032 -7.41576,0.51199 -2.92758,-0.972383 -5.05412,-3.06093 -5.48591,-5.387882 -0.10048,-0.54151 -0.36966,-1.192922 -0.59819,-1.447583 -0.58073,-0.647166 -2.05091,-0.597673 -2.74085,0.09227 -0.47121,0.471209 -0.52752,0.741635 -0.37192,1.785937 0.59547,3.996415 4.42599,7.797654 8.997,8.928229 1.8088,0.447382 3.88061,0.437735 6.0808,-0.02831 z m -9.92769,-15.104297 c 3.4401,-1.376456 2.39645,-6.720179 -1.31248,-6.720179 -3.60073,0 -4.7358,4.995582 -1.49911,6.597735 1.32606,0.656389 1.4623,0.662323 2.81159,0.122444 z m 16.87393,-0.796711 c 2.11304,-1.337866 2.08235,-4.5979 -0.0557,-5.919298 -1.80615,-1.116264 -3.97783,-0.457086 -4.92239,1.494115 -1.54335,3.188129 1.98217,6.322057 4.9781,4.425183 z" id="path3866"></path>
                                    </g>
                                </g>
                            </g>
                        </g>
                    </svg> 